  0
SECTION
  2
HEADER
  9
$ACADVER
  1
AC1027
  9
$ACADMAINTVER
 70
   105
  9
$DWGCODEPAGE
  3
CNT
  9
$LASTSAVEDBY
  1
fmeserver
  9
$REQUIREDVERSIONS
160
                 0
  9
$INSBASE
 10
0.0
 20
0.0
 30
0.0
  9
$EXTMIN
 10
392428.166579628
 20
5818663.90185154
 30
34.6199989318848
  9
$EXTMAX
 10
392493.604825641
 20
5818728.52695801
 30
40.9446802768662
  9
$LIMMIN
 10
0.0
 20
0.0
  9
$LIMMAX
 10
12.0
 20
9.0
  9
$ORTHOMODE
 70
     0
  9
$REGENMODE
 70
     1
  9
$FILLMODE
 70
     1
  9
$QTEXTMODE
 70
     0
  9
$MIRRTEXT
 70
     1
  9
$LTSCALE
 40
1.0
  9
$ATTMODE
 70
     1
  9
$TEXTSIZE
 40
0.2
  9
$TRACEWID
 40
0.05
  9
$TEXTSTYLE
  7
Standard
  9
$CLAYER
  8
0
  9
$CELTYPE
  6
ByLayer
  9
$CECOLOR
 62
   256
  9
$CELTSCALE
 40
1.0
  9
$DISPSILH
 70
     0
  9
$DIMSCALE
 40
1.0
  9
$DIMASZ
 40
0.18
  9
$DIMEXO
 40
0.0625
  9
$DIMDLI
 40
0.38
  9
$DIMRND
 40
0.0
  9
$DIMDLE
 40
0.0
  9
$DIMEXE
 40
0.18
  9
$DIMTP
 40
0.0
  9
$DIMTM
 40
0.0
  9
$DIMTXT
 40
0.18
  9
$DIMCEN
 40
0.09
  9
$DIMTSZ
 40
0.0
  9
$DIMTOL
 70
     0
  9
$DIMLIM
 70
     0
  9
$DIMTIH
 70
     1
  9
$DIMTOH
 70
     1
  9
$DIMSE1
 70
     0
  9
$DIMSE2
 70
     0
  9
$DIMTAD
 70
     0
  9
$DIMZIN
 70
     0
  9
$DIMBLK
  1

  9
$DIMASO
 70
     1
  9
$DIMSHO
 70
     1
  9
$DIMPOST
  1

  9
$DIMAPOST
  1

  9
$DIMALT
 70
     0
  9
$DIMALTD
 70
     2
  9
$DIMALTF
 40
25.4
  9
$DIMLFAC
 40
1.0
  9
$DIMTOFL
 70
     0
  9
$DIMTVP
 40
0.0
  9
$DIMTIX
 70
     0
  9
$DIMSOXD
 70
     0
  9
$DIMSAH
 70
     0
  9
$DIMBLK1
  1

  9
$DIMBLK2
  1

  9
$DIMSTYLE
  2
Standard
  9
$DIMCLRD
 70
     0
  9
$DIMCLRE
 70
     0
  9
$DIMCLRT
 70
     0
  9
$DIMTFAC
 40
1.0
  9
$DIMGAP
 40
0.09
  9
$DIMJUST
 70
     0
  9
$DIMSD1
 70
     0
  9
$DIMSD2
 70
     0
  9
$DIMTOLJ
 70
     1
  9
$DIMTZIN
 70
     0
  9
$DIMALTZ
 70
     0
  9
$DIMALTTZ
 70
     0
  9
$DIMUPT
 70
     0
  9
$DIMDEC
 70
     4
  9
$DIMTDEC
 70
     4
  9
$DIMALTU
 70
     2
  9
$DIMALTTD
 70
     2
  9
$DIMTXSTY
  7
Standard
  9
$DIMAUNIT
 70
     0
  9
$DIMADEC
 70
     0
  9
$DIMALTRND
 40
0.0
  9
$DIMAZIN
 70
     0
  9
$DIMDSEP
 70
    46
  9
$DIMATFIT
 70
     3
  9
$DIMFRAC
 70
     0
  9
$DIMLDRBLK
  1

  9
$DIMLUNIT
 70
     2
  9
$DIMLWD
 70
    -2
  9
$DIMLWE
 70
    -2
  9
$DIMTMOVE
 70
     0
  9
$DIMFXL
 40
1.0
  9
$DIMFXLON
 70
     0
  9
$DIMJOGANG
 40
0.7853981633974483
  9
$DIMTFILL
 70
     0
  9
$DIMTFILLCLR
 70
     0
  9
$DIMARCSYM
 70
     0
  9
$DIMLTYPE
  6

  9
$DIMLTEX1
  6

  9
$DIMLTEX2
  6

  9
$DIMTXTDIRECTION
 70
     0
  9
$LUNITS
 70
     2
  9
$LUPREC
 70
     4
  9
$SKETCHINC
 40
0.1
  9
$FILLETRAD
 40
0.5
  9
$AUNITS
 70
     0
  9
$AUPREC
 70
     0
  9
$MENU
  1
.
  9
$ELEVATION
 40
0.0
  9
$PELEVATION
 40
0.0
  9
$THICKNESS
 40
0.0
  9
$LIMCHECK
 70
     0
  9
$CHAMFERA
 40
0.0
  9
$CHAMFERB
 40
0.0
  9
$CHAMFERC
 40
0.0
  9
$CHAMFERD
 40
0.0
  9
$SKPOLY
 70
     0
  9
$TDCREATE
 40
2459808.665676134
  9
$TDUCREATE
 40
2459808.665676134
  9
$TDUPDATE
 40
2459808.665764803
  9
$TDUUPDATE
 40
2459808.665764803
  9
$TDINDWG
 40
0.0000000116
  9
$TDUSRTIMER
 40
0.0000000116
  9
$USRTIMER
 70
     1
  9
$ANGBASE
 50
0.0
  9
$ANGDIR
 70
     0
  9
$PDMODE
 70
     0
  9
$PDSIZE
 40
0.0
  9
$PLINEWID
 40
0.0
  9
$SPLFRAME
 70
     0
  9
$SPLINETYPE
 70
     6
  9
$SPLINESEGS
 70
     8
  9
$HANDSEED
  5
1FF
  9
$SURFTAB1
 70
     6
  9
$SURFTAB2
 70
     6
  9
$SURFTYPE
 70
     6
  9
$SURFU
 70
     6
  9
$SURFV
 70
     6
  9
$UCSBASE
  2

  9
$UCSNAME
  2

  9
$UCSORG
 10
0.0
 20
0.0
 30
0.0
  9
$UCSXDIR
 10
1.0
 20
0.0
 30
0.0
  9
$UCSYDIR
 10
0.0
 20
1.0
 30
0.0
  9
$UCSORTHOREF
  2

  9
$UCSORTHOVIEW
 70
     0
  9
$UCSORGTOP
 10
0.0
 20
0.0
 30
0.0
  9
$UCSORGBOTTOM
 10
0.0
 20
0.0
 30
0.0
  9
$UCSORGLEFT
 10
0.0
 20
0.0
 30
0.0
  9
$UCSORGRIGHT
 10
0.0
 20
0.0
 30
0.0
  9
$UCSORGFRONT
 10
0.0
 20
0.0
 30
0.0
  9
$UCSORGBACK
 10
0.0
 20
0.0
 30
0.0
  9
$PUCSBASE
  2

  9
$PUCSNAME
  2

  9
$PUCSORG
 10
0.0
 20
0.0
 30
0.0
  9
$PUCSXDIR
 10
1.0
 20
0.0
 30
0.0
  9
$PUCSYDIR
 10
0.0
 20
1.0
 30
0.0
  9
$PUCSORTHOREF
  2

  9
$PUCSORTHOVIEW
 70
     0
  9
$PUCSORGTOP
 10
0.0
 20
0.0
 30
0.0
  9
$PUCSORGBOTTOM
 10
0.0
 20
0.0
 30
0.0
  9
$PUCSORGLEFT
 10
0.0
 20
0.0
 30
0.0
  9
$PUCSORGRIGHT
 10
0.0
 20
0.0
 30
0.0
  9
$PUCSORGFRONT
 10
0.0
 20
0.0
 30
0.0
  9
$PUCSORGBACK
 10
0.0
 20
0.0
 30
0.0
  9
$USERI1
 70
     0
  9
$USERI2
 70
     0
  9
$USERI3
 70
     0
  9
$USERI4
 70
     0
  9
$USERI5
 70
     0
  9
$USERR1
 40
0.0
  9
$USERR2
 40
0.0
  9
$USERR3
 40
0.0
  9
$USERR4
 40
0.0
  9
$USERR5
 40
0.0
  9
$WORLDVIEW
 70
     1
  9
$SHADEDGE
 70
     3
  9
$SHADEDIF
 70
    70
  9
$TILEMODE
 70
     1
  9
$MAXACTVP
 70
    64
  9
$PINSBASE
 10
0.0
 20
0.0
 30
0.0
  9
$PLIMCHECK
 70
     0
  9
$PEXTMIN
 10
1.000000000000000E+20
 20
1.000000000000000E+20
 30
1.000000000000000E+20
  9
$PEXTMAX
 10
-1.000000000000000E+20
 20
-1.000000000000000E+20
 30
-1.000000000000000E+20
  9
$PLIMMIN
 10
0.0
 20
0.0
  9
$PLIMMAX
 10
12.0
 20
9.0
  9
$UNITMODE
 70
     0
  9
$VISRETAIN
 70
     1
  9
$PLINEGEN
 70
     0
  9
$PSLTSCALE
 70
     1
  9
$TREEDEPTH
 70
  3020
  9
$CMLSTYLE
  2
Standard
  9
$CMLJUST
 70
     0
  9
$CMLSCALE
 40
1.0
  9
$PROXYGRAPHICS
 70
     1
  9
$MEASUREMENT
 70
     0
  9
$CELWEIGHT
370
    -1
  9
$ENDCAPS
280
     0
  9
$JOINSTYLE
280
     0
  9
$LWDISPLAY
290
     0
  9
$INSUNITS
 70
     6
  9
$HYPERLINKBASE
  1

  9
$STYLESHEET
  1

  9
$XEDIT
290
     1
  9
$CEPSNTYPE
380
     0
  9
$PSTYLEMODE
290
     1
  9
$FINGERPRINTGUID
  2
{7673f3f4-3538-6366-3532-317539713374}
  9
$VERSIONGUID
  2
{FAEB1C32-E019-11D5-929B-00C0DF256EC4}
  9
$EXTNAMES
290
     1
  9
$PSVPSCALE
 40
0.0
  9
$OLESTARTUP
290
     0
  9
$SORTENTS
280
   127
  9
$INDEXCTL
280
     0
  9
$HIDETEXT
280
     1
  9
$XCLIPFRAME
280
     2
  9
$HALOGAP
280
     0
  9
$OBSCOLOR
 70
   257
  9
$OBSLTYPE
280
     0
  9
$INTERSECTIONDISPLAY
280
     0
  9
$INTERSECTIONCOLOR
 70
   257
  9
$DIMASSOC
280
     2
  9
$PROJECTNAME
  1

  9
$CAMERADISPLAY
290
     0
  9
$LENSLENGTH
 40
50.0
  9
$CAMERAHEIGHT
 40
0.0
  9
$STEPSPERSEC
 40
2.0
  9
$STEPSIZE
 40
6.0
  9
$3DDWFPREC
 40
2.0
  9
$PSOLWIDTH
 40
0.25
  9
$PSOLHEIGHT
 40
4.0
  9
$LOFTANG1
 40
1.570796326794897
  9
$LOFTANG2
 40
1.570796326794897
  9
$LOFTMAG1
 40
0.0
  9
$LOFTMAG2
 40
0.0
  9
$LOFTPARAM
 70
     7
  9
$LOFTNORMALS
280
     1
  9
$LATITUDE
 40
37.795
  9
$LONGITUDE
 40
-122.394
  9
$NORTHDIRECTION
 40
0.0
  9
$TIMEZONE
 70
 -8000
  9
$LIGHTGLYPHDISPLAY
280
     1
  9
$TILEMODELIGHTSYNCH
280
     1
  9
$CMATERIAL
347
44
  9
$SOLIDHIST
280
     0
  9
$SHOWHIST
280
     1
  9
$DWFFRAME
280
     2
  9
$DGNFRAME
280
     2
  9
$REALWORLDSCALE
290
     1
  9
$INTERFERECOLOR
 62
   256
  9
$CSHADOW
280
     0
  9
$SHADOWPLANELOCATION
 40
0.0
  0
ENDSEC
  0
SECTION
  2
CLASSES
  0
CLASS
  1
ACDBDICTIONARYWDFLT
  2
AcDbDictionaryWithDefault
  3
ObjectDBX Classes
 90
        0
 91
        3
280
     0
281
     0
  0
CLASS
  1
VISUALSTYLE
  2
AcDbVisualStyle
  3
ObjectDBX Classes
 90
     4095
 91
        3
280
     0
281
     0
  0
CLASS
  1
MATERIAL
  2
AcDbMaterial
  3
ObjectDBX Classes
 90
     1153
 91
        3
280
     0
281
     0
  0
CLASS
  1
SCALE
  2
AcDbScale
  3
ObjectDBX Classes
 90
     1153
 91
        3
280
     0
281
     0
  0
CLASS
  1
TABLESTYLE
  2
AcDbTableStyle
  3
ObjectDBX Classes
 90
     4095
 91
        3
280
     0
281
     0
  0
CLASS
  1
MLEADERSTYLE
  2
AcDbMLeaderStyle
  3
ACDB_MLEADERSTYLE_CLASS
 90
     4095
 91
        3
280
     0
281
     0
  0
CLASS
  1
SUN
  2
AcDbSun
  3
SCENEOE
 90
     1153
 91
        3
280
     0
281
     0
  0
CLASS
  1
DICTIONARYVAR
  2
AcDbDictionaryVar
  3
ObjectDBX Classes
 90
        0
 91
        3
280
     0
281
     0
  0
CLASS
  1
CELLSTYLEMAP
  2
AcDbCellStyleMap
  3
ObjectDBX Classes
 90
     1152
 91
        3
280
     0
281
     0
  0
ENDSEC
  0
SECTION
  2
TABLES
  0
TABLE
  2
VPORT
  5
8
330
0
100
AcDbSymbolTable
 70
     1
  0
VPORT
  5
29
330
8
100
AcDbSymbolTableRecord
100
AcDbViewportTableRecord
  2
*Active
 70
     0
 10
0.0
 20
0.0
 11
1.0
 21
1.0
 12
392460.8857026345
 22
5818696.214404775
 13
0.0
 23
0.0
 14
0.5
 24
0.5
 15
0.5
 25
0.5
 16
0.0
 26
0.0
 36
1.0
 17
0.0
 27
0.0
 37
0.0
 40
64.62510646972805
 41
1.01258240934067
 42
50.0
 43
0.0
 44
0.0
 50
0.0
 51
0.0
 71
     0
 72
  1000
 73
     1
 74
     3
 75
     0
 76
     0
 77
     0
 78
     0
281
     0
 65
     1
110
0.0
120
0.0
130
0.0
111
1.0
121
0.0
131
0.0
112
0.0
122
1.0
132
0.0
 79
     0
146
0.0
348
2F
 60
     3
 61
     5
292
     1
282
     1
141
0.0
142
0.0
 63
   250
361
6D
  0
ENDTAB
  0
TABLE
  2
LTYPE
  5
5
330
0
100
AcDbSymbolTable
 70
     1
  0
LTYPE
  5
14
330
5
100
AcDbSymbolTableRecord
100
AcDbLinetypeTableRecord
  2
ByBlock
 70
     0
  3

 72
    65
 73
     0
 40
0.0
  0
LTYPE
  5
15
330
5
100
AcDbSymbolTableRecord
100
AcDbLinetypeTableRecord
  2
ByLayer
 70
     0
  3

 72
    65
 73
     0
 40
0.0
  0
LTYPE
  5
16
330
5
100
AcDbSymbolTableRecord
100
AcDbLinetypeTableRecord
  2
Continuous
 70
     0
  3
Solid line
 72
    65
 73
     0
 40
0.0
  0
ENDTAB
  0
TABLE
  2
LAYER
  5
2
330
0
100
AcDbSymbolTable
 70
     4
  0
LAYER
  5
10
330
2
100
AcDbSymbolTableRecord
100
AcDbLayerTableRecord
  2
0
 70
     0
 62
     7
  6
Continuous
370
    -3
390
F
347
46
348
0
  0
LAYER
  5
6F
330
2
100
AcDbSymbolTableRecord
100
AcDbLayerTableRecord
  2
BuildingWallSurface
 70
     0
 62
    10
  6
Continuous
370
    -3
390
F
347
46
348
0
1001
AcAecLayerStandard
1000

1000

  0
LAYER
  5
129
330
2
100
AcDbSymbolTableRecord
100
AcDbLayerTableRecord
  2
BuildingGroundSurface
 70
     0
 62
    10
  6
Continuous
370
    -3
390
F
347
46
348
0
1001
AcAecLayerStandard
1000

1000

  0
LAYER
  5
184
330
2
100
AcDbSymbolTableRecord
100
AcDbLayerTableRecord
  2
BuildingRoofSurface
 70
     0
 62
    10
  6
Continuous
370
    -3
390
F
347
46
348
0
1001
AcAecLayerStandard
1000

1000

  0
ENDTAB
  0
TABLE
  2
STYLE
  5
3
330
0
100
AcDbSymbolTable
 70
     1
  0
STYLE
  5
11
330
3
100
AcDbSymbolTableRecord
100
AcDbTextStyleTableRecord
  2
Standard
 70
     0
 40
0.0
 41
1.0
 50
0.0
 71
     0
 42
0.2
  3
txt
  4

  0
ENDTAB
  0
TABLE
  2
VIEW
  5
6
330
0
100
AcDbSymbolTable
 70
     0
  0
ENDTAB
  0
TABLE
  2
UCS
  5
7
330
0
100
AcDbSymbolTable
 70
     0
  0
ENDTAB
  0
TABLE
  2
APPID
  5
9
330
0
100
AcDbSymbolTable
 70
     2
  0
APPID
  5
12
330
9
100
AcDbSymbolTableRecord
100
AcDbRegAppTableRecord
  2
ACAD
 70
     0
  0
APPID
  5
70
330
9
100
AcDbSymbolTableRecord
100
AcDbRegAppTableRecord
  2
AcAecLayerStandard
 70
     0
  0
ENDTAB
  0
TABLE
  2
DIMSTYLE
  5
A
330
0
100
AcDbSymbolTable
 70
     1
100
AcDbDimStyleTable
  0
DIMSTYLE
105
27
330
A
100
AcDbSymbolTableRecord
100
AcDbDimStyleTableRecord
  2
Standard
 70
     0
178
     0
340
11
  0
ENDTAB
  0
TABLE
  2
BLOCK_RECORD
  5
1
330
0
100
AcDbSymbolTable
 70
     1
  0
BLOCK_RECORD
  5
1F
330
1
100
AcDbSymbolTableRecord
100
AcDbBlockTableRecord
  2
*Model_Space
340
22
 70
     0
280
     1
281
     0
  0
BLOCK_RECORD
  5
1B
330
1
100
AcDbSymbolTableRecord
100
AcDbBlockTableRecord
  2
*Paper_Space
340
1E
 70
     0
280
     1
281
     0
  0
BLOCK_RECORD
  5
23
330
1
100
AcDbSymbolTableRecord
100
AcDbBlockTableRecord
  2
*Paper_Space0
340
26
 70
     0
280
     1
281
     0
  0
ENDTAB
  0
ENDSEC
  0
SECTION
  2
BLOCKS
  0
BLOCK
  5
20
330
1F
100
AcDbEntity
  8
0
100
AcDbBlockBegin
  2
*Model_Space
 70
     0
 10
0.0
 20
0.0
 30
0.0
  3
*Model_Space
  1

  0
ENDBLK
  5
21
330
1F
100
AcDbEntity
  8
0
100
AcDbBlockEnd
  0
BLOCK
  5
1C
330
1B
100
AcDbEntity
 67
     1
  8
0
100
AcDbBlockBegin
  2
*Paper_Space
 70
     0
 10
0.0
 20
0.0
 30
0.0
  3
*Paper_Space
  1

  0
ENDBLK
  5
1D
330
1B
100
AcDbEntity
 67
     1
  8
0
100
AcDbBlockEnd
  0
BLOCK
  5
24
330
23
100
AcDbEntity
  8
0
100
AcDbBlockBegin
  2
*Paper_Space0
 70
     0
 10
0.0
 20
0.0
 30
0.0
  3
*Paper_Space0
  1

  0
ENDBLK
  5
25
330
23
100
AcDbEntity
  8
0
100
AcDbBlockEnd
  0
ENDSEC
  0
SECTION
  2
ENTITIES
  0
POLYLINE
  5
71
330
1F
100
AcDbEntity
  8
BuildingWallSurface
100
AcDb3dPolyline
 66
     1
 10
0.0
 20
0.0
 30
0.0
 70
     9
1001
ACAD
1000
TILE=export
1000
_geom_type=vector
1000
Objectclass=BuildingWallSurface
1000
gmlid=BLDG_00030009003f5db9
1000
fme_feature_type=Building
1000
_pathname=/fme_temp/engine/fmeengines/localhost_Engine1/1660665
1000
_coordsys=EPSG:25833
1000
_tilename=3920_5818
1000
_APP_THEME=export_BuildingWallSurface
1000
_part_number=0
1000
fme_basename=berlin_dlportal
  0
VERTEX
  5
72
330
71
100
AcDbEntity
  8
BuildingWallSurface
100
AcDbVertex
100
AcDb3dPolylineVertex
 10
392431.617297419
 20
5818703.11418931
 30
34.6199989318848
 70
    32
  0
VERTEX
  5
73
330
71
100
AcDbEntity
  8
BuildingWallSurface
100
AcDbVertex
100
AcDb3dPolylineVertex
 10
392431.617420134
 20
5818703.11437063
 30
40.3589127299967
 70
    32
  0
VERTEX
  5
74
330
71
100
AcDbEntity
  8
BuildingWallSurface
100
AcDbVertex
100
AcDb3dPolylineVertex
 10
392435.160124573
 20
5818701.30259476
 30
40.9446802768662
 70
    32
  0
VERTEX
  5
75
330
71
100
AcDbEntity
  8
BuildingWallSurface
100
AcDbVertex
100
AcDb3dPolylineVertex
 10
392435.159989332
 20
5818701.30239493
 30
34.6199989318848
 70
    32
  0
SEQEND
  5
76
330
71
100
AcDbEntity
  8
BuildingWallSurface
  0
POLYLINE
  5
77
330
1F
100
AcDbEntity
  8
BuildingWallSurface
100
AcDb3dPolyline
 66
     1
 10
0.0
 20
0.0
 30
0.0
 70
     9
1001
ACAD
1000
TILE=export
1000
_geom_type=vector
1000
Objectclass=BuildingWallSurface
1000
gmlid=BLDG_00030009003f5db9
1000
fme_feature_type=Building
1000
_pathname=/fme_temp/engine/fmeengines/localhost_Engine1/1660665
1000
_coordsys=EPSG:25833
1000
_tilename=3920_5818
1000
_APP_THEME=export_BuildingWallSurface
1000
_part_number=1
1000
fme_basename=berlin_dlportal
  0
VERTEX
  5
78
330
77
100
AcDbEntity
  8
BuildingWallSurface
100
AcDbVertex
100
AcDb3dPolylineVertex
 10
392428.960753609
 20
5818697.91899514
 30
34.6199989318848
 70
    32
  0
VERTEX
  5
79
330
77
100
AcDbEntity
  8
BuildingWallSurface
100
AcDbVertex
100
AcDb3dPolylineVertex
 10
392428.960876323
 20
5818697.91917646
 30
40.3589127299967
 70
    32
  0
VERTEX
  5
7A
330
77
100
AcDbEntity
  8
BuildingWallSurface
100
AcDbVertex
100
AcDb3dPolylineVertex
 10
392431.617420134
 20
5818703.11437063
 30
40.3589127299967
 70
    32
  0
VERTEX
  5
7B
330
77
100
AcDbEntity
  8
BuildingWallSurface
100
AcDbVertex
100
AcDb3dPolylineVertex
 10
392431.617297419
 20
5818703.11418931
 30
34.6199989318848
 70
    32
  0
SEQEND
  5
7C
330
77
100
AcDbEntity
  8
BuildingWallSurface
  0
POLYLINE
  5
7D
330
1F
100
AcDbEntity
  8
BuildingWallSurface
100
AcDb3dPolyline
 66
     1
 10
0.0
 20
0.0
 30
0.0
 70
     9
1001
ACAD
1000
TILE=export
1000
_geom_type=vector
1000
Objectclass=BuildingWallSurface
1000
gmlid=BLDG_00030009003f5db9
1000
fme_feature_type=Building
1000
_pathname=/fme_temp/engine/fmeengines/localhost_Engine1/1660665
1000
_coordsys=EPSG:25833
1000
_tilename=3920_5818
1000
_APP_THEME=export_BuildingWallSurface
1000
_part_number=2
1000
fme_basename=berlin_dlportal
  0
VERTEX
  5
7E
330
7D
100
AcDbEntity
  8
BuildingWallSurface
100
AcDbVertex
100
AcDb3dPolylineVertex
 10
392432.498579392
 20
5818696.0976844
 30
34.6199989318848
 70
    32
  0
VERTEX
  5
7F
330
7D
100
AcDbEntity
  8
BuildingWallSurface
100
AcDbVertex
100
AcDb3dPolylineVertex
 10
392432.498714633
 20
5818696.09788423
 30
40.9446802768662
 70
    32
  0
VERTEX
  5
80
330
7D
100
AcDbEntity
  8
BuildingWallSurface
100
AcDbVertex
100
AcDb3dPolylineVertex
 10
392428.960876323
 20
5818697.91917646
 30
40.3589127299967
 70
    32
  0
VERTEX
  5
81
330
7D
100
AcDbEntity
  8
BuildingWallSurface
100
AcDbVertex
100
AcDb3dPolylineVertex
 10
392428.960753609
 20
5818697.91899514
 30
34.6199989318848
 70
    32
  0
SEQEND
  5
82
330
7D
100
AcDbEntity
  8
BuildingWallSurface
  0
POLYLINE
  5
83
330
1F
100
AcDbEntity
  8
BuildingWallSurface
100
AcDb3dPolyline
 66
     1
 10
0.0
 20
0.0
 30
0.0
 70
     9
1001
ACAD
1000
TILE=export
1000
_geom_type=vector
1000
Objectclass=BuildingWallSurface
1000
gmlid=BLDG_00030009003f5db9
1000
fme_feature_type=Building
1000
_pathname=/fme_temp/engine/fmeengines/localhost_Engine1/1660665
1000
_coordsys=EPSG:25833
1000
_tilename=3920_5818
1000
_APP_THEME=export_BuildingWallSurface
1000
_part_number=3
1000
fme_basename=berlin_dlportal
  0
VERTEX
  5
84
330
83
100
AcDbEntity
  8
BuildingWallSurface
100
AcDbVertex
100
AcDb3dPolylineVertex
 10
392473.126030806
 20
5818668.6667627
 30
34.6199989318848
 70
    32
  0
VERTEX
  5
85
330
83
100
AcDbEntity
  8
BuildingWallSurface
100
AcDbVertex
100
AcDb3dPolylineVertex
 10
392473.126153525
 20
5818668.66694401
 30
40.3589127299967
 70
    32
  0
VERTEX
  5
86
330
83
100
AcDbEntity
  8
BuildingWallSurface
100
AcDbVertex
100
AcDb3dPolylineVertex
 10
392471.492177418
 20
5818665.47225029
 30
40.3589127299967
 70
    32
  0
VERTEX
  5
87
330
83
100
AcDbEntity
  8
BuildingWallSurface
100
AcDbVertex
100
AcDb3dPolylineVertex
 10
392471.492054698
 20
5818665.47206898
 30
34.6199989318848
 70
    32
  0
SEQEND
  5
88
330
83
100
AcDbEntity
  8
BuildingWallSurface
  0
POLYLINE
  5
89
330
1F
100
AcDbEntity
  8
BuildingWallSurface
100
AcDb3dPolyline
 66
     1
 10
0.0
 20
0.0
 30
0.0
 70
     9
1001
ACAD
1000
TILE=export
1000
_geom_type=vector
1000
Objectclass=BuildingWallSurface
1000
gmlid=BLDG_00030009003f5db9
1000
fme_feature_type=Building
1000
_pathname=/fme_temp/engine/fmeengines/localhost_Engine1/1660665
1000
_coordsys=EPSG:25833
1000
_tilename=3920_5818
1000
_APP_THEME=export_BuildingWallSurface
1000
_part_number=4
1000
fme_basename=berlin_dlportal
  0
VERTEX
  5
8A
330
89
100
AcDbEntity
  8
BuildingWallSurface
100
AcDbVertex
100
AcDb3dPolylineVertex
 10
392429.8002538
 20
5818690.82078067
 30
34.6199989318848
 70
    32
  0
VERTEX
  5
8B
330
89
100
AcDbEntity
  8
BuildingWallSurface
100
AcDbVertex
100
AcDb3dPolylineVertex
 10
392429.800376514
 20
5818690.82096199
 30
40.3589127299967
 70
    32
  0
VERTEX
  5
8C
330
89
100
AcDbEntity
  8
BuildingWallSurface
100
AcDbVertex
100
AcDb3dPolylineVertex
 10
392473.126153525
 20
5818668.66694401
 30
40.3589127299967
 70
    32
  0
VERTEX
  5
8D
330
89
100
AcDbEntity
  8
BuildingWallSurface
100
AcDbVertex
100
AcDb3dPolylineVertex
 10
392473.126030806
 20
5818668.6667627
 30
34.6199989318848
 70
    32
  0
SEQEND
  5
8E
330
89
100
AcDbEntity
  8
BuildingWallSurface
  0
POLYLINE
  5
8F
330
1F
100
AcDbEntity
  8
BuildingWallSurface
100
AcDb3dPolyline
 66
     1
 10
0.0
 20
0.0
 30
0.0
 70
     9
1001
ACAD
1000
TILE=export
1000
_geom_type=vector
1000
Objectclass=BuildingWallSurface
1000
gmlid=BLDG_00030009003f5db9
1000
fme_feature_type=Building
1000
_pathname=/fme_temp/engine/fmeengines/localhost_Engine1/1660665
1000
_coordsys=EPSG:25833
1000
_tilename=3920_5818
1000
_APP_THEME=export_BuildingWallSurface
1000
_part_number=5
1000
fme_basename=berlin_dlportal
  0
VERTEX
  5
90
330
8F
100
AcDbEntity
  8
BuildingWallSurface
100
AcDbVertex
100
AcDb3dPolylineVertex
 10
392428.166579628
 20
5818687.62593215
 30
34.6199989318848
 70
    32
  0
VERTEX
  5
91
330
8F
100
AcDbEntity
  8
BuildingWallSurface
100
AcDbVertex
100
AcDb3dPolylineVertex
 10
392428.166702342
 20
5818687.62611347
 30
40.3589127299967
 70
    32
  0
VERTEX
  5
92
330
8F
100
AcDbEntity
  8
BuildingWallSurface
100
AcDbVertex
100
AcDb3dPolylineVertex
 10
392429.800376514
 20
5818690.82096199
 30
40.3589127299967
 70
    32
  0
VERTEX
  5
93
330
8F
100
AcDbEntity
  8
BuildingWallSurface
100
AcDbVertex
100
AcDb3dPolylineVertex
 10
392429.8002538
 20
5818690.82078067
 30
34.6199989318848
 70
    32
  0
SEQEND
  5
94
330
8F
100
AcDbEntity
  8
BuildingWallSurface
  0
POLYLINE
  5
95
330
1F
100
AcDbEntity
  8
BuildingWallSurface
100
AcDb3dPolyline
 66
     1
 10
0.0
 20
0.0
 30
0.0
 70
     9
1001
ACAD
1000
TILE=export
1000
_geom_type=vector
1000
Objectclass=BuildingWallSurface
1000
gmlid=BLDG_00030009003f5db9
1000
fme_feature_type=Building
1000
_pathname=/fme_temp/engine/fmeengines/localhost_Engine1/1660665
1000
_coordsys=EPSG:25833
1000
_tilename=3920_5818
1000
_APP_THEME=export_BuildingWallSurface
1000
_part_number=6
1000
fme_basename=berlin_dlportal
  0
VERTEX
  5
96
330
95
100
AcDbEntity
  8
BuildingWallSurface
100
AcDbVertex
100
AcDb3dPolylineVertex
 10
392476.196587582
 20
5818667.09667739
 30
34.6199989318848
 70
    32
  0
VERTEX
  5
97
330
95
100
AcDbEntity
  8
BuildingWallSurface
100
AcDbVertex
100
AcDb3dPolylineVertex
 10
392476.196710302
 20
5818667.0968587
 30
40.3589127299967
 70
    32
  0
VERTEX
  5
98
330
95
100
AcDbEntity
  8
BuildingWallSurface
100
AcDbVertex
100
AcDb3dPolylineVertex
 10
392474.562992656
 20
5818663.90203285
 30
40.3589127299967
 70
    32
  0
VERTEX
  5
99
330
95
100
AcDbEntity
  8
BuildingWallSurface
100
AcDbVertex
100
AcDb3dPolylineVertex
 10
392474.562869936
 20
5818663.90185154
 30
34.6199989318848
 70
    32
  0
SEQEND
  5
9A
330
95
100
AcDbEntity
  8
BuildingWallSurface
  0
POLYLINE
  5
9B
330
1F
100
AcDbEntity
  8
BuildingWallSurface
100
AcDb3dPolyline
 66
     1
 10
0.0
 20
0.0
 30
0.0
 70
     9
1001
ACAD
1000
TILE=export
1000
_geom_type=vector
1000
Objectclass=BuildingWallSurface
1000
gmlid=BLDG_00030009003f5db9
1000
fme_feature_type=Building
1000
_pathname=/fme_temp/engine/fmeengines/localhost_Engine1/1660665
1000
_coordsys=EPSG:25833
1000
_tilename=3920_5818
1000
_APP_THEME=export_BuildingWallSurface
1000
_part_number=7
1000
fme_basename=berlin_dlportal
  0
VERTEX
  5
9C
330
9B
100
AcDbEntity
  8
BuildingWallSurface
100
AcDbVertex
100
AcDb3dPolylineVertex
 10
392471.492054698
 20
5818665.47206898
 30
34.6199989318848
 70
    32
  0
VERTEX
  5
9D
330
9B
100
AcDbEntity
  8
BuildingWallSurface
100
AcDbVertex
100
AcDb3dPolylineVertex
 10
392471.492177418
 20
5818665.47225029
 30
40.3589127299967
 70
    32
  0
VERTEX
  5
9E
330
9B
100
AcDbEntity
  8
BuildingWallSurface
100
AcDbVertex
100
AcDb3dPolylineVertex
 10
392473.126153525
 20
5818668.66694401
 30
40.3589127299967
 70
    32
  0
VERTEX
  5
9F
330
9B
100
AcDbEntity
  8
BuildingWallSurface
100
AcDbVertex
100
AcDb3dPolylineVertex
 10
392473.126030806
 20
5818668.6667627
 30
34.6199989318848
 70
    32
  0
SEQEND
  5
A0
330
9B
100
AcDbEntity
  8
BuildingWallSurface
  0
POLYLINE
  5
A1
330
1F
100
AcDbEntity
  8
BuildingWallSurface
100
AcDb3dPolyline
 66
     1
 10
0.0
 20
0.0
 30
0.0
 70
     9
1001
ACAD
1000
TILE=export
1000
_geom_type=vector
1000
Objectclass=BuildingWallSurface
1000
gmlid=BLDG_00030009003f5db9
1000
fme_feature_type=Building
1000
_pathname=/fme_temp/engine/fmeengines/localhost_Engine1/1660665
1000
_coordsys=EPSG:25833
1000
_tilename=3920_5818
1000
_APP_THEME=export_BuildingWallSurface
1000
_part_number=8
1000
fme_basename=berlin_dlportal
  0
VERTEX
  5
A2
330
A1
100
AcDbEntity
  8
BuildingWallSurface
100
AcDbVertex
100
AcDb3dPolylineVertex
 10
392474.562869936
 20
5818663.90185154
 30
34.6199989318848
 70
    32
  0
VERTEX
  5
A3
330
A1
100
AcDbEntity
  8
BuildingWallSurface
100
AcDbVertex
100
AcDb3dPolylineVertex
 10
392474.562992656
 20
5818663.90203285
 30
40.3589127299967
 70
    32
  0
VERTEX
  5
A4
330
A1
100
AcDbEntity
  8
BuildingWallSurface
100
AcDbVertex
100
AcDb3dPolylineVertex
 10
392471.492177418
 20
5818665.47225029
 30
40.3589127299967
 70
    32
  0
VERTEX
  5
A5
330
A1
100
AcDbEntity
  8
BuildingWallSurface
100
AcDbVertex
100
AcDb3dPolylineVertex
 10
392471.492054698
 20
5818665.47206898
 30
34.6199989318848
 70
    32
  0
SEQEND
  5
A6
330
A1
100
AcDbEntity
  8
BuildingWallSurface
  0
POLYLINE
  5
A7
330
1F
100
AcDbEntity
  8
BuildingWallSurface
100
AcDb3dPolyline
 66
     1
 10
0.0
 20
0.0
 30
0.0
 70
     9
1001
ACAD
1000
TILE=export
1000
_geom_type=vector
1000
Objectclass=BuildingWallSurface
1000
gmlid=BLDG_00030009003f5db9
1000
fme_feature_type=Building
1000
_pathname=/fme_temp/engine/fmeengines/localhost_Engine1/1660665
1000
_coordsys=EPSG:25833
1000
_tilename=3920_5818
1000
_APP_THEME=export_BuildingWallSurface
1000
_part_number=9
1000
fme_basename=berlin_dlportal
  0
VERTEX
  5
A8
330
A7
100
AcDbEntity
  8
BuildingWallSurface
100
AcDbVertex
100
AcDb3dPolylineVertex
 10
392446.920484438
 20
5818688.67339394
 30
40.7494244279097
 70
    32
  0
VERTEX
  5
A9
330
A7
100
AcDbEntity
  8
BuildingWallSurface
100
AcDbVertex
100
AcDb3dPolylineVertex
 10
392454.131375445
 20
5818684.96115824
 30
40.9446802768662
 70
    32
  0
VERTEX
  5
AA
330
A7
100
AcDbEntity
  8
BuildingWallSurface
100
AcDbVertex
100
AcDb3dPolylineVertex
 10
392475.764022778
 20
5818673.82441486
 30
40.3589127299967
 70
    32
  0
SEQEND
  5
AB
330
A7
100
AcDbEntity
  8
BuildingWallSurface
  0
POLYLINE
  5
AC
330
1F
100
AcDbEntity
  8
BuildingWallSurface
100
AcDb3dPolyline
 66
     1
 10
0.0
 20
0.0
 30
0.0
 70
     9
1001
ACAD
1000
TILE=export
1000
_geom_type=vector
1000
Objectclass=BuildingWallSurface
1000
gmlid=BLDG_00030009003f5db9
1000
fme_feature_type=Building
1000
_pathname=/fme_temp/engine/fmeengines/localhost_Engine1/1660665
1000
_coordsys=EPSG:25833
1000
_tilename=3920_5818
1000
_APP_THEME=export_BuildingWallSurface
1000
_part_number=10
1000
fme_basename=berlin_dlportal
  0
VERTEX
  5
AD
330
AC
100
AcDbEntity
  8
BuildingWallSurface
100
AcDbVertex
100
AcDb3dPolylineVertex
 10
392429.8002538
 20
5818690.82078067
 30
34.6199989318848
 70
    32
  0
VERTEX
  5
AE
330
AC
100
AcDbEntity
  8
BuildingWallSurface
100
AcDbVertex
100
AcDb3dPolylineVertex
 10
392429.800376514
 20
5818690.82096199
 30
40.3589127299967
 70
    32
  0
VERTEX
  5
AF
330
AC
100
AcDbEntity
  8
BuildingWallSurface
100
AcDbVertex
100
AcDb3dPolylineVertex
 10
392432.498702107
 20
5818696.09786572
 30
40.3589127299967
 70
    32
  0
VERTEX
  5
B0
330
AC
100
AcDbEntity
  8
BuildingWallSurface
100
AcDbVertex
100
AcDb3dPolylineVertex
 10
392432.498579392
 20
5818696.0976844
 30
34.6199989318848
 70
    32
  0
SEQEND
  5
B1
330
AC
100
AcDbEntity
  8
BuildingWallSurface
  0
POLYLINE
  5
B2
330
1F
100
AcDbEntity
  8
BuildingWallSurface
100
AcDb3dPolyline
 66
     1
 10
0.0
 20
0.0
 30
0.0
 70
     9
1001
ACAD
1000
TILE=export
1000
_geom_type=vector
1000
Objectclass=BuildingWallSurface
1000
gmlid=BLDG_00030009003f5db9
1000
fme_feature_type=Building
1000
_pathname=/fme_temp/engine/fmeengines/localhost_Engine1/1660665
1000
_coordsys=EPSG:25833
1000
_tilename=3920_5818
1000
_APP_THEME=export_BuildingWallSurface
1000
_part_number=11
1000
fme_basename=berlin_dlportal
  0
VERTEX
  5
B3
330
B2
100
AcDbEntity
  8
BuildingWallSurface
100
AcDbVertex
100
AcDb3dPolylineVertex
 10
392473.126153525
 20
5818668.66694401
 30
40.3589127299967
 70
    32
  0
VERTEX
  5
B4
330
B2
100
AcDbEntity
  8
BuildingWallSurface
100
AcDbVertex
100
AcDb3dPolylineVertex
 10
392451.463278025
 20
5818679.74397096
 30
40.9446802768662
 70
    32
  0
VERTEX
  5
B5
330
B2
100
AcDbEntity
  8
BuildingWallSurface
100
AcDbVertex
100
AcDb3dPolylineVertex
 10
392429.800376514
 20
5818690.82096199
 30
40.3589127299967
 70
    32
  0
SEQEND
  5
B6
330
B2
100
AcDbEntity
  8
BuildingWallSurface
  0
POLYLINE
  5
B7
330
1F
100
AcDbEntity
  8
BuildingWallSurface
100
AcDb3dPolyline
 66
     1
 10
0.0
 20
0.0
 30
0.0
 70
     9
1001
ACAD
1000
TILE=export
1000
_geom_type=vector
1000
Objectclass=BuildingWallSurface
1000
gmlid=BLDG_00030009003f5db9
1000
fme_feature_type=Building
1000
_pathname=/fme_temp/engine/fmeengines/localhost_Engine1/1660665
1000
_coordsys=EPSG:25833
1000
_tilename=3920_5818
1000
_APP_THEME=export_BuildingWallSurface
1000
_part_number=12
1000
fme_basename=berlin_dlportal
  0
VERTEX
  5
B8
330
B7
100
AcDbEntity
  8
BuildingWallSurface
100
AcDbVertex
100
AcDb3dPolylineVertex
 10
392446.920484438
 20
5818688.67339394
 30
40.7494244279097
 70
    32
  0
VERTEX
  5
B9
330
B7
100
AcDbEntity
  8
BuildingWallSurface
100
AcDbVertex
100
AcDb3dPolylineVertex
 10
392432.498714633
 20
5818696.09788423
 30
40.9446802768662
 70
    32
  0
VERTEX
  5
BA
330
B7
100
AcDbEntity
  8
BuildingWallSurface
100
AcDbVertex
100
AcDb3dPolylineVertex
 10
392432.498702107
 20
5818696.09786572
 30
40.3589127299967
 70
    32
  0
SEQEND
  5
BB
330
B7
100
AcDbEntity
  8
BuildingWallSurface
  0
POLYLINE
  5
BC
330
1F
100
AcDbEntity
  8
BuildingWallSurface
100
AcDb3dPolyline
 66
     1
 10
0.0
 20
0.0
 30
0.0
 70
     9
1001
ACAD
1000
TILE=export
1000
_geom_type=vector
1000
Objectclass=BuildingWallSurface
1000
gmlid=BLDG_00030009003f5db9
1000
fme_feature_type=Building
1000
_pathname=/fme_temp/engine/fmeengines/localhost_Engine1/1660665
1000
_coordsys=EPSG:25833
1000
_tilename=3920_5818
1000
_APP_THEME=export_BuildingWallSurface
1000
_part_number=13
1000
fme_basename=berlin_dlportal
  0
VERTEX
  5
BD
330
BC
100
AcDbEntity
  8
BuildingWallSurface
100
AcDbVertex
100
AcDb3dPolylineVertex
 10
392443.512434189
 20
5818717.63655614
 30
40.3589127299967
 70
    32
  0
VERTEX
  5
BE
330
BC
100
AcDbEntity
  8
BuildingWallSurface
100
AcDbVertex
100
AcDb3dPolylineVertex
 10
392443.512446714
 20
5818717.63657465
 30
40.9446802768662
 70
    32
  0
VERTEX
  5
BF
330
BC
100
AcDbEntity
  8
BuildingWallSurface
100
AcDbVertex
100
AcDb3dPolylineVertex
 10
392457.954735415
 20
5818710.2505277
 30
40.7494244279097
 70
    32
  0
SEQEND
  5
C0
330
BC
100
AcDbEntity
  8
BuildingWallSurface
  0
POLYLINE
  5
C1
330
1F
100
AcDbEntity
  8
BuildingWallSurface
100
AcDb3dPolyline
 66
     1
 10
0.0
 20
0.0
 30
0.0
 70
     9
1001
ACAD
1000
TILE=export
1000
_geom_type=vector
1000
Objectclass=BuildingWallSurface
1000
gmlid=BLDG_00030009003f5db9
1000
fme_feature_type=Building
1000
_pathname=/fme_temp/engine/fmeengines/localhost_Engine1/1660665
1000
_coordsys=EPSG:25833
1000
_tilename=3920_5818
1000
_APP_THEME=export_BuildingWallSurface
1000
_part_number=14
1000
fme_basename=berlin_dlportal
  0
VERTEX
  5
C2
330
C1
100
AcDbEntity
  8
BuildingWallSurface
100
AcDbVertex
100
AcDb3dPolylineVertex
 10
392435.159989332
 20
5818701.30239493
 30
34.6199989318848
 70
    32
  0
VERTEX
  5
C3
330
C1
100
AcDbEntity
  8
BuildingWallSurface
100
AcDbVertex
100
AcDb3dPolylineVertex
 10
392435.160124573
 20
5818701.30259476
 30
40.9446802768662
 70
    32
  0
VERTEX
  5
C4
330
C1
100
AcDbEntity
  8
BuildingWallSurface
100
AcDbVertex
100
AcDb3dPolylineVertex
 10
392443.512446714
 20
5818717.63657465
 30
40.9446802768662
 70
    32
  0
VERTEX
  5
C5
330
C1
100
AcDbEntity
  8
BuildingWallSurface
100
AcDbVertex
100
AcDb3dPolylineVertex
 10
392443.512311472
 20
5818717.63637482
 30
34.6199989318848
 70
    32
  0
SEQEND
  5
C6
330
C1
100
AcDbEntity
  8
BuildingWallSurface
  0
POLYLINE
  5
C7
330
1F
100
AcDbEntity
  8
BuildingWallSurface
100
AcDb3dPolyline
 66
     1
 10
0.0
 20
0.0
 30
0.0
 70
     9
1001
ACAD
1000
TILE=export
1000
_geom_type=vector
1000
Objectclass=BuildingWallSurface
1000
gmlid=BLDG_00030009003f5db9
1000
fme_feature_type=Building
1000
_pathname=/fme_temp/engine/fmeengines/localhost_Engine1/1660665
1000
_coordsys=EPSG:25833
1000
_tilename=3920_5818
1000
_APP_THEME=export_BuildingWallSurface
1000
_part_number=15
1000
fme_basename=berlin_dlportal
  0
VERTEX
  5
C8
330
C7
100
AcDbEntity
  8
BuildingWallSurface
100
AcDbVertex
100
AcDb3dPolylineVertex
 10
392478.829720929
 20
5818672.24591618
 30
34.6199989318848
 70
    32
  0
VERTEX
  5
C9
330
C7
100
AcDbEntity
  8
BuildingWallSurface
100
AcDbVertex
100
AcDb3dPolylineVertex
 10
392478.829843649
 20
5818672.2460975
 30
40.3589127299967
 70
    32
  0
VERTEX
  5
CA
330
C7
100
AcDbEntity
  8
BuildingWallSurface
100
AcDbVertex
100
AcDb3dPolylineVertex
 10
392476.196710302
 20
5818667.0968587
 30
40.3589127299967
 70
    32
  0
VERTEX
  5
CB
330
C7
100
AcDbEntity
  8
BuildingWallSurface
100
AcDbVertex
100
AcDb3dPolylineVertex
 10
392476.196587582
 20
5818667.09667739
 30
34.6199989318848
 70
    32
  0
SEQEND
  5
CC
330
C7
100
AcDbEntity
  8
BuildingWallSurface
  0
POLYLINE
  5
CD
330
1F
100
AcDbEntity
  8
BuildingWallSurface
100
AcDb3dPolyline
 66
     1
 10
0.0
 20
0.0
 30
0.0
 70
     9
1001
ACAD
1000
TILE=export
1000
_geom_type=vector
1000
Objectclass=BuildingWallSurface
1000
gmlid=BLDG_00030009003f5db9
1000
fme_feature_type=Building
1000
_pathname=/fme_temp/engine/fmeengines/localhost_Engine1/1660665
1000
_coordsys=EPSG:25833
1000
_tilename=3920_5818
1000
_APP_THEME=export_BuildingWallSurface
1000
_part_number=16
1000
fme_basename=berlin_dlportal
  0
VERTEX
  5
CE
330
CD
100
AcDbEntity
  8
BuildingWallSurface
100
AcDbVertex
100
AcDb3dPolylineVertex
 10
392473.126030806
 20
5818668.6667627
 30
34.6199989318848
 70
    32
  0
VERTEX
  5
CF
330
CD
100
AcDbEntity
  8
BuildingWallSurface
100
AcDbVertex
100
AcDb3dPolylineVertex
 10
392473.126153525
 20
5818668.66694401
 30
40.3589127299967
 70
    32
  0
VERTEX
  5
D0
330
CD
100
AcDbEntity
  8
BuildingWallSurface
100
AcDbVertex
100
AcDb3dPolylineVertex
 10
392475.764022778
 20
5818673.82441486
 30
40.3589127299967
 70
    32
  0
VERTEX
  5
D1
330
CD
100
AcDbEntity
  8
BuildingWallSurface
100
AcDbVertex
100
AcDb3dPolylineVertex
 10
392475.763900058
 20
5818673.82423354
 30
34.6199989318848
 70
    32
  0
SEQEND
  5
D2
330
CD
100
AcDbEntity
  8
BuildingWallSurface
  0
POLYLINE
  5
D3
330
1F
100
AcDbEntity
  8
BuildingWallSurface
100
AcDb3dPolyline
 66
     1
 10
0.0
 20
0.0
 30
0.0
 70
     9
1001
ACAD
1000
TILE=export
1000
_geom_type=vector
1000
Objectclass=BuildingWallSurface
1000
gmlid=BLDG_00030009003f5db9
1000
fme_feature_type=Building
1000
_pathname=/fme_temp/engine/fmeengines/localhost_Engine1/1660665
1000
_coordsys=EPSG:25833
1000
_tilename=3920_5818
1000
_APP_THEME=export_BuildingWallSurface
1000
_part_number=17
1000
fme_basename=berlin_dlportal
  0
VERTEX
  5
D4
330
D3
100
AcDbEntity
  8
BuildingWallSurface
100
AcDbVertex
100
AcDb3dPolylineVertex
 10
392482.521870549
 20
5818670.34515811
 30
34.6199989318848
 70
    32
  0
VERTEX
  5
D5
330
D3
100
AcDbEntity
  8
BuildingWallSurface
100
AcDbVertex
100
AcDb3dPolylineVertex
 10
392482.52199327
 20
5818670.34533943
 30
40.3589127299967
 70
    32
  0
VERTEX
  5
D6
330
D3
100
AcDbEntity
  8
BuildingWallSurface
100
AcDbVertex
100
AcDb3dPolylineVertex
 10
392479.894060893
 20
5818665.20627135
 30
40.3589127299967
 70
    32
  0
VERTEX
  5
D7
330
D3
100
AcDbEntity
  8
BuildingWallSurface
100
AcDbVertex
100
AcDb3dPolylineVertex
 10
392479.893938172
 20
5818665.20609004
 30
34.6199989318848
 70
    32
  0
SEQEND
  5
D8
330
D3
100
AcDbEntity
  8
BuildingWallSurface
  0
POLYLINE
  5
D9
330
1F
100
AcDbEntity
  8
BuildingWallSurface
100
AcDb3dPolyline
 66
     1
 10
0.0
 20
0.0
 30
0.0
 70
     9
1001
ACAD
1000
TILE=export
1000
_geom_type=vector
1000
Objectclass=BuildingWallSurface
1000
gmlid=BLDG_00030009003f5db9
1000
fme_feature_type=Building
1000
_pathname=/fme_temp/engine/fmeengines/localhost_Engine1/1660665
1000
_coordsys=EPSG:25833
1000
_tilename=3920_5818
1000
_APP_THEME=export_BuildingWallSurface
1000
_part_number=18
1000
fme_basename=berlin_dlportal
  0
VERTEX
  5
DA
330
D9
100
AcDbEntity
  8
BuildingWallSurface
100
AcDbVertex
100
AcDb3dPolylineVertex
 10
392479.893938172
 20
5818665.20609004
 30
34.6199989318848
 70
    32
  0
VERTEX
  5
DB
330
D9
100
AcDbEntity
  8
BuildingWallSurface
100
AcDbVertex
100
AcDb3dPolylineVertex
 10
392479.894060893
 20
5818665.20627135
 30
40.3589127299967
 70
    32
  0
VERTEX
  5
DC
330
D9
100
AcDbEntity
  8
BuildingWallSurface
100
AcDbVertex
100
AcDb3dPolylineVertex
 10
392476.196710302
 20
5818667.0968587
 30
40.3589127299967
 70
    32
  0
VERTEX
  5
DD
330
D9
100
AcDbEntity
  8
BuildingWallSurface
100
AcDbVertex
100
AcDb3dPolylineVertex
 10
392476.196587582
 20
5818667.09667739
 30
34.6199989318848
 70
    32
  0
SEQEND
  5
DE
330
D9
100
AcDbEntity
  8
BuildingWallSurface
  0
POLYLINE
  5
DF
330
1F
100
AcDbEntity
  8
BuildingWallSurface
100
AcDb3dPolyline
 66
     1
 10
0.0
 20
0.0
 30
0.0
 70
     9
1001
ACAD
1000
TILE=export
1000
_geom_type=vector
1000
Objectclass=BuildingWallSurface
1000
gmlid=BLDG_00030009003f5db9
1000
fme_feature_type=Building
1000
_pathname=/fme_temp/engine/fmeengines/localhost_Engine1/1660665
1000
_coordsys=EPSG:25833
1000
_tilename=3920_5818
1000
_APP_THEME=export_BuildingWallSurface
1000
_part_number=19
1000
fme_basename=berlin_dlportal
  0
VERTEX
  5
E0
330
DF
100
AcDbEntity
  8
BuildingWallSurface
100
AcDbVertex
100
AcDb3dPolylineVertex
 10
392485.252158671
 20
5818675.68438839
 30
34.6199989318848
 70
    32
  0
VERTEX
  5
E1
330
DF
100
AcDbEntity
  8
BuildingWallSurface
100
AcDbVertex
100
AcDb3dPolylineVertex
 10
392485.252281392
 20
5818675.68456971
 30
40.3589127299967
 70
    32
  0
VERTEX
  5
E2
330
DF
100
AcDbEntity
  8
BuildingWallSurface
100
AcDbVertex
100
AcDb3dPolylineVertex
 10
392482.52199327
 20
5818670.34533943
 30
40.3589127299967
 70
    32
  0
VERTEX
  5
E3
330
DF
100
AcDbEntity
  8
BuildingWallSurface
100
AcDbVertex
100
AcDb3dPolylineVertex
 10
392482.521870549
 20
5818670.34515811
 30
34.6199989318848
 70
    32
  0
SEQEND
  5
E4
330
DF
100
AcDbEntity
  8
BuildingWallSurface
  0
POLYLINE
  5
E5
330
1F
100
AcDbEntity
  8
BuildingWallSurface
100
AcDb3dPolyline
 66
     1
 10
0.0
 20
0.0
 30
0.0
 70
     9
1001
ACAD
1000
TILE=export
1000
_geom_type=vector
1000
Objectclass=BuildingWallSurface
1000
gmlid=BLDG_00030009003f5db9
1000
fme_feature_type=Building
1000
_pathname=/fme_temp/engine/fmeengines/localhost_Engine1/1660665
1000
_coordsys=EPSG:25833
1000
_tilename=3920_5818
1000
_APP_THEME=export_BuildingWallSurface
1000
_part_number=20
1000
fme_basename=berlin_dlportal
  0
VERTEX
  5
E6
330
E5
100
AcDbEntity
  8
BuildingWallSurface
100
AcDbVertex
100
AcDb3dPolylineVertex
 10
392493.604702919
 20
5818692.01825226
 30
34.6199989318848
 70
    32
  0
VERTEX
  5
E7
330
E5
100
AcDbEntity
  8
BuildingWallSurface
100
AcDbVertex
100
AcDb3dPolylineVertex
 10
392493.604825641
 20
5818692.01843358
 30
40.3589127299967
 70
    32
  0
VERTEX
  5
E8
330
E5
100
AcDbEntity
  8
BuildingWallSurface
100
AcDbVertex
100
AcDb3dPolylineVertex
 10
392485.252281392
 20
5818675.68456971
 30
40.3589127299967
 70
    32
  0
VERTEX
  5
E9
330
E5
100
AcDbEntity
  8
BuildingWallSurface
100
AcDbVertex
100
AcDb3dPolylineVertex
 10
392485.252158671
 20
5818675.68438839
 30
34.6199989318848
 70
    32
  0
SEQEND
  5
EA
330
E5
100
AcDbEntity
  8
BuildingWallSurface
  0
POLYLINE
  5
EB
330
1F
100
AcDbEntity
  8
BuildingWallSurface
100
AcDb3dPolyline
 66
     1
 10
0.0
 20
0.0
 30
0.0
 70
     9
1001
ACAD
1000
TILE=export
1000
_geom_type=vector
1000
Objectclass=BuildingWallSurface
1000
gmlid=BLDG_00030009003f5db9
1000
fme_feature_type=Building
1000
_pathname=/fme_temp/engine/fmeengines/localhost_Engine1/1660665
1000
_coordsys=EPSG:25833
1000
_tilename=3920_5818
1000
_APP_THEME=export_BuildingWallSurface
1000
_part_number=21
1000
fme_basename=berlin_dlportal
  0
VERTEX
  5
EC
330
EB
100
AcDbEntity
  8
BuildingWallSurface
100
AcDbVertex
100
AcDb3dPolylineVertex
 10
392489.907474921
 20
5818693.90907903
 30
34.6199989318848
 70
    32
  0
VERTEX
  5
ED
330
EB
100
AcDbEntity
  8
BuildingWallSurface
100
AcDbVertex
100
AcDb3dPolylineVertex
 10
392489.907597642
 20
5818693.90926035
 30
40.3589127299967
 70
    32
  0
VERTEX
  5
EE
330
EB
100
AcDbEntity
  8
BuildingWallSurface
100
AcDbVertex
100
AcDb3dPolylineVertex
 10
392493.604825641
 20
5818692.01843358
 30
40.3589127299967
 70
    32
  0
VERTEX
  5
EF
330
EB
100
AcDbEntity
  8
BuildingWallSurface
100
AcDbVertex
100
AcDb3dPolylineVertex
 10
392493.604702919
 20
5818692.01825226
 30
34.6199989318848
 70
    32
  0
SEQEND
  5
F0
330
EB
100
AcDbEntity
  8
BuildingWallSurface
  0
POLYLINE
  5
F1
330
1F
100
AcDbEntity
  8
BuildingWallSurface
100
AcDb3dPolyline
 66
     1
 10
0.0
 20
0.0
 30
0.0
 70
     9
1001
ACAD
1000
TILE=export
1000
_geom_type=vector
1000
Objectclass=BuildingWallSurface
1000
gmlid=BLDG_00030009003f5db9
1000
fme_feature_type=Building
1000
_pathname=/fme_temp/engine/fmeengines/localhost_Engine1/1660665
1000
_coordsys=EPSG:25833
1000
_tilename=3920_5818
1000
_APP_THEME=export_BuildingWallSurface
1000
_part_number=22
1000
fme_basename=berlin_dlportal
  0
VERTEX
  5
F2
330
F1
100
AcDbEntity
  8
BuildingWallSurface
100
AcDbVertex
100
AcDb3dPolylineVertex
 10
392460.745077587
 20
5818715.70695585
 30
40.7494244279097
 70
    32
  0
VERTEX
  5
F3
330
F1
100
AcDbEntity
  8
BuildingWallSurface
100
AcDbVertex
100
AcDb3dPolylineVertex
 10
392467.966489139
 20
5818712.01424022
 30
40.9446802768662
 70
    32
  0
VERTEX
  5
F4
330
F1
100
AcDbEntity
  8
BuildingWallSurface
100
AcDbVertex
100
AcDb3dPolylineVertex
 10
392489.6306981
 20
5818700.93605707
 30
40.3589127299967
 70
    32
  0
SEQEND
  5
F5
330
F1
100
AcDbEntity
  8
BuildingWallSurface
  0
POLYLINE
  5
F6
330
1F
100
AcDbEntity
  8
BuildingWallSurface
100
AcDb3dPolyline
 66
     1
 10
0.0
 20
0.0
 30
0.0
 70
     9
1001
ACAD
1000
TILE=export
1000
_geom_type=vector
1000
Objectclass=BuildingWallSurface
1000
gmlid=BLDG_00030009003f5db9
1000
fme_feature_type=Building
1000
_pathname=/fme_temp/engine/fmeengines/localhost_Engine1/1660665
1000
_coordsys=EPSG:25833
1000
_tilename=3920_5818
1000
_APP_THEME=export_BuildingWallSurface
1000
_part_number=23
1000
fme_basename=berlin_dlportal
  0
VERTEX
  5
F7
330
F6
100
AcDbEntity
  8
BuildingWallSurface
100
AcDbVertex
100
AcDb3dPolylineVertex
 10
392443.512311472
 20
5818717.63637482
 30
34.6199989318848
 70
    32
  0
VERTEX
  5
F8
330
F6
100
AcDbEntity
  8
BuildingWallSurface
100
AcDbVertex
100
AcDb3dPolylineVertex
 10
392443.512434189
 20
5818717.63655614
 30
40.3589127299967
 70
    32
  0
VERTEX
  5
F9
330
F6
100
AcDbEntity
  8
BuildingWallSurface
100
AcDbVertex
100
AcDb3dPolylineVertex
 10
392446.302254165
 20
5818723.09238746
 30
40.3589127299967
 70
    32
  0
VERTEX
  5
FA
330
F6
100
AcDbEntity
  8
BuildingWallSurface
100
AcDbVertex
100
AcDb3dPolylineVertex
 10
392446.302131448
 20
5818723.09220614
 30
34.6199989318848
 70
    32
  0
SEQEND
  5
FB
330
F6
100
AcDbEntity
  8
BuildingWallSurface
  0
POLYLINE
  5
FC
330
1F
100
AcDbEntity
  8
BuildingWallSurface
100
AcDb3dPolyline
 66
     1
 10
0.0
 20
0.0
 30
0.0
 70
     9
1001
ACAD
1000
TILE=export
1000
_geom_type=vector
1000
Objectclass=BuildingWallSurface
1000
gmlid=BLDG_00030009003f5db9
1000
fme_feature_type=Building
1000
_pathname=/fme_temp/engine/fmeengines/localhost_Engine1/1660665
1000
_coordsys=EPSG:25833
1000
_tilename=3920_5818
1000
_APP_THEME=export_BuildingWallSurface
1000
_part_number=24
1000
fme_basename=berlin_dlportal
  0
VERTEX
  5
FD
330
FC
100
AcDbEntity
  8
BuildingWallSurface
100
AcDbVertex
100
AcDb3dPolylineVertex
 10
392486.839311538
 20
5818695.47843529
 30
40.3589127299967
 70
    32
  0
VERTEX
  5
FE
330
FC
100
AcDbEntity
  8
BuildingWallSurface
100
AcDbVertex
100
AcDb3dPolylineVertex
 10
392465.175885868
 20
5818706.55751367
 30
40.9446802768662
 70
    32
  0
VERTEX
  5
FF
330
FC
100
AcDbEntity
  8
BuildingWallSurface
100
AcDbVertex
100
AcDb3dPolylineVertex
 10
392457.954735415
 20
5818710.2505277
 30
40.7494244279097
 70
    32
  0
SEQEND
  5
100
330
FC
100
AcDbEntity
  8
BuildingWallSurface
  0
POLYLINE
  5
101
330
1F
100
AcDbEntity
  8
BuildingWallSurface
100
AcDb3dPolyline
 66
     1
 10
0.0
 20
0.0
 30
0.0
 70
     9
1001
ACAD
1000
TILE=export
1000
_geom_type=vector
1000
Objectclass=BuildingWallSurface
1000
gmlid=BLDG_00030009003f5db9
1000
fme_feature_type=Building
1000
_pathname=/fme_temp/engine/fmeengines/localhost_Engine1/1660665
1000
_coordsys=EPSG:25833
1000
_tilename=3920_5818
1000
_APP_THEME=export_BuildingWallSurface
1000
_part_number=25
1000
fme_basename=berlin_dlportal
  0
VERTEX
  5
102
330
101
100
AcDbEntity
  8
BuildingWallSurface
100
AcDbVertex
100
AcDb3dPolylineVertex
 10
392460.745077587
 20
5818715.70695585
 30
40.7494244279097
 70
    32
  0
VERTEX
  5
103
330
101
100
AcDbEntity
  8
BuildingWallSurface
100
AcDbVertex
100
AcDb3dPolylineVertex
 10
392446.302266691
 20
5818723.09240597
 30
40.9446802768662
 70
    32
  0
VERTEX
  5
104
330
101
100
AcDbEntity
  8
BuildingWallSurface
100
AcDbVertex
100
AcDb3dPolylineVertex
 10
392446.302254165
 20
5818723.09238746
 30
40.3589127299967
 70
    32
  0
SEQEND
  5
105
330
101
100
AcDbEntity
  8
BuildingWallSurface
  0
POLYLINE
  5
106
330
1F
100
AcDbEntity
  8
BuildingWallSurface
100
AcDb3dPolyline
 66
     1
 10
0.0
 20
0.0
 30
0.0
 70
     9
1001
ACAD
1000
TILE=export
1000
_geom_type=vector
1000
Objectclass=BuildingWallSurface
1000
gmlid=BLDG_00030009003f5db9
1000
fme_feature_type=Building
1000
_pathname=/fme_temp/engine/fmeengines/localhost_Engine1/1660665
1000
_coordsys=EPSG:25833
1000
_tilename=3920_5818
1000
_APP_THEME=export_BuildingWallSurface
1000
_part_number=26
1000
fme_basename=berlin_dlportal
  0
VERTEX
  5
107
330
106
100
AcDbEntity
  8
BuildingWallSurface
100
AcDbVertex
100
AcDb3dPolylineVertex
 10
392492.410027958
 20
5818706.37016446
 30
34.6199989318848
 70
    32
  0
VERTEX
  5
108
330
106
100
AcDbEntity
  8
BuildingWallSurface
100
AcDbVertex
100
AcDb3dPolylineVertex
 10
392492.41015068
 20
5818706.37034578
 30
40.3589127299967
 70
    32
  0
VERTEX
  5
109
330
106
100
AcDbEntity
  8
BuildingWallSurface
100
AcDbVertex
100
AcDb3dPolylineVertex
 10
392489.6306981
 20
5818700.93605707
 30
40.3589127299967
 70
    32
  0
VERTEX
  5
10A
330
106
100
AcDbEntity
  8
BuildingWallSurface
100
AcDbVertex
100
AcDb3dPolylineVertex
 10
392489.630575379
 20
5818700.93587575
 30
34.6199989318848
 70
    32
  0
SEQEND
  5
10B
330
106
100
AcDbEntity
  8
BuildingWallSurface
  0
POLYLINE
  5
10C
330
1F
100
AcDbEntity
  8
BuildingWallSurface
100
AcDb3dPolyline
 66
     1
 10
0.0
 20
0.0
 30
0.0
 70
     9
1001
ACAD
1000
TILE=export
1000
_geom_type=vector
1000
Objectclass=BuildingWallSurface
1000
gmlid=BLDG_00030009003f5db9
1000
fme_feature_type=Building
1000
_pathname=/fme_temp/engine/fmeengines/localhost_Engine1/1660665
1000
_coordsys=EPSG:25833
1000
_tilename=3920_5818
1000
_APP_THEME=export_BuildingWallSurface
1000
_part_number=27
1000
fme_basename=berlin_dlportal
  0
VERTEX
  5
10D
330
10C
100
AcDbEntity
  8
BuildingWallSurface
100
AcDbVertex
100
AcDb3dPolylineVertex
 10
392449.081070428
 20
5818728.52675818
 30
34.6199989318848
 70
    32
  0
VERTEX
  5
10E
330
10C
100
AcDbEntity
  8
BuildingWallSurface
100
AcDbVertex
100
AcDb3dPolylineVertex
 10
392449.08120567
 20
5818728.52695801
 30
40.9446802768662
 70
    32
  0
VERTEX
  5
10F
330
10C
100
AcDbEntity
  8
BuildingWallSurface
100
AcDbVertex
100
AcDb3dPolylineVertex
 10
392492.41015068
 20
5818706.37034578
 30
40.3589127299967
 70
    32
  0
VERTEX
  5
110
330
10C
100
AcDbEntity
  8
BuildingWallSurface
100
AcDbVertex
100
AcDb3dPolylineVertex
 10
392492.410027958
 20
5818706.37016446
 30
34.6199989318848
 70
    32
  0
SEQEND
  5
111
330
10C
100
AcDbEntity
  8
BuildingWallSurface
  0
POLYLINE
  5
112
330
1F
100
AcDbEntity
  8
BuildingWallSurface
100
AcDb3dPolyline
 66
     1
 10
0.0
 20
0.0
 30
0.0
 70
     9
1001
ACAD
1000
TILE=export
1000
_geom_type=vector
1000
Objectclass=BuildingWallSurface
1000
gmlid=BLDG_00030009003f5db9
1000
fme_feature_type=Building
1000
_pathname=/fme_temp/engine/fmeengines/localhost_Engine1/1660665
1000
_coordsys=EPSG:25833
1000
_tilename=3920_5818
1000
_APP_THEME=export_BuildingWallSurface
1000
_part_number=28
1000
fme_basename=berlin_dlportal
  0
VERTEX
  5
113
330
112
100
AcDbEntity
  8
BuildingWallSurface
100
AcDbVertex
100
AcDb3dPolylineVertex
 10
392446.302131448
 20
5818723.09220614
 30
34.6199989318848
 70
    32
  0
VERTEX
  5
114
330
112
100
AcDbEntity
  8
BuildingWallSurface
100
AcDbVertex
100
AcDb3dPolylineVertex
 10
392446.302266691
 20
5818723.09240597
 30
40.9446802768662
 70
    32
  0
VERTEX
  5
115
330
112
100
AcDbEntity
  8
BuildingWallSurface
100
AcDbVertex
100
AcDb3dPolylineVertex
 10
392449.08120567
 20
5818728.52695801
 30
40.9446802768662
 70
    32
  0
VERTEX
  5
116
330
112
100
AcDbEntity
  8
BuildingWallSurface
100
AcDbVertex
100
AcDb3dPolylineVertex
 10
392449.081070428
 20
5818728.52675818
 30
34.6199989318848
 70
    32
  0
SEQEND
  5
117
330
112
100
AcDbEntity
  8
BuildingWallSurface
  0
POLYLINE
  5
118
330
1F
100
AcDbEntity
  8
BuildingWallSurface
100
AcDb3dPolyline
 66
     1
 10
0.0
 20
0.0
 30
0.0
 70
     9
1001
ACAD
1000
TILE=export
1000
_geom_type=vector
1000
Objectclass=BuildingWallSurface
1000
gmlid=BLDG_00030009003f5db9
1000
fme_feature_type=Building
1000
_pathname=/fme_temp/engine/fmeengines/localhost_Engine1/1660665
1000
_coordsys=EPSG:25833
1000
_tilename=3920_5818
1000
_APP_THEME=export_BuildingWallSurface
1000
_part_number=29
1000
fme_basename=berlin_dlportal
  0
VERTEX
  5
119
330
118
100
AcDbEntity
  8
BuildingWallSurface
100
AcDbVertex
100
AcDb3dPolylineVertex
 10
392489.907597642
 20
5818693.90926035
 30
40.3589127299967
 70
    32
  0
VERTEX
  5
11A
330
118
100
AcDbEntity
  8
BuildingWallSurface
100
AcDbVertex
100
AcDb3dPolylineVertex
 10
392488.373467118
 20
5818694.69386632
 30
40.9446802768662
 70
    32
  0
VERTEX
  5
11B
330
118
100
AcDbEntity
  8
BuildingWallSurface
100
AcDbVertex
100
AcDb3dPolylineVertex
 10
392486.839311538
 20
5818695.47843529
 30
40.3589127299967
 70
    32
  0
SEQEND
  5
11C
330
118
100
AcDbEntity
  8
BuildingWallSurface
  0
POLYLINE
  5
11D
330
1F
100
AcDbEntity
  8
BuildingWallSurface
100
AcDb3dPolyline
 66
     1
 10
0.0
 20
0.0
 30
0.0
 70
     9
1001
ACAD
1000
TILE=export
1000
_geom_type=vector
1000
Objectclass=BuildingWallSurface
1000
gmlid=BLDG_00030009003f5db9
1000
fme_feature_type=Building
1000
_pathname=/fme_temp/engine/fmeengines/localhost_Engine1/1660665
1000
_coordsys=EPSG:25833
1000
_tilename=3920_5818
1000
_APP_THEME=export_BuildingWallSurface
1000
_part_number=30
1000
fme_basename=berlin_dlportal
  0
VERTEX
  5
11E
330
11D
100
AcDbEntity
  8
BuildingWallSurface
100
AcDbVertex
100
AcDb3dPolylineVertex
 10
392492.698494362
 20
5818699.36707206
 30
34.6199989318848
 70
    32
  0
VERTEX
  5
11F
330
11D
100
AcDbEntity
  8
BuildingWallSurface
100
AcDbVertex
100
AcDb3dPolylineVertex
 10
392492.698617084
 20
5818699.36725338
 30
40.3589127299967
 70
    32
  0
VERTEX
  5
120
330
11D
100
AcDbEntity
  8
BuildingWallSurface
100
AcDbVertex
100
AcDb3dPolylineVertex
 10
392489.907597642
 20
5818693.90926035
 30
40.3589127299967
 70
    32
  0
VERTEX
  5
121
330
11D
100
AcDbEntity
  8
BuildingWallSurface
100
AcDbVertex
100
AcDb3dPolylineVertex
 10
392489.907474921
 20
5818693.90907903
 30
34.6199989318848
 70
    32
  0
SEQEND
  5
122
330
11D
100
AcDbEntity
  8
BuildingWallSurface
  0
POLYLINE
  5
123
330
1F
100
AcDbEntity
  8
BuildingWallSurface
100
AcDb3dPolyline
 66
     1
 10
0.0
 20
0.0
 30
0.0
 70
     9
1001
ACAD
1000
TILE=export
1000
_geom_type=vector
1000
Objectclass=BuildingWallSurface
1000
gmlid=BLDG_00030009003f5db9
1000
fme_feature_type=Building
1000
_pathname=/fme_temp/engine/fmeengines/localhost_Engine1/1660665
1000
_coordsys=EPSG:25833
1000
_tilename=3920_5818
1000
_APP_THEME=export_BuildingWallSurface
1000
_part_number=31
1000
fme_basename=berlin_dlportal
  0
VERTEX
  5
124
330
123
100
AcDbEntity
  8
BuildingWallSurface
100
AcDbVertex
100
AcDb3dPolylineVertex
 10
392489.630575379
 20
5818700.93587575
 30
34.6199989318848
 70
    32
  0
VERTEX
  5
125
330
123
100
AcDbEntity
  8
BuildingWallSurface
100
AcDbVertex
100
AcDb3dPolylineVertex
 10
392489.6306981
 20
5818700.93605707
 30
40.3589127299967
 70
    32
  0
VERTEX
  5
126
330
123
100
AcDbEntity
  8
BuildingWallSurface
100
AcDbVertex
100
AcDb3dPolylineVertex
 10
392492.698617084
 20
5818699.36725338
 30
40.3589127299967
 70
    32
  0
VERTEX
  5
127
330
123
100
AcDbEntity
  8
BuildingWallSurface
100
AcDbVertex
100
AcDb3dPolylineVertex
 10
392492.698494362
 20
5818699.36707206
 30
34.6199989318848
 70
    32
  0
SEQEND
  5
128
330
123
100
AcDbEntity
  8
BuildingWallSurface
  0
POLYLINE
  5
12A
330
1F
100
AcDbEntity
  8
BuildingGroundSurface
100
AcDb3dPolyline
 66
     1
 10
0.0
 20
0.0
 30
0.0
 70
     9
1001
ACAD
1000
TILE=export
1000
_geom_type=vector
1000
Objectclass=BuildingGroundSurface
1000
gmlid=BLDG_00030009003f5db9
1000
fme_feature_type=Building
1000
_pathname=/fme_temp/engine/fmeengines/localhost_Engine1/1660665
1000
_coordsys=EPSG:25833
1000
_tilename=3920_5818
1000
_APP_THEME=export_BuildingGroundSurface
1000
_part_number=0
1000
fme_basename=berlin_dlportal
  0
VERTEX
  5
12B
330
12A
100
AcDbEntity
  8
BuildingGroundSurface
100
AcDbVertex
100
AcDb3dPolylineVertex
 10
392443.512311472
 20
5818717.63637482
 30
34.6199989318848
 70
    32
  0
VERTEX
  5
12C
330
12A
100
AcDbEntity
  8
BuildingGroundSurface
100
AcDbVertex
100
AcDb3dPolylineVertex
 10
392446.302131448
 20
5818723.09220614
 30
34.6199989318848
 70
    32
  0
VERTEX
  5
12D
330
12A
100
AcDbEntity
  8
BuildingGroundSurface
100
AcDbVertex
100
AcDb3dPolylineVertex
 10
392489.630575379
 20
5818700.93587575
 30
34.6199989318848
 70
    32
  0
VERTEX
  5
12E
330
12A
100
AcDbEntity
  8
BuildingGroundSurface
100
AcDbVertex
100
AcDb3dPolylineVertex
 10
392486.839188817
 20
5818695.47825397
 30
34.6199989318848
 70
    32
  0
SEQEND
  5
12F
330
12A
100
AcDbEntity
  8
BuildingGroundSurface
  0
POLYLINE
  5
130
330
1F
100
AcDbEntity
  8
BuildingGroundSurface
100
AcDb3dPolyline
 66
     1
 10
0.0
 20
0.0
 30
0.0
 70
     9
1001
ACAD
1000
TILE=export
1000
_geom_type=vector
1000
Objectclass=BuildingGroundSurface
1000
gmlid=BLDG_00030009003f5db9
1000
fme_feature_type=Building
1000
_pathname=/fme_temp/engine/fmeengines/localhost_Engine1/1660665
1000
_coordsys=EPSG:25833
1000
_tilename=3920_5818
1000
_APP_THEME=export_BuildingGroundSurface
1000
_part_number=1
1000
fme_basename=berlin_dlportal
  0
VERTEX
  5
131
330
130
100
AcDbEntity
  8
BuildingGroundSurface
100
AcDbVertex
100
AcDb3dPolylineVertex
 10
392449.081070428
 20
5818728.52675818
 30
34.6199989318848
 70
    32
  0
VERTEX
  5
132
330
130
100
AcDbEntity
  8
BuildingGroundSurface
100
AcDbVertex
100
AcDb3dPolylineVertex
 10
392492.410027958
 20
5818706.37016446
 30
34.6199989318848
 70
    32
  0
VERTEX
  5
133
330
130
100
AcDbEntity
  8
BuildingGroundSurface
100
AcDbVertex
100
AcDb3dPolylineVertex
 10
392489.630575379
 20
5818700.93587575
 30
34.6199989318848
 70
    32
  0
VERTEX
  5
134
330
130
100
AcDbEntity
  8
BuildingGroundSurface
100
AcDbVertex
100
AcDb3dPolylineVertex
 10
392446.302131448
 20
5818723.09220614
 30
34.6199989318848
 70
    32
  0
SEQEND
  5
135
330
130
100
AcDbEntity
  8
BuildingGroundSurface
  0
POLYLINE
  5
136
330
1F
100
AcDbEntity
  8
BuildingGroundSurface
100
AcDb3dPolyline
 66
     1
 10
0.0
 20
0.0
 30
0.0
 70
     9
1001
ACAD
1000
TILE=export
1000
_geom_type=vector
1000
Objectclass=BuildingGroundSurface
1000
gmlid=BLDG_00030009003f5db9
1000
fme_feature_type=Building
1000
_pathname=/fme_temp/engine/fmeengines/localhost_Engine1/1660665
1000
_coordsys=EPSG:25833
1000
_tilename=3920_5818
1000
_APP_THEME=export_BuildingGroundSurface
1000
_part_number=2
1000
fme_basename=berlin_dlportal
  0
VERTEX
  5
137
330
136
100
AcDbEntity
  8
BuildingGroundSurface
100
AcDbVertex
100
AcDb3dPolylineVertex
 10
392492.698494362
 20
5818699.36707206
 30
34.6199989318848
 70
    32
  0
VERTEX
  5
138
330
136
100
AcDbEntity
  8
BuildingGroundSurface
100
AcDbVertex
100
AcDb3dPolylineVertex
 10
392489.907474921
 20
5818693.90907903
 30
34.6199989318848
 70
    32
  0
VERTEX
  5
139
330
136
100
AcDbEntity
  8
BuildingGroundSurface
100
AcDbVertex
100
AcDb3dPolylineVertex
 10
392486.839188817
 20
5818695.47825397
 30
34.6199989318848
 70
    32
  0
VERTEX
  5
13A
330
136
100
AcDbEntity
  8
BuildingGroundSurface
100
AcDbVertex
100
AcDb3dPolylineVertex
 10
392489.630575379
 20
5818700.93587575
 30
34.6199989318848
 70
    32
  0
SEQEND
  5
13B
330
136
100
AcDbEntity
  8
BuildingGroundSurface
  0
POLYLINE
  5
13C
330
1F
100
AcDbEntity
  8
BuildingGroundSurface
100
AcDb3dPolyline
 66
     1
 10
0.0
 20
0.0
 30
0.0
 70
     9
1001
ACAD
1000
TILE=export
1000
_geom_type=vector
1000
Objectclass=BuildingGroundSurface
1000
gmlid=BLDG_00030009003f5db9
1000
fme_feature_type=Building
1000
_pathname=/fme_temp/engine/fmeengines/localhost_Engine1/1660665
1000
_coordsys=EPSG:25833
1000
_tilename=3920_5818
1000
_APP_THEME=export_BuildingGroundSurface
1000
_part_number=3
1000
fme_basename=berlin_dlportal
  0
VERTEX
  5
13D
330
13C
100
AcDbEntity
  8
BuildingGroundSurface
100
AcDbVertex
100
AcDb3dPolylineVertex
 10
392432.498579392
 20
5818696.0976844
 30
34.6199989318848
 70
    32
  0
VERTEX
  5
13E
330
13C
100
AcDbEntity
  8
BuildingGroundSurface
100
AcDbVertex
100
AcDb3dPolylineVertex
 10
392428.960753609
 20
5818697.91899514
 30
34.6199989318848
 70
    32
  0
VERTEX
  5
13F
330
13C
100
AcDbEntity
  8
BuildingGroundSurface
100
AcDbVertex
100
AcDb3dPolylineVertex
 10
392431.617297419
 20
5818703.11418931
 30
34.6199989318848
 70
    32
  0
VERTEX
  5
140
330
13C
100
AcDbEntity
  8
BuildingGroundSurface
100
AcDbVertex
100
AcDb3dPolylineVertex
 10
392435.159989332
 20
5818701.30239493
 30
34.6199989318848
 70
    32
  0
SEQEND
  5
141
330
13C
100
AcDbEntity
  8
BuildingGroundSurface
  0
POLYLINE
  5
142
330
1F
100
AcDbEntity
  8
BuildingGroundSurface
100
AcDb3dPolyline
 66
     1
 10
0.0
 20
0.0
 30
0.0
 70
     9
1001
ACAD
1000
TILE=export
1000
_geom_type=vector
1000
Objectclass=BuildingGroundSurface
1000
gmlid=BLDG_00030009003f5db9
1000
fme_feature_type=Building
1000
_pathname=/fme_temp/engine/fmeengines/localhost_Engine1/1660665
1000
_coordsys=EPSG:25833
1000
_tilename=3920_5818
1000
_APP_THEME=export_BuildingGroundSurface
1000
_part_number=4
1000
fme_basename=berlin_dlportal
  0
VERTEX
  5
143
330
142
100
AcDbEntity
  8
BuildingGroundSurface
100
AcDbVertex
100
AcDb3dPolylineVertex
 10
392428.166579628
 20
5818687.62593215
 30
34.6199989318848
 70
    32
  0
VERTEX
  5
144
330
142
100
AcDbEntity
  8
BuildingGroundSurface
100
AcDbVertex
100
AcDb3dPolylineVertex
 10
392429.8002538
 20
5818690.82078067
 30
34.6199989318848
 70
    32
  0
VERTEX
  5
145
330
142
100
AcDbEntity
  8
BuildingGroundSurface
100
AcDbVertex
100
AcDb3dPolylineVertex
 10
392473.126030806
 20
5818668.6667627
 30
34.6199989318848
 70
    32
  0
VERTEX
  5
146
330
142
100
AcDbEntity
  8
BuildingGroundSurface
100
AcDbVertex
100
AcDb3dPolylineVertex
 10
392471.492054698
 20
5818665.47206898
 30
34.6199989318848
 70
    32
  0
SEQEND
  5
147
330
142
100
AcDbEntity
  8
BuildingGroundSurface
  0
POLYLINE
  5
148
330
1F
100
AcDbEntity
  8
BuildingGroundSurface
100
AcDb3dPolyline
 66
     1
 10
0.0
 20
0.0
 30
0.0
 70
     9
1001
ACAD
1000
TILE=export
1000
_geom_type=vector
1000
Objectclass=BuildingGroundSurface
1000
gmlid=BLDG_00030009003f5db9
1000
fme_feature_type=Building
1000
_pathname=/fme_temp/engine/fmeengines/localhost_Engine1/1660665
1000
_coordsys=EPSG:25833
1000
_tilename=3920_5818
1000
_APP_THEME=export_BuildingGroundSurface
1000
_part_number=5
1000
fme_basename=berlin_dlportal
  0
VERTEX
  5
149
330
148
100
AcDbEntity
  8
BuildingGroundSurface
100
AcDbVertex
100
AcDb3dPolylineVertex
 10
392471.492054698
 20
5818665.47206898
 30
34.6199989318848
 70
    32
  0
VERTEX
  5
14A
330
148
100
AcDbEntity
  8
BuildingGroundSurface
100
AcDbVertex
100
AcDb3dPolylineVertex
 10
392473.126030806
 20
5818668.6667627
 30
34.6199989318848
 70
    32
  0
VERTEX
  5
14B
330
148
100
AcDbEntity
  8
BuildingGroundSurface
100
AcDbVertex
100
AcDb3dPolylineVertex
 10
392476.196587582
 20
5818667.09667739
 30
34.6199989318848
 70
    32
  0
VERTEX
  5
14C
330
148
100
AcDbEntity
  8
BuildingGroundSurface
100
AcDbVertex
100
AcDb3dPolylineVertex
 10
392474.562869936
 20
5818663.90185154
 30
34.6199989318848
 70
    32
  0
SEQEND
  5
14D
330
148
100
AcDbEntity
  8
BuildingGroundSurface
  0
POLYLINE
  5
14E
330
1F
100
AcDbEntity
  8
BuildingGroundSurface
100
AcDb3dPolyline
 66
     1
 10
0.0
 20
0.0
 30
0.0
 70
     9
1001
ACAD
1000
TILE=export
1000
_geom_type=vector
1000
Objectclass=BuildingGroundSurface
1000
gmlid=BLDG_00030009003f5db9
1000
fme_feature_type=Building
1000
_pathname=/fme_temp/engine/fmeengines/localhost_Engine1/1660665
1000
_coordsys=EPSG:25833
1000
_tilename=3920_5818
1000
_APP_THEME=export_BuildingGroundSurface
1000
_part_number=6
1000
fme_basename=berlin_dlportal
  0
VERTEX
  5
14F
330
14E
100
AcDbEntity
  8
BuildingGroundSurface
100
AcDbVertex
100
AcDb3dPolylineVertex
 10
392429.8002538
 20
5818690.82078067
 30
34.6199989318848
 70
    32
  0
VERTEX
  5
150
330
14E
100
AcDbEntity
  8
BuildingGroundSurface
100
AcDbVertex
100
AcDb3dPolylineVertex
 10
392432.498579392
 20
5818696.0976844
 30
34.6199989318848
 70
    32
  0
VERTEX
  5
151
330
14E
100
AcDbEntity
  8
BuildingGroundSurface
100
AcDbVertex
100
AcDb3dPolylineVertex
 10
392475.763900058
 20
5818673.82423354
 30
34.6199989318848
 70
    32
  0
VERTEX
  5
152
330
14E
100
AcDbEntity
  8
BuildingGroundSurface
100
AcDbVertex
100
AcDb3dPolylineVertex
 10
392473.126030806
 20
5818668.6667627
 30
34.6199989318848
 70
    32
  0
SEQEND
  5
153
330
14E
100
AcDbEntity
  8
BuildingGroundSurface
  0
POLYLINE
  5
154
330
1F
100
AcDbEntity
  8
BuildingGroundSurface
100
AcDb3dPolyline
 66
     1
 10
0.0
 20
0.0
 30
0.0
 70
     9
1001
ACAD
1000
TILE=export
1000
_geom_type=vector
1000
Objectclass=BuildingGroundSurface
1000
gmlid=BLDG_00030009003f5db9
1000
fme_feature_type=Building
1000
_pathname=/fme_temp/engine/fmeengines/localhost_Engine1/1660665
1000
_coordsys=EPSG:25833
1000
_tilename=3920_5818
1000
_APP_THEME=export_BuildingGroundSurface
1000
_part_number=7
1000
fme_basename=berlin_dlportal
  0
VERTEX
  5
155
330
154
100
AcDbEntity
  8
BuildingGroundSurface
100
AcDbVertex
100
AcDb3dPolylineVertex
 10
392435.159989332
 20
5818701.30239493
 30
34.6199989318848
 70
    32
  0
VERTEX
  5
156
330
154
100
AcDbEntity
  8
BuildingGroundSurface
100
AcDbVertex
100
AcDb3dPolylineVertex
 10
392478.48532305
 20
5818679.14506562
 30
34.6199989318848
 70
    32
  0
VERTEX
  5
157
330
154
100
AcDbEntity
  8
BuildingGroundSurface
100
AcDbVertex
100
AcDb3dPolylineVertex
 10
392475.763900058
 20
5818673.82423354
 30
34.6199989318848
 70
    32
  0
VERTEX
  5
158
330
154
100
AcDbEntity
  8
BuildingGroundSurface
100
AcDbVertex
100
AcDb3dPolylineVertex
 10
392432.498579392
 20
5818696.0976844
 30
34.6199989318848
 70
    32
  0
SEQEND
  5
159
330
154
100
AcDbEntity
  8
BuildingGroundSurface
  0
POLYLINE
  5
15A
330
1F
100
AcDbEntity
  8
BuildingGroundSurface
100
AcDb3dPolyline
 66
     1
 10
0.0
 20
0.0
 30
0.0
 70
     9
1001
ACAD
1000
TILE=export
1000
_geom_type=vector
1000
Objectclass=BuildingGroundSurface
1000
gmlid=BLDG_00030009003f5db9
1000
fme_feature_type=Building
1000
_pathname=/fme_temp/engine/fmeengines/localhost_Engine1/1660665
1000
_coordsys=EPSG:25833
1000
_tilename=3920_5818
1000
_APP_THEME=export_BuildingGroundSurface
1000
_part_number=8
1000
fme_basename=berlin_dlportal
  0
VERTEX
  5
15B
330
15A
100
AcDbEntity
  8
BuildingGroundSurface
100
AcDbVertex
100
AcDb3dPolylineVertex
 10
392443.512311472
 20
5818717.63637482
 30
34.6199989318848
 70
    32
  0
VERTEX
  5
15C
330
15A
100
AcDbEntity
  8
BuildingGroundSurface
100
AcDbVertex
100
AcDb3dPolylineVertex
 10
392486.839188817
 20
5818695.47825397
 30
34.6199989318848
 70
    32
  0
VERTEX
  5
15D
330
15A
100
AcDbEntity
  8
BuildingGroundSurface
100
AcDbVertex
100
AcDb3dPolylineVertex
 10
392478.48532305
 20
5818679.14506562
 30
34.6199989318848
 70
    32
  0
VERTEX
  5
15E
330
15A
100
AcDbEntity
  8
BuildingGroundSurface
100
AcDbVertex
100
AcDb3dPolylineVertex
 10
392435.159989332
 20
5818701.30239493
 30
34.6199989318848
 70
    32
  0
SEQEND
  5
15F
330
15A
100
AcDbEntity
  8
BuildingGroundSurface
  0
POLYLINE
  5
160
330
1F
100
AcDbEntity
  8
BuildingGroundSurface
100
AcDb3dPolyline
 66
     1
 10
0.0
 20
0.0
 30
0.0
 70
     9
1001
ACAD
1000
TILE=export
1000
_geom_type=vector
1000
Objectclass=BuildingGroundSurface
1000
gmlid=BLDG_00030009003f5db9
1000
fme_feature_type=Building
1000
_pathname=/fme_temp/engine/fmeengines/localhost_Engine1/1660665
1000
_coordsys=EPSG:25833
1000
_tilename=3920_5818
1000
_APP_THEME=export_BuildingGroundSurface
1000
_part_number=9
1000
fme_basename=berlin_dlportal
  0
VERTEX
  5
161
330
160
100
AcDbEntity
  8
BuildingGroundSurface
100
AcDbVertex
100
AcDb3dPolylineVertex
 10
392473.126030806
 20
5818668.6667627
 30
34.6199989318848
 70
    32
  0
VERTEX
  5
162
330
160
100
AcDbEntity
  8
BuildingGroundSurface
100
AcDbVertex
100
AcDb3dPolylineVertex
 10
392475.763900058
 20
5818673.82423354
 30
34.6199989318848
 70
    32
  0
VERTEX
  5
163
330
160
100
AcDbEntity
  8
BuildingGroundSurface
100
AcDbVertex
100
AcDb3dPolylineVertex
 10
392478.829720929
 20
5818672.24591618
 30
34.6199989318848
 70
    32
  0
VERTEX
  5
164
330
160
100
AcDbEntity
  8
BuildingGroundSurface
100
AcDbVertex
100
AcDb3dPolylineVertex
 10
392476.196587582
 20
5818667.09667739
 30
34.6199989318848
 70
    32
  0
SEQEND
  5
165
330
160
100
AcDbEntity
  8
BuildingGroundSurface
  0
POLYLINE
  5
166
330
1F
100
AcDbEntity
  8
BuildingGroundSurface
100
AcDb3dPolyline
 66
     1
 10
0.0
 20
0.0
 30
0.0
 70
     9
1001
ACAD
1000
TILE=export
1000
_geom_type=vector
1000
Objectclass=BuildingGroundSurface
1000
gmlid=BLDG_00030009003f5db9
1000
fme_feature_type=Building
1000
_pathname=/fme_temp/engine/fmeengines/localhost_Engine1/1660665
1000
_coordsys=EPSG:25833
1000
_tilename=3920_5818
1000
_APP_THEME=export_BuildingGroundSurface
1000
_part_number=10
1000
fme_basename=berlin_dlportal
  0
VERTEX
  5
167
330
166
100
AcDbEntity
  8
BuildingGroundSurface
100
AcDbVertex
100
AcDb3dPolylineVertex
 10
392475.763900058
 20
5818673.82423354
 30
34.6199989318848
 70
    32
  0
VERTEX
  5
168
330
166
100
AcDbEntity
  8
BuildingGroundSurface
100
AcDbVertex
100
AcDb3dPolylineVertex
 10
392478.48532305
 20
5818679.14506562
 30
34.6199989318848
 70
    32
  0
VERTEX
  5
169
330
166
100
AcDbEntity
  8
BuildingGroundSurface
100
AcDbVertex
100
AcDb3dPolylineVertex
 10
392481.554930521
 20
5818677.57521505
 30
34.6199989318848
 70
    32
  0
VERTEX
  5
16A
330
166
100
AcDbEntity
  8
BuildingGroundSurface
100
AcDbVertex
100
AcDb3dPolylineVertex
 10
392478.829720929
 20
5818672.24591618
 30
34.6199989318848
 70
    32
  0
SEQEND
  5
16B
330
166
100
AcDbEntity
  8
BuildingGroundSurface
  0
POLYLINE
  5
16C
330
1F
100
AcDbEntity
  8
BuildingGroundSurface
100
AcDb3dPolyline
 66
     1
 10
0.0
 20
0.0
 30
0.0
 70
     9
1001
ACAD
1000
TILE=export
1000
_geom_type=vector
1000
Objectclass=BuildingGroundSurface
1000
gmlid=BLDG_00030009003f5db9
1000
fme_feature_type=Building
1000
_pathname=/fme_temp/engine/fmeengines/localhost_Engine1/1660665
1000
_coordsys=EPSG:25833
1000
_tilename=3920_5818
1000
_APP_THEME=export_BuildingGroundSurface
1000
_part_number=11
1000
fme_basename=berlin_dlportal
  0
VERTEX
  5
16D
330
16C
100
AcDbEntity
  8
BuildingGroundSurface
100
AcDbVertex
100
AcDb3dPolylineVertex
 10
392478.48532305
 20
5818679.14506562
 30
34.6199989318848
 70
    32
  0
VERTEX
  5
16E
330
16C
100
AcDbEntity
  8
BuildingGroundSurface
100
AcDbVertex
100
AcDb3dPolylineVertex
 10
392486.839188817
 20
5818695.47825397
 30
34.6199989318848
 70
    32
  0
VERTEX
  5
16F
330
16C
100
AcDbEntity
  8
BuildingGroundSurface
100
AcDbVertex
100
AcDb3dPolylineVertex
 10
392489.907474921
 20
5818693.90907903
 30
34.6199989318848
 70
    32
  0
VERTEX
  5
170
330
16C
100
AcDbEntity
  8
BuildingGroundSurface
100
AcDbVertex
100
AcDb3dPolylineVertex
 10
392481.554930521
 20
5818677.57521505
 30
34.6199989318848
 70
    32
  0
SEQEND
  5
171
330
16C
100
AcDbEntity
  8
BuildingGroundSurface
  0
POLYLINE
  5
172
330
1F
100
AcDbEntity
  8
BuildingGroundSurface
100
AcDb3dPolyline
 66
     1
 10
0.0
 20
0.0
 30
0.0
 70
     9
1001
ACAD
1000
TILE=export
1000
_geom_type=vector
1000
Objectclass=BuildingGroundSurface
1000
gmlid=BLDG_00030009003f5db9
1000
fme_feature_type=Building
1000
_pathname=/fme_temp/engine/fmeengines/localhost_Engine1/1660665
1000
_coordsys=EPSG:25833
1000
_tilename=3920_5818
1000
_APP_THEME=export_BuildingGroundSurface
1000
_part_number=12
1000
fme_basename=berlin_dlportal
  0
VERTEX
  5
173
330
172
100
AcDbEntity
  8
BuildingGroundSurface
100
AcDbVertex
100
AcDb3dPolylineVertex
 10
392476.196587582
 20
5818667.09667739
 30
34.6199989318848
 70
    32
  0
VERTEX
  5
174
330
172
100
AcDbEntity
  8
BuildingGroundSurface
100
AcDbVertex
100
AcDb3dPolylineVertex
 10
392478.829720929
 20
5818672.24591618
 30
34.6199989318848
 70
    32
  0
VERTEX
  5
175
330
172
100
AcDbEntity
  8
BuildingGroundSurface
100
AcDbVertex
100
AcDb3dPolylineVertex
 10
392482.521870549
 20
5818670.34515811
 30
34.6199989318848
 70
    32
  0
VERTEX
  5
176
330
172
100
AcDbEntity
  8
BuildingGroundSurface
100
AcDbVertex
100
AcDb3dPolylineVertex
 10
392479.893938172
 20
5818665.20609004
 30
34.6199989318848
 70
    32
  0
SEQEND
  5
177
330
172
100
AcDbEntity
  8
BuildingGroundSurface
  0
POLYLINE
  5
178
330
1F
100
AcDbEntity
  8
BuildingGroundSurface
100
AcDb3dPolyline
 66
     1
 10
0.0
 20
0.0
 30
0.0
 70
     9
1001
ACAD
1000
TILE=export
1000
_geom_type=vector
1000
Objectclass=BuildingGroundSurface
1000
gmlid=BLDG_00030009003f5db9
1000
fme_feature_type=Building
1000
_pathname=/fme_temp/engine/fmeengines/localhost_Engine1/1660665
1000
_coordsys=EPSG:25833
1000
_tilename=3920_5818
1000
_APP_THEME=export_BuildingGroundSurface
1000
_part_number=13
1000
fme_basename=berlin_dlportal
  0
VERTEX
  5
179
330
178
100
AcDbEntity
  8
BuildingGroundSurface
100
AcDbVertex
100
AcDb3dPolylineVertex
 10
392478.829720929
 20
5818672.24591618
 30
34.6199989318848
 70
    32
  0
VERTEX
  5
17A
330
178
100
AcDbEntity
  8
BuildingGroundSurface
100
AcDbVertex
100
AcDb3dPolylineVertex
 10
392481.554930521
 20
5818677.57521505
 30
34.6199989318848
 70
    32
  0
VERTEX
  5
17B
330
178
100
AcDbEntity
  8
BuildingGroundSurface
100
AcDbVertex
100
AcDb3dPolylineVertex
 10
392485.252158671
 20
5818675.68438839
 30
34.6199989318848
 70
    32
  0
VERTEX
  5
17C
330
178
100
AcDbEntity
  8
BuildingGroundSurface
100
AcDbVertex
100
AcDb3dPolylineVertex
 10
392482.521870549
 20
5818670.34515811
 30
34.6199989318848
 70
    32
  0
SEQEND
  5
17D
330
178
100
AcDbEntity
  8
BuildingGroundSurface
  0
POLYLINE
  5
17E
330
1F
100
AcDbEntity
  8
BuildingGroundSurface
100
AcDb3dPolyline
 66
     1
 10
0.0
 20
0.0
 30
0.0
 70
     9
1001
ACAD
1000
TILE=export
1000
_geom_type=vector
1000
Objectclass=BuildingGroundSurface
1000
gmlid=BLDG_00030009003f5db9
1000
fme_feature_type=Building
1000
_pathname=/fme_temp/engine/fmeengines/localhost_Engine1/1660665
1000
_coordsys=EPSG:25833
1000
_tilename=3920_5818
1000
_APP_THEME=export_BuildingGroundSurface
1000
_part_number=14
1000
fme_basename=berlin_dlportal
  0
VERTEX
  5
17F
330
17E
100
AcDbEntity
  8
BuildingGroundSurface
100
AcDbVertex
100
AcDb3dPolylineVertex
 10
392481.554930521
 20
5818677.57521505
 30
34.6199989318848
 70
    32
  0
VERTEX
  5
180
330
17E
100
AcDbEntity
  8
BuildingGroundSurface
100
AcDbVertex
100
AcDb3dPolylineVertex
 10
392489.907474921
 20
5818693.90907903
 30
34.6199989318848
 70
    32
  0
VERTEX
  5
181
330
17E
100
AcDbEntity
  8
BuildingGroundSurface
100
AcDbVertex
100
AcDb3dPolylineVertex
 10
392493.604702919
 20
5818692.01825226
 30
34.6199989318848
 70
    32
  0
VERTEX
  5
182
330
17E
100
AcDbEntity
  8
BuildingGroundSurface
100
AcDbVertex
100
AcDb3dPolylineVertex
 10
392485.252158671
 20
5818675.68438839
 30
34.6199989318848
 70
    32
  0
SEQEND
  5
183
330
17E
100
AcDbEntity
  8
BuildingGroundSurface
  0
POLYLINE
  5
185
330
1F
100
AcDbEntity
  8
BuildingRoofSurface
100
AcDb3dPolyline
 66
     1
 10
0.0
 20
0.0
 30
0.0
 70
     9
1001
ACAD
1000
TILE=export
1000
_geom_type=vector
1000
Objectclass=BuildingRoofSurface
1000
gmlid=BLDG_00030009003f5db9
1000
fme_feature_type=Building
1000
_pathname=/fme_temp/engine/fmeengines/localhost_Engine1/1660665
1000
_coordsys=EPSG:25833
1000
_tilename=3920_5818
1000
_APP_THEME=export_BuildingRoofSurface
1000
_part_number=0
1000
fme_basename=berlin_dlportal
  0
VERTEX
  5
186
330
185
100
AcDbEntity
  8
BuildingRoofSurface
100
AcDbVertex
100
AcDb3dPolylineVertex
 10
392431.617420134
 20
5818703.11437063
 30
40.3589127299967
 70
    32
  0
VERTEX
  5
187
330
185
100
AcDbEntity
  8
BuildingRoofSurface
100
AcDbVertex
100
AcDb3dPolylineVertex
 10
392428.960876323
 20
5818697.91917646
 30
40.3589127299967
 70
    32
  0
VERTEX
  5
188
330
185
100
AcDbEntity
  8
BuildingRoofSurface
100
AcDbVertex
100
AcDb3dPolylineVertex
 10
392432.498714633
 20
5818696.09788423
 30
40.9446802768662
 70
    32
  0
VERTEX
  5
189
330
185
100
AcDbEntity
  8
BuildingRoofSurface
100
AcDbVertex
100
AcDb3dPolylineVertex
 10
392435.160124573
 20
5818701.30259476
 30
40.9446802768662
 70
    32
  0
SEQEND
  5
18A
330
185
100
AcDbEntity
  8
BuildingRoofSurface
  0
POLYLINE
  5
18B
330
1F
100
AcDbEntity
  8
BuildingRoofSurface
100
AcDb3dPolyline
 66
     1
 10
0.0
 20
0.0
 30
0.0
 70
     9
1001
ACAD
1000
TILE=export
1000
_geom_type=vector
1000
Objectclass=BuildingRoofSurface
1000
gmlid=BLDG_00030009003f5db9
1000
fme_feature_type=Building
1000
_pathname=/fme_temp/engine/fmeengines/localhost_Engine1/1660665
1000
_coordsys=EPSG:25833
1000
_tilename=3920_5818
1000
_APP_THEME=export_BuildingRoofSurface
1000
_part_number=1
1000
fme_basename=berlin_dlportal
  0
VERTEX
  5
18C
330
18B
100
AcDbEntity
  8
BuildingRoofSurface
100
AcDbVertex
100
AcDb3dPolylineVertex
 10
392473.126153525
 20
5818668.66694401
 30
40.3589127299967
 70
    32
  0
VERTEX
  5
18D
330
18B
100
AcDbEntity
  8
BuildingRoofSurface
100
AcDbVertex
100
AcDb3dPolylineVertex
 10
392429.800376514
 20
5818690.82096199
 30
40.3589127299967
 70
    32
  0
VERTEX
  5
18E
330
18B
100
AcDbEntity
  8
BuildingRoofSurface
100
AcDbVertex
100
AcDb3dPolylineVertex
 10
392428.166702342
 20
5818687.62611347
 30
40.3589127299967
 70
    32
  0
VERTEX
  5
18F
330
18B
100
AcDbEntity
  8
BuildingRoofSurface
100
AcDbVertex
100
AcDb3dPolylineVertex
 10
392471.492177418
 20
5818665.47225029
 30
40.3589127299967
 70
    32
  0
SEQEND
  5
190
330
18B
100
AcDbEntity
  8
BuildingRoofSurface
  0
POLYLINE
  5
191
330
1F
100
AcDbEntity
  8
BuildingRoofSurface
100
AcDb3dPolyline
 66
     1
 10
0.0
 20
0.0
 30
0.0
 70
     9
1001
ACAD
1000
TILE=export
1000
_geom_type=vector
1000
Objectclass=BuildingRoofSurface
1000
gmlid=BLDG_00030009003f5db9
1000
fme_feature_type=Building
1000
_pathname=/fme_temp/engine/fmeengines/localhost_Engine1/1660665
1000
_coordsys=EPSG:25833
1000
_tilename=3920_5818
1000
_APP_THEME=export_BuildingRoofSurface
1000
_part_number=2
1000
fme_basename=berlin_dlportal
  0
VERTEX
  5
192
330
191
100
AcDbEntity
  8
BuildingRoofSurface
100
AcDbVertex
100
AcDb3dPolylineVertex
 10
392476.196710302
 20
5818667.0968587
 30
40.3589127299967
 70
    32
  0
VERTEX
  5
193
330
191
100
AcDbEntity
  8
BuildingRoofSurface
100
AcDbVertex
100
AcDb3dPolylineVertex
 10
392473.126153525
 20
5818668.66694401
 30
40.3589127299967
 70
    32
  0
VERTEX
  5
194
330
191
100
AcDbEntity
  8
BuildingRoofSurface
100
AcDbVertex
100
AcDb3dPolylineVertex
 10
392471.492177418
 20
5818665.47225029
 30
40.3589127299967
 70
    32
  0
VERTEX
  5
195
330
191
100
AcDbEntity
  8
BuildingRoofSurface
100
AcDbVertex
100
AcDb3dPolylineVertex
 10
392474.562992656
 20
5818663.90203285
 30
40.3589127299967
 70
    32
  0
SEQEND
  5
196
330
191
100
AcDbEntity
  8
BuildingRoofSurface
  0
POLYLINE
  5
197
330
1F
100
AcDbEntity
  8
BuildingRoofSurface
100
AcDb3dPolyline
 66
     1
 10
0.0
 20
0.0
 30
0.0
 70
     9
1001
ACAD
1000
TILE=export
1000
_geom_type=vector
1000
Objectclass=BuildingRoofSurface
1000
gmlid=BLDG_00030009003f5db9
1000
fme_feature_type=Building
1000
_pathname=/fme_temp/engine/fmeengines/localhost_Engine1/1660665
1000
_coordsys=EPSG:25833
1000
_tilename=3920_5818
1000
_APP_THEME=export_BuildingRoofSurface
1000
_part_number=3
1000
fme_basename=berlin_dlportal
  0
VERTEX
  5
198
330
197
100
AcDbEntity
  8
BuildingRoofSurface
100
AcDbVertex
100
AcDb3dPolylineVertex
 10
392475.764022778
 20
5818673.82441486
 30
40.3589127299967
 70
    32
  0
VERTEX
  5
199
330
197
100
AcDbEntity
  8
BuildingRoofSurface
100
AcDbVertex
100
AcDb3dPolylineVertex
 10
392454.131375445
 20
5818684.96115824
 30
40.9446802768662
 70
    32
  0
VERTEX
  5
19A
330
197
100
AcDbEntity
  8
BuildingRoofSurface
100
AcDbVertex
100
AcDb3dPolylineVertex
 10
392451.463278025
 20
5818679.74397096
 30
40.9446802768662
 70
    32
  0
VERTEX
  5
19B
330
197
100
AcDbEntity
  8
BuildingRoofSurface
100
AcDbVertex
100
AcDb3dPolylineVertex
 10
392473.126153525
 20
5818668.66694401
 30
40.3589127299967
 70
    32
  0
SEQEND
  5
19C
330
197
100
AcDbEntity
  8
BuildingRoofSurface
  0
POLYLINE
  5
19D
330
1F
100
AcDbEntity
  8
BuildingRoofSurface
100
AcDb3dPolyline
 66
     1
 10
0.0
 20
0.0
 30
0.0
 70
     9
1001
ACAD
1000
TILE=export
1000
_geom_type=vector
1000
Objectclass=BuildingRoofSurface
1000
gmlid=BLDG_00030009003f5db9
1000
fme_feature_type=Building
1000
_pathname=/fme_temp/engine/fmeengines/localhost_Engine1/1660665
1000
_coordsys=EPSG:25833
1000
_tilename=3920_5818
1000
_APP_THEME=export_BuildingRoofSurface
1000
_part_number=4
1000
fme_basename=berlin_dlportal
  0
VERTEX
  5
19E
330
19D
100
AcDbEntity
  8
BuildingRoofSurface
100
AcDbVertex
100
AcDb3dPolylineVertex
 10
392454.131375445
 20
5818684.96115824
 30
40.9446802768662
 70
    32
  0
VERTEX
  5
19F
330
19D
100
AcDbEntity
  8
BuildingRoofSurface
100
AcDbVertex
100
AcDb3dPolylineVertex
 10
392432.498702107
 20
5818696.09786572
 30
40.3589127299967
 70
    32
  0
VERTEX
  5
1A0
330
19D
100
AcDbEntity
  8
BuildingRoofSurface
100
AcDbVertex
100
AcDb3dPolylineVertex
 10
392429.800376514
 20
5818690.82096199
 30
40.3589127299967
 70
    32
  0
VERTEX
  5
1A1
330
19D
100
AcDbEntity
  8
BuildingRoofSurface
100
AcDbVertex
100
AcDb3dPolylineVertex
 10
392451.463278025
 20
5818679.74397096
 30
40.9446802768662
 70
    32
  0
SEQEND
  5
1A2
330
19D
100
AcDbEntity
  8
BuildingRoofSurface
  0
POLYLINE
  5
1A3
330
1F
100
AcDbEntity
  8
BuildingRoofSurface
100
AcDb3dPolyline
 66
     1
 10
0.0
 20
0.0
 30
0.0
 70
     9
1001
ACAD
1000
TILE=export
1000
_geom_type=vector
1000
Objectclass=BuildingRoofSurface
1000
gmlid=BLDG_00030009003f5db9
1000
fme_feature_type=Building
1000
_pathname=/fme_temp/engine/fmeengines/localhost_Engine1/1660665
1000
_coordsys=EPSG:25833
1000
_tilename=3920_5818
1000
_APP_THEME=export_BuildingRoofSurface
1000
_part_number=5
1000
fme_basename=berlin_dlportal
  0
VERTEX
  5
1A4
330
1A3
100
AcDbEntity
  8
BuildingRoofSurface
100
AcDbVertex
100
AcDb3dPolylineVertex
 10
392475.764022778
 20
5818673.82441486
 30
40.3589127299967
 70
    32
  0
VERTEX
  5
1A5
330
1A3
100
AcDbEntity
  8
BuildingRoofSurface
100
AcDbVertex
100
AcDb3dPolylineVertex
 10
392478.48544577
 20
5818679.14524694
 30
40.3589127299967
 70
    32
  0
VERTEX
  5
1A6
330
1A3
100
AcDbEntity
  8
BuildingRoofSurface
100
AcDbVertex
100
AcDb3dPolylineVertex
 10
392435.160124573
 20
5818701.30259476
 30
40.9446802768662
 70
    32
  0
VERTEX
  5
1A7
330
1A3
100
AcDbEntity
  8
BuildingRoofSurface
100
AcDbVertex
100
AcDb3dPolylineVertex
 10
392432.498714633
 20
5818696.09788423
 30
40.9446802768662
 70
    32
  0
SEQEND
  5
1A8
330
1A3
100
AcDbEntity
  8
BuildingRoofSurface
  0
POLYLINE
  5
1A9
330
1F
100
AcDbEntity
  8
BuildingRoofSurface
100
AcDb3dPolyline
 66
     1
 10
0.0
 20
0.0
 30
0.0
 70
     9
1001
ACAD
1000
TILE=export
1000
_geom_type=vector
1000
Objectclass=BuildingRoofSurface
1000
gmlid=BLDG_00030009003f5db9
1000
fme_feature_type=Building
1000
_pathname=/fme_temp/engine/fmeengines/localhost_Engine1/1660665
1000
_coordsys=EPSG:25833
1000
_tilename=3920_5818
1000
_APP_THEME=export_BuildingRoofSurface
1000
_part_number=6
1000
fme_basename=berlin_dlportal
  0
VERTEX
  5
1AA
330
1A9
100
AcDbEntity
  8
BuildingRoofSurface
100
AcDbVertex
100
AcDb3dPolylineVertex
 10
392478.48544577
 20
5818679.14524694
 30
40.3589127299967
 70
    32
  0
VERTEX
  5
1AB
330
1A9
100
AcDbEntity
  8
BuildingRoofSurface
100
AcDbVertex
100
AcDb3dPolylineVertex
 10
392486.839311538
 20
5818695.47843529
 30
40.3589127299967
 70
    32
  0
VERTEX
  5
1AC
330
1A9
100
AcDbEntity
  8
BuildingRoofSurface
100
AcDbVertex
100
AcDb3dPolylineVertex
 10
392443.512446714
 20
5818717.63657465
 30
40.9446802768662
 70
    32
  0
VERTEX
  5
1AD
330
1A9
100
AcDbEntity
  8
BuildingRoofSurface
100
AcDbVertex
100
AcDb3dPolylineVertex
 10
392435.160124573
 20
5818701.30259476
 30
40.9446802768662
 70
    32
  0
SEQEND
  5
1AE
330
1A9
100
AcDbEntity
  8
BuildingRoofSurface
  0
POLYLINE
  5
1AF
330
1F
100
AcDbEntity
  8
BuildingRoofSurface
100
AcDb3dPolyline
 66
     1
 10
0.0
 20
0.0
 30
0.0
 70
     9
1001
ACAD
1000
TILE=export
1000
_geom_type=vector
1000
Objectclass=BuildingRoofSurface
1000
gmlid=BLDG_00030009003f5db9
1000
fme_feature_type=Building
1000
_pathname=/fme_temp/engine/fmeengines/localhost_Engine1/1660665
1000
_coordsys=EPSG:25833
1000
_tilename=3920_5818
1000
_APP_THEME=export_BuildingRoofSurface
1000
_part_number=7
1000
fme_basename=berlin_dlportal
  0
VERTEX
  5
1B0
330
1AF
100
AcDbEntity
  8
BuildingRoofSurface
100
AcDbVertex
100
AcDb3dPolylineVertex
 10
392478.829843649
 20
5818672.2460975
 30
40.3589127299967
 70
    32
  0
VERTEX
  5
1B1
330
1AF
100
AcDbEntity
  8
BuildingRoofSurface
100
AcDbVertex
100
AcDb3dPolylineVertex
 10
392475.764022778
 20
5818673.82441486
 30
40.3589127299967
 70
    32
  0
VERTEX
  5
1B2
330
1AF
100
AcDbEntity
  8
BuildingRoofSurface
100
AcDbVertex
100
AcDb3dPolylineVertex
 10
392473.126153525
 20
5818668.66694401
 30
40.3589127299967
 70
    32
  0
VERTEX
  5
1B3
330
1AF
100
AcDbEntity
  8
BuildingRoofSurface
100
AcDbVertex
100
AcDb3dPolylineVertex
 10
392476.196710302
 20
5818667.0968587
 30
40.3589127299967
 70
    32
  0
SEQEND
  5
1B4
330
1AF
100
AcDbEntity
  8
BuildingRoofSurface
  0
POLYLINE
  5
1B5
330
1F
100
AcDbEntity
  8
BuildingRoofSurface
100
AcDb3dPolyline
 66
     1
 10
0.0
 20
0.0
 30
0.0
 70
     9
1001
ACAD
1000
TILE=export
1000
_geom_type=vector
1000
Objectclass=BuildingRoofSurface
1000
gmlid=BLDG_00030009003f5db9
1000
fme_feature_type=Building
1000
_pathname=/fme_temp/engine/fmeengines/localhost_Engine1/1660665
1000
_coordsys=EPSG:25833
1000
_tilename=3920_5818
1000
_APP_THEME=export_BuildingRoofSurface
1000
_part_number=8
1000
fme_basename=berlin_dlportal
  0
VERTEX
  5
1B6
330
1B5
100
AcDbEntity
  8
BuildingRoofSurface
100
AcDbVertex
100
AcDb3dPolylineVertex
 10
392481.555053241
 20
5818677.57539637
 30
40.3589127299967
 70
    32
  0
VERTEX
  5
1B7
330
1B5
100
AcDbEntity
  8
BuildingRoofSurface
100
AcDbVertex
100
AcDb3dPolylineVertex
 10
392478.48544577
 20
5818679.14524694
 30
40.3589127299967
 70
    32
  0
VERTEX
  5
1B8
330
1B5
100
AcDbEntity
  8
BuildingRoofSurface
100
AcDbVertex
100
AcDb3dPolylineVertex
 10
392475.764022778
 20
5818673.82441486
 30
40.3589127299967
 70
    32
  0
VERTEX
  5
1B9
330
1B5
100
AcDbEntity
  8
BuildingRoofSurface
100
AcDbVertex
100
AcDb3dPolylineVertex
 10
392478.829843649
 20
5818672.2460975
 30
40.3589127299967
 70
    32
  0
SEQEND
  5
1BA
330
1B5
100
AcDbEntity
  8
BuildingRoofSurface
  0
POLYLINE
  5
1BB
330
1F
100
AcDbEntity
  8
BuildingRoofSurface
100
AcDb3dPolyline
 66
     1
 10
0.0
 20
0.0
 30
0.0
 70
     9
1001
ACAD
1000
TILE=export
1000
_geom_type=vector
1000
Objectclass=BuildingRoofSurface
1000
gmlid=BLDG_00030009003f5db9
1000
fme_feature_type=Building
1000
_pathname=/fme_temp/engine/fmeengines/localhost_Engine1/1660665
1000
_coordsys=EPSG:25833
1000
_tilename=3920_5818
1000
_APP_THEME=export_BuildingRoofSurface
1000
_part_number=9
1000
fme_basename=berlin_dlportal
  0
VERTEX
  5
1BC
330
1BB
100
AcDbEntity
  8
BuildingRoofSurface
100
AcDbVertex
100
AcDb3dPolylineVertex
 10
392489.907597666
 20
5818693.90926038
 30
40.36
 70
    32
  0
VERTEX
  5
1BD
330
1BB
100
AcDbEntity
  8
BuildingRoofSurface
100
AcDbVertex
100
AcDb3dPolylineVertex
 10
392486.839311561
 20
5818695.47843532
 30
40.36
 70
    32
  0
VERTEX
  5
1BE
330
1BB
100
AcDbEntity
  8
BuildingRoofSurface
100
AcDbVertex
100
AcDb3dPolylineVertex
 10
392478.485445794
 20
5818679.14524697
 30
40.36
 70
    32
  0
VERTEX
  5
1BF
330
1BB
100
AcDbEntity
  8
BuildingRoofSurface
100
AcDbVertex
100
AcDb3dPolylineVertex
 10
392481.555053264
 20
5818677.5753964
 30
40.36
 70
    32
  0
SEQEND
  5
1C0
330
1BB
100
AcDbEntity
  8
BuildingRoofSurface
  0
POLYLINE
  5
1C1
330
1F
100
AcDbEntity
  8
BuildingRoofSurface
100
AcDb3dPolyline
 66
     1
 10
0.0
 20
0.0
 30
0.0
 70
     9
1001
ACAD
1000
TILE=export
1000
_geom_type=vector
1000
Objectclass=BuildingRoofSurface
1000
gmlid=BLDG_00030009003f5db9
1000
fme_feature_type=Building
1000
_pathname=/fme_temp/engine/fmeengines/localhost_Engine1/1660665
1000
_coordsys=EPSG:25833
1000
_tilename=3920_5818
1000
_APP_THEME=export_BuildingRoofSurface
1000
_part_number=10
1000
fme_basename=berlin_dlportal
  0
VERTEX
  5
1C2
330
1C1
100
AcDbEntity
  8
BuildingRoofSurface
100
AcDbVertex
100
AcDb3dPolylineVertex
 10
392482.52199327
 20
5818670.34533943
 30
40.3589127299967
 70
    32
  0
VERTEX
  5
1C3
330
1C1
100
AcDbEntity
  8
BuildingRoofSurface
100
AcDbVertex
100
AcDb3dPolylineVertex
 10
392478.829843649
 20
5818672.2460975
 30
40.3589127299967
 70
    32
  0
VERTEX
  5
1C4
330
1C1
100
AcDbEntity
  8
BuildingRoofSurface
100
AcDbVertex
100
AcDb3dPolylineVertex
 10
392476.196710302
 20
5818667.0968587
 30
40.3589127299967
 70
    32
  0
VERTEX
  5
1C5
330
1C1
100
AcDbEntity
  8
BuildingRoofSurface
100
AcDbVertex
100
AcDb3dPolylineVertex
 10
392479.894060893
 20
5818665.20627135
 30
40.3589127299967
 70
    32
  0
SEQEND
  5
1C6
330
1C1
100
AcDbEntity
  8
BuildingRoofSurface
  0
POLYLINE
  5
1C7
330
1F
100
AcDbEntity
  8
BuildingRoofSurface
100
AcDb3dPolyline
 66
     1
 10
0.0
 20
0.0
 30
0.0
 70
     9
1001
ACAD
1000
TILE=export
1000
_geom_type=vector
1000
Objectclass=BuildingRoofSurface
1000
gmlid=BLDG_00030009003f5db9
1000
fme_feature_type=Building
1000
_pathname=/fme_temp/engine/fmeengines/localhost_Engine1/1660665
1000
_coordsys=EPSG:25833
1000
_tilename=3920_5818
1000
_APP_THEME=export_BuildingRoofSurface
1000
_part_number=11
1000
fme_basename=berlin_dlportal
  0
VERTEX
  5
1C8
330
1C7
100
AcDbEntity
  8
BuildingRoofSurface
100
AcDbVertex
100
AcDb3dPolylineVertex
 10
392485.252281392
 20
5818675.68456971
 30
40.3589127299967
 70
    32
  0
VERTEX
  5
1C9
330
1C7
100
AcDbEntity
  8
BuildingRoofSurface
100
AcDbVertex
100
AcDb3dPolylineVertex
 10
392481.555053241
 20
5818677.57539637
 30
40.3589127299967
 70
    32
  0
VERTEX
  5
1CA
330
1C7
100
AcDbEntity
  8
BuildingRoofSurface
100
AcDbVertex
100
AcDb3dPolylineVertex
 10
392478.829843649
 20
5818672.2460975
 30
40.3589127299967
 70
    32
  0
VERTEX
  5
1CB
330
1C7
100
AcDbEntity
  8
BuildingRoofSurface
100
AcDbVertex
100
AcDb3dPolylineVertex
 10
392482.52199327
 20
5818670.34533943
 30
40.3589127299967
 70
    32
  0
SEQEND
  5
1CC
330
1C7
100
AcDbEntity
  8
BuildingRoofSurface
  0
POLYLINE
  5
1CD
330
1F
100
AcDbEntity
  8
BuildingRoofSurface
100
AcDb3dPolyline
 66
     1
 10
0.0
 20
0.0
 30
0.0
 70
     9
1001
ACAD
1000
TILE=export
1000
_geom_type=vector
1000
Objectclass=BuildingRoofSurface
1000
gmlid=BLDG_00030009003f5db9
1000
fme_feature_type=Building
1000
_pathname=/fme_temp/engine/fmeengines/localhost_Engine1/1660665
1000
_coordsys=EPSG:25833
1000
_tilename=3920_5818
1000
_APP_THEME=export_BuildingRoofSurface
1000
_part_number=12
1000
fme_basename=berlin_dlportal
  0
VERTEX
  5
1CE
330
1CD
100
AcDbEntity
  8
BuildingRoofSurface
100
AcDbVertex
100
AcDb3dPolylineVertex
 10
392493.604825641
 20
5818692.01843358
 30
40.3589127299967
 70
    32
  0
VERTEX
  5
1CF
330
1CD
100
AcDbEntity
  8
BuildingRoofSurface
100
AcDbVertex
100
AcDb3dPolylineVertex
 10
392489.907597642
 20
5818693.90926035
 30
40.3589127299967
 70
    32
  0
VERTEX
  5
1D0
330
1CD
100
AcDbEntity
  8
BuildingRoofSurface
100
AcDbVertex
100
AcDb3dPolylineVertex
 10
392481.555053241
 20
5818677.57539637
 30
40.3589127299967
 70
    32
  0
VERTEX
  5
1D1
330
1CD
100
AcDbEntity
  8
BuildingRoofSurface
100
AcDbVertex
100
AcDb3dPolylineVertex
 10
392485.252281392
 20
5818675.68456971
 30
40.3589127299967
 70
    32
  0
SEQEND
  5
1D2
330
1CD
100
AcDbEntity
  8
BuildingRoofSurface
  0
POLYLINE
  5
1D3
330
1F
100
AcDbEntity
  8
BuildingRoofSurface
100
AcDb3dPolyline
 66
     1
 10
0.0
 20
0.0
 30
0.0
 70
     9
1001
ACAD
1000
TILE=export
1000
_geom_type=vector
1000
Objectclass=BuildingRoofSurface
1000
gmlid=BLDG_00030009003f5db9
1000
fme_feature_type=Building
1000
_pathname=/fme_temp/engine/fmeengines/localhost_Engine1/1660665
1000
_coordsys=EPSG:25833
1000
_tilename=3920_5818
1000
_APP_THEME=export_BuildingRoofSurface
1000
_part_number=13
1000
fme_basename=berlin_dlportal
  0
VERTEX
  5
1D4
330
1D3
100
AcDbEntity
  8
BuildingRoofSurface
100
AcDbVertex
100
AcDb3dPolylineVertex
 10
392489.6306981
 20
5818700.93605707
 30
40.3589127299967
 70
    32
  0
VERTEX
  5
1D5
330
1D3
100
AcDbEntity
  8
BuildingRoofSurface
100
AcDbVertex
100
AcDb3dPolylineVertex
 10
392467.966489139
 20
5818712.01424022
 30
40.9446802768662
 70
    32
  0
VERTEX
  5
1D6
330
1D3
100
AcDbEntity
  8
BuildingRoofSurface
100
AcDbVertex
100
AcDb3dPolylineVertex
 10
392465.175885868
 20
5818706.55751367
 30
40.9446802768662
 70
    32
  0
VERTEX
  5
1D7
330
1D3
100
AcDbEntity
  8
BuildingRoofSurface
100
AcDbVertex
100
AcDb3dPolylineVertex
 10
392486.839311538
 20
5818695.47843529
 30
40.3589127299967
 70
    32
  0
SEQEND
  5
1D8
330
1D3
100
AcDbEntity
  8
BuildingRoofSurface
  0
POLYLINE
  5
1D9
330
1F
100
AcDbEntity
  8
BuildingRoofSurface
100
AcDb3dPolyline
 66
     1
 10
0.0
 20
0.0
 30
0.0
 70
     9
1001
ACAD
1000
TILE=export
1000
_geom_type=vector
1000
Objectclass=BuildingRoofSurface
1000
gmlid=BLDG_00030009003f5db9
1000
fme_feature_type=Building
1000
_pathname=/fme_temp/engine/fmeengines/localhost_Engine1/1660665
1000
_coordsys=EPSG:25833
1000
_tilename=3920_5818
1000
_APP_THEME=export_BuildingRoofSurface
1000
_part_number=14
1000
fme_basename=berlin_dlportal
  0
VERTEX
  5
1DA
330
1D9
100
AcDbEntity
  8
BuildingRoofSurface
100
AcDbVertex
100
AcDb3dPolylineVertex
 10
392467.966489139
 20
5818712.01424022
 30
40.9446802768662
 70
    32
  0
VERTEX
  5
1DB
330
1D9
100
AcDbEntity
  8
BuildingRoofSurface
100
AcDbVertex
100
AcDb3dPolylineVertex
 10
392446.302254165
 20
5818723.09238746
 30
40.3589127299967
 70
    32
  0
VERTEX
  5
1DC
330
1D9
100
AcDbEntity
  8
BuildingRoofSurface
100
AcDbVertex
100
AcDb3dPolylineVertex
 10
392443.512434189
 20
5818717.63655614
 30
40.3589127299967
 70
    32
  0
VERTEX
  5
1DD
330
1D9
100
AcDbEntity
  8
BuildingRoofSurface
100
AcDbVertex
100
AcDb3dPolylineVertex
 10
392465.175885868
 20
5818706.55751367
 30
40.9446802768662
 70
    32
  0
SEQEND
  5
1DE
330
1D9
100
AcDbEntity
  8
BuildingRoofSurface
  0
POLYLINE
  5
1DF
330
1F
100
AcDbEntity
  8
BuildingRoofSurface
100
AcDb3dPolyline
 66
     1
 10
0.0
 20
0.0
 30
0.0
 70
     9
1001
ACAD
1000
TILE=export
1000
_geom_type=vector
1000
Objectclass=BuildingRoofSurface
1000
gmlid=BLDG_00030009003f5db9
1000
fme_feature_type=Building
1000
_pathname=/fme_temp/engine/fmeengines/localhost_Engine1/1660665
1000
_coordsys=EPSG:25833
1000
_tilename=3920_5818
1000
_APP_THEME=export_BuildingRoofSurface
1000
_part_number=15
1000
fme_basename=berlin_dlportal
  0
VERTEX
  5
1E0
330
1DF
100
AcDbEntity
  8
BuildingRoofSurface
100
AcDbVertex
100
AcDb3dPolylineVertex
 10
392489.6306981
 20
5818700.93605707
 30
40.3589127299967
 70
    32
  0
VERTEX
  5
1E1
330
1DF
100
AcDbEntity
  8
BuildingRoofSurface
100
AcDbVertex
100
AcDb3dPolylineVertex
 10
392492.41015068
 20
5818706.37034578
 30
40.3589127299967
 70
    32
  0
VERTEX
  5
1E2
330
1DF
100
AcDbEntity
  8
BuildingRoofSurface
100
AcDbVertex
100
AcDb3dPolylineVertex
 10
392449.08120567
 20
5818728.52695801
 30
40.9446802768662
 70
    32
  0
VERTEX
  5
1E3
330
1DF
100
AcDbEntity
  8
BuildingRoofSurface
100
AcDbVertex
100
AcDb3dPolylineVertex
 10
392446.302266691
 20
5818723.09240597
 30
40.9446802768662
 70
    32
  0
SEQEND
  5
1E4
330
1DF
100
AcDbEntity
  8
BuildingRoofSurface
  0
POLYLINE
  5
1E5
330
1F
100
AcDbEntity
  8
BuildingRoofSurface
100
AcDb3dPolyline
 66
     1
 10
0.0
 20
0.0
 30
0.0
 70
     9
1001
ACAD
1000
TILE=export
1000
_geom_type=vector
1000
Objectclass=BuildingRoofSurface
1000
gmlid=BLDG_00030009003f5db9
1000
fme_feature_type=Building
1000
_pathname=/fme_temp/engine/fmeengines/localhost_Engine1/1660665
1000
_coordsys=EPSG:25833
1000
_tilename=3920_5818
1000
_APP_THEME=export_BuildingRoofSurface
1000
_part_number=16
1000
fme_basename=berlin_dlportal
  0
VERTEX
  5
1E6
330
1E5
100
AcDbEntity
  8
BuildingRoofSurface
100
AcDbVertex
100
AcDb3dPolylineVertex
 10
392486.839311538
 20
5818695.47843529
 30
40.3589127299967
 70
    32
  0
VERTEX
  5
1E7
330
1E5
100
AcDbEntity
  8
BuildingRoofSurface
100
AcDbVertex
100
AcDb3dPolylineVertex
 10
392488.373467118
 20
5818694.69386632
 30
40.9446802768662
 70
    32
  0
VERTEX
  5
1E8
330
1E5
100
AcDbEntity
  8
BuildingRoofSurface
100
AcDbVertex
100
AcDb3dPolylineVertex
 10
392490.380143586
 20
5818698.61764174
 30
40.9446802768662
 70
    32
  0
VERTEX
  5
1E9
330
1E5
100
AcDbEntity
  8
BuildingRoofSurface
100
AcDbVertex
100
AcDb3dPolylineVertex
 10
392489.6306981
 20
5818700.93605707
 30
40.3589127299967
 70
    32
  0
SEQEND
  5
1EA
330
1E5
100
AcDbEntity
  8
BuildingRoofSurface
  0
POLYLINE
  5
1EB
330
1F
100
AcDbEntity
  8
BuildingRoofSurface
100
AcDb3dPolyline
 66
     1
 10
0.0
 20
0.0
 30
0.0
 70
     9
1001
ACAD
1000
TILE=export
1000
_geom_type=vector
1000
Objectclass=BuildingRoofSurface
1000
gmlid=BLDG_00030009003f5db9
1000
fme_feature_type=Building
1000
_pathname=/fme_temp/engine/fmeengines/localhost_Engine1/1660665
1000
_coordsys=EPSG:25833
1000
_tilename=3920_5818
1000
_APP_THEME=export_BuildingRoofSurface
1000
_part_number=17
1000
fme_basename=berlin_dlportal
  0
VERTEX
  5
1EC
330
1EB
100
AcDbEntity
  8
BuildingRoofSurface
100
AcDbVertex
100
AcDb3dPolylineVertex
 10
392488.373467118
 20
5818694.69386632
 30
40.9446802768662
 70
    32
  0
VERTEX
  5
1ED
330
1EB
100
AcDbEntity
  8
BuildingRoofSurface
100
AcDbVertex
100
AcDb3dPolylineVertex
 10
392489.907597642
 20
5818693.90926035
 30
40.3589127299967
 70
    32
  0
VERTEX
  5
1EE
330
1EB
100
AcDbEntity
  8
BuildingRoofSurface
100
AcDbVertex
100
AcDb3dPolylineVertex
 10
392492.698617084
 20
5818699.36725338
 30
40.3589127299967
 70
    32
  0
VERTEX
  5
1EF
330
1EB
100
AcDbEntity
  8
BuildingRoofSurface
100
AcDbVertex
100
AcDb3dPolylineVertex
 10
392490.380143586
 20
5818698.61764174
 30
40.9446802768662
 70
    32
  0
SEQEND
  5
1F0
330
1EB
100
AcDbEntity
  8
BuildingRoofSurface
  0
POLYLINE
  5
1F1
330
1F
100
AcDbEntity
  8
BuildingRoofSurface
100
AcDb3dPolyline
 66
     1
 10
0.0
 20
0.0
 30
0.0
 70
     9
1001
ACAD
1000
TILE=export
1000
_geom_type=vector
1000
Objectclass=BuildingRoofSurface
1000
gmlid=BLDG_00030009003f5db9
1000
fme_feature_type=Building
1000
_pathname=/fme_temp/engine/fmeengines/localhost_Engine1/1660665
1000
_coordsys=EPSG:25833
1000
_tilename=3920_5818
1000
_APP_THEME=export_BuildingRoofSurface
1000
_part_number=18
1000
fme_basename=berlin_dlportal
  0
VERTEX
  5
1F2
330
1F1
100
AcDbEntity
  8
BuildingRoofSurface
100
AcDbVertex
100
AcDb3dPolylineVertex
 10
392489.6306981
 20
5818700.93605707
 30
40.3589127299967
 70
    32
  0
VERTEX
  5
1F3
330
1F1
100
AcDbEntity
  8
BuildingRoofSurface
100
AcDbVertex
100
AcDb3dPolylineVertex
 10
392490.380143586
 20
5818698.61764174
 30
40.9446802768662
 70
    32
  0
VERTEX
  5
1F4
330
1F1
100
AcDbEntity
  8
BuildingRoofSurface
100
AcDbVertex
100
AcDb3dPolylineVertex
 10
392492.698617084
 20
5818699.36725338
 30
40.3589127299967
 70
    32
  0
SEQEND
  5
1F5
330
1F1
100
AcDbEntity
  8
BuildingRoofSurface
  0
ENDSEC
  0
SECTION
  2
OBJECTS
  0
DICTIONARY
  5
C
330
0
100
AcDbDictionary
281
     1
  3
ACAD_DETAILVIEWSTYLE
350
1FD
  3
ACAD_GROUP
350
D
  3
ACAD_LAYOUT
350
1A
  3
ACAD_MATERIAL
350
43
  3
ACAD_MLEADERSTYLE
350
6B
  3
ACAD_MLINESTYLE
350
17
  3
ACAD_PLOTSETTINGS
350
19
  3
ACAD_PLOTSTYLENAME
350
E
  3
ACAD_SCALELIST
350
47
  3
ACAD_SECTIONVIEWSTYLE
350
1FE
  3
ACAD_TABLESTYLE
350
69
  3
ACAD_VISUALSTYLE
350
2A
  3
ACDB_RECOMPOSE_DATA
350
1FA
  3
AcDbVariableDictionary
350
1F6
  3
ESRI_PRJ
350
6E
  0
SUN
  5
6D
330
29
100
AcDbSun
 90
        1
290
     0
 63
     7
421
 16777215
 40
1.0
291
     1
 91
  2455826
 92
 54000000
292
     0
 70
     2
 71
   256
280
     1
  0
DICTIONARY
  5
1FD
102
{ACAD_REACTORS
330
C
102
}
330
C
100
AcDbDictionary
281
     1
  0
DICTIONARY
  5
D
102
{ACAD_REACTORS
330
C
102
}
330
C
100
AcDbDictionary
281
     1
  0
DICTIONARY
  5
1A
102
{ACAD_REACTORS
330
C
102
}
330
C
100
AcDbDictionary
281
     1
  3
Layout1
350
1E
  3
Layout2
350
26
  3
Model
350
22
  0
DICTIONARY
  5
43
102
{ACAD_REACTORS
330
C
102
}
330
C
100
AcDbDictionary
281
     1
  3
ByBlock
350
45
  3
ByLayer
350
44
  3
Global
350
46
  0
DICTIONARY
  5
6B
102
{ACAD_REACTORS
330
C
102
}
330
C
100
AcDbDictionary
281
     1
  3
Standard
350
6C
  0
DICTIONARY
  5
17
102
{ACAD_REACTORS
330
C
102
}
330
C
100
AcDbDictionary
281
     1
  3
Standard
350
18
  0
DICTIONARY
  5
19
102
{ACAD_REACTORS
330
C
102
}
330
C
100
AcDbDictionary
281
     1
  0
ACDBDICTIONARYWDFLT
  5
E
102
{ACAD_REACTORS
330
C
102
}
330
C
100
AcDbDictionary
281
     1
  3
Normal
350
F
100
AcDbDictionaryWithDefault
340
F
  0
DICTIONARY
  5
47
102
{ACAD_REACTORS
330
C
102
}
330
C
100
AcDbDictionary
281
     1
  3
A0
350
48
  3
A1
350
49
  3
A2
350
4A
  3
A3
350
4B
  3
A4
350
4C
  3
A5
350
4D
  3
A6
350
4E
  3
A7
350
4F
  3
A8
350
50
  3
A9
350
51
  3
B0
350
52
  3
B1
350
53
  3
B2
350
54
  3
B3
350
55
  3
B4
350
56
  3
B5
350
57
  3
B6
350
58
  3
B7
350
59
  3
B8
350
5A
  3
B9
350
5B
  3
C0
350
5C
  3
C1
350
5D
  3
C2
350
5E
  3
C3
350
5F
  3
C4
350
60
  3
C5
350
61
  3
C6
350
62
  3
C7
350
63
  3
C8
350
64
  3
C9
350
65
  3
D0
350
66
  3
D1
350
67
  3
D2
350
68
  0
DICTIONARY
  5
1FE
102
{ACAD_REACTORS
330
C
102
}
330
C
100
AcDbDictionary
281
     1
  0
DICTIONARY
  5
69
102
{ACAD_REACTORS
330
C
102
}
330
C
100
AcDbDictionary
281
     1
  3
Standard
350
6A
  0
DICTIONARY
  5
2A
102
{ACAD_REACTORS
330
C
102
}
330
C
100
AcDbDictionary
281
     1
  3
2dWireframe
350
2F
  3
Basic
350
32
  3
Brighten
350
36
  3
ColorChange
350
3A
  3
Conceptual
350
34
  3
Dim
350
35
  3
EdgeColorOff
350
3D
  3
Facepattern
350
39
  3
Flat
350
2B
  3
FlatWithEdges
350
2C
  3
Gouraud
350
2D
  3
GouraudWithEdges
350
2E
  3
Hidden
350
31
  3
JitterOff
350
3B
  3
Linepattern
350
38
  3
OverhangOff
350
3C
  3
Realistic
350
33
  3
Shaded
350
42
  3
Shaded with edges
350
41
  3
Shades of Gray
350
3E
  3
Sketchy
350
3F
  3
Thicken
350
37
  3
Wireframe
350
30
  3
X-Ray
350
40
  0
XRECORD
  5
1FA
102
{ACAD_REACTORS
330
C
102
}
330
C
100
AcDbXrecord
280
     1
 90
        1
330
6A
  0
DICTIONARY
  5
1F6
102
{ACAD_REACTORS
330
C
102
}
330
C
100
AcDbDictionary
281
     1
  3
CANNOSCALE
350
1F7
  3
CMLEADERSTYLE
350
1FC
  3
CTABLESTYLE
350
1FB
  0
XRECORD
  5
6E
102
{ACAD_REACTORS
330
C
102
}
330
C
100
AcDbXrecord
280
     1
  1
PROJCS["ETRS_1989_UTM_Zone_33N",GEOGCS["GCS_ETRS_1989",DATUM["D_ETRS_1989",SPHEROID["GRS_1980",6378137.0,298.257222101]],PRIMEM["Greenwich",0.0],UNIT["Degree",0.0174532925199433]],PROJECTION["Transverse_Mercator"],PARAMETER["False_Easting",500000.0],PARAMETER["False_Northing",0.0],PARAMETER["Central_Meridian",15.0],PARAMETER["Scale_Factor",0.9996],PARAMETER["Latitude_Of_Origin",0.0],UNIT["Meter",1.0]]
  0
LAYOUT
  5
1E
102
{ACAD_REACTORS
330
1A
102
}
330
1A
100
AcDbPlotSettings
  1

  2
none_device
  4

  6

 40
0.0
 41
0.0
 42
0.0
 43
0.0
 44
0.0
 45
0.0
 46
0.0
 47
0.0
 48
0.0
 49
0.0
140
0.0
141
0.0
142
1.0
143
1.0
 70
   688
 72
     0
 73
     0
 74
     5
  7

 75
    16
 76
     0
 77
     2
 78
   300
147
1.0
148
0.0
149
0.0
100
AcDbLayout
  1
Layout1
 70
     1
 71
     1
 10
0.0
 20
0.0
 11
12.0
 21
9.0
 12
0.0
 22
0.0
 32
0.0
 14
1.000000000000000E+20
 24
1.000000000000000E+20
 34
1.000000000000000E+20
 15
-1.000000000000000E+20
 25
-1.000000000000000E+20
 35
-1.000000000000000E+20
146
0.0
 13
0.0
 23
0.0
 33
0.0
 16
1.0
 26
0.0
 36
0.0
 17
0.0
 27
1.0
 37
0.0
 76
     0
330
1B
  0
LAYOUT
  5
26
102
{ACAD_REACTORS
330
1A
102
}
330
1A
100
AcDbPlotSettings
  1

  2
none_device
  4

  6

 40
0.0
 41
0.0
 42
0.0
 43
0.0
 44
0.0
 45
0.0
 46
0.0
 47
0.0
 48
0.0
 49
0.0
140
0.0
141
0.0
142
1.0
143
1.0
 70
   688
 72
     0
 73
     0
 74
     5
  7

 75
    16
 76
     0
 77
     2
 78
   300
147
1.0
148
0.0
149
0.0
100
AcDbLayout
  1
Layout2
 70
     1
 71
     2
 10
0.0
 20
0.0
 11
0.0
 21
0.0
 12
0.0
 22
0.0
 32
0.0
 14
0.0
 24
0.0
 34
0.0
 15
0.0
 25
0.0
 35
0.0
146
0.0
 13
0.0
 23
0.0
 33
0.0
 16
1.0
 26
0.0
 36
0.0
 17
0.0
 27
1.0
 37
0.0
 76
     0
330
23
  0
LAYOUT
  5
22
102
{ACAD_REACTORS
330
1A
102
}
330
1A
100
AcDbPlotSettings
  1

  2
none_device
  4
Letter_(8.50_x_11.00_Inches)
  6

 40
6.35
 41
6.35
 42
6.35000508
 43
6.35000508
 44
215.9
 45
279.4
 46
0.0
 47
0.0
 48
0.0
 49
0.0
140
0.0
141
0.0
142
1.0
143
1.0
 70
  1712
 72
     0
 73
     0
 74
     0
  7

 75
     0
 76
     0
 77
     2
 78
   300
147
1.0
148
0.0
149
0.0
100
AcDbLayout
  1
Model
 70
     1
 71
     0
 10
0.0
 20
0.0
 11
12.0
 21
9.0
 12
0.0
 22
0.0
 32
0.0
 14
392428.166579628
 24
5818663.90185154
 34
34.6199989318848
 15
392493.604825641
 25
5818728.52695801
 35
40.9446802768662
146
0.0
 13
0.0
 23
0.0
 33
0.0
 16
1.0
 26
0.0
 36
0.0
 17
0.0
 27
1.0
 37
0.0
 76
     0
330
1F
331
29
  0
MATERIAL
  5
45
102
{ACAD_REACTORS
330
43
102
}
330
43
100
AcDbMaterial
  1
ByBlock
 72
     1
 94
      127
  0
MATERIAL
  5
44
102
{ACAD_REACTORS
330
43
102
}
330
43
100
AcDbMaterial
  1
ByLayer
 72
     1
 94
      127
  0
MATERIAL
  5
46
102
{ACAD_REACTORS
330
43
102
}
330
43
100
AcDbMaterial
  1
Global
 72
     1
 94
      127
  0
MLEADERSTYLE
  5
6C
102
{ACAD_REACTORS
330
6B
102
}
330
6B
100
AcDbMLeaderStyle
179
     2
170
     2
171
     1
172
     0
 90
        2
 40
0.0
 41
0.0
173
     1
 91
-1056964608
340
14
 92
       -2
290
     1
 42
0.09
291
     1
 43
0.36
  3
Standard
341
0
 44
0.18
300

342
11
174
     1
178
     6
175
     1
176
     0
 93
-1056964608
 45
0.18
292
     0
297
     0
 46
0.18
343
0
 94
-1056964608
 47
1.0
 49
1.0
140
1.0
293
     1
141
0.0
294
     1
177
     0
142
1.0
295
     0
296
     0
143
0.125
271
     0
272
     9
273
     9
298
     0
  0
MLINESTYLE
  5
18
102
{ACAD_REACTORS
330
17
102
}
330
17
100
AcDbMlineStyle
  2
Standard
 70
     0
  3

 62
   256
 51
90.0
 52
90.0
 71
     2
 49
0.5
 62
   256
  6
BYLAYER
 49
-0.5
 62
   256
  6
BYLAYER
  0
ACDBPLACEHOLDER
  5
F
102
{ACAD_REACTORS
330
E
102
}
330
E
  0
SCALE
  5
48
102
{ACAD_REACTORS
330
47
102
}
330
47
100
AcDbScale
 70
     0
300
1:1
140
1.0
141
1.0
290
     1
  0
SCALE
  5
49
102
{ACAD_REACTORS
330
47
102
}
330
47
100
AcDbScale
 70
     0
300
1:2
140
1.0
141
2.0
290
     0
  0
SCALE
  5
4A
102
{ACAD_REACTORS
330
47
102
}
330
47
100
AcDbScale
 70
     0
300
1:4
140
1.0
141
4.0
290
     0
  0
SCALE
  5
4B
102
{ACAD_REACTORS
330
47
102
}
330
47
100
AcDbScale
 70
     0
300
1:5
140
1.0
141
5.0
290
     0
  0
SCALE
  5
4C
102
{ACAD_REACTORS
330
47
102
}
330
47
100
AcDbScale
 70
     0
300
1:8
140
1.0
141
8.0
290
     0
  0
SCALE
  5
4D
102
{ACAD_REACTORS
330
47
102
}
330
47
100
AcDbScale
 70
     0
300
1:10
140
1.0
141
10.0
290
     0
  0
SCALE
  5
4E
102
{ACAD_REACTORS
330
47
102
}
330
47
100
AcDbScale
 70
     0
300
1:16
140
1.0
141
16.0
290
     0
  0
SCALE
  5
4F
102
{ACAD_REACTORS
330
47
102
}
330
47
100
AcDbScale
 70
     0
300
1:20
140
1.0
141
20.0
290
     0
  0
SCALE
  5
50
102
{ACAD_REACTORS
330
47
102
}
330
47
100
AcDbScale
 70
     0
300
1:30
140
1.0
141
30.0
290
     0
  0
SCALE
  5
51
102
{ACAD_REACTORS
330
47
102
}
330
47
100
AcDbScale
 70
     0
300
1:40
140
1.0
141
40.0
290
     0
  0
SCALE
  5
52
102
{ACAD_REACTORS
330
47
102
}
330
47
100
AcDbScale
 70
     0
300
1:50
140
1.0
141
50.0
290
     0
  0
SCALE
  5
53
102
{ACAD_REACTORS
330
47
102
}
330
47
100
AcDbScale
 70
     0
300
1:100
140
1.0
141
100.0
290
     0
  0
SCALE
  5
54
102
{ACAD_REACTORS
330
47
102
}
330
47
100
AcDbScale
 70
     0
300
2:1
140
2.0
141
1.0
290
     0
  0
SCALE
  5
55
102
{ACAD_REACTORS
330
47
102
}
330
47
100
AcDbScale
 70
     0
300
4:1
140
4.0
141
1.0
290
     0
  0
SCALE
  5
56
102
{ACAD_REACTORS
330
47
102
}
330
47
100
AcDbScale
 70
     0
300
8:1
140
8.0
141
1.0
290
     0
  0
SCALE
  5
57
102
{ACAD_REACTORS
330
47
102
}
330
47
100
AcDbScale
 70
     0
300
10:1
140
10.0
141
1.0
290
     0
  0
SCALE
  5
58
102
{ACAD_REACTORS
330
47
102
}
330
47
100
AcDbScale
 70
     0
300
100:1
140
100.0
141
1.0
290
     0
  0
SCALE
  5
59
102
{ACAD_REACTORS
330
47
102
}
330
47
100
AcDbScale
 70
     0
300
1/128" = 1'-0"
140
0.0078125
141
12.0
290
     0
  0
SCALE
  5
5A
102
{ACAD_REACTORS
330
47
102
}
330
47
100
AcDbScale
 70
     0
300
1/64" = 1'-0"
140
0.015625
141
12.0
290
     0
  0
SCALE
  5
5B
102
{ACAD_REACTORS
330
47
102
}
330
47
100
AcDbScale
 70
     0
300
1/32" = 1'-0"
140
0.03125
141
12.0
290
     0
  0
SCALE
  5
5C
102
{ACAD_REACTORS
330
47
102
}
330
47
100
AcDbScale
 70
     0
300
1/16" = 1'-0"
140
0.0625
141
12.0
290
     0
  0
SCALE
  5
5D
102
{ACAD_REACTORS
330
47
102
}
330
47
100
AcDbScale
 70
     0
300
3/32" = 1'-0"
140
0.09375
141
12.0
290
     0
  0
SCALE
  5
5E
102
{ACAD_REACTORS
330
47
102
}
330
47
100
AcDbScale
 70
     0
300
1/8" = 1'-0"
140
0.125
141
12.0
290
     0
  0
SCALE
  5
5F
102
{ACAD_REACTORS
330
47
102
}
330
47
100
AcDbScale
 70
     0
300
3/16" = 1'-0"
140
0.1875
141
12.0
290
     0
  0
SCALE
  5
60
102
{ACAD_REACTORS
330
47
102
}
330
47
100
AcDbScale
 70
     0
300
1/4" = 1'-0"
140
0.25
141
12.0
290
     0
  0
SCALE
  5
61
102
{ACAD_REACTORS
330
47
102
}
330
47
100
AcDbScale
 70
     0
300
3/8" = 1'-0"
140
0.375
141
12.0
290
     0
  0
SCALE
  5
62
102
{ACAD_REACTORS
330
47
102
}
330
47
100
AcDbScale
 70
     0
300
1/2" = 1'-0"
140
0.5
141
12.0
290
     0
  0
SCALE
  5
63
102
{ACAD_REACTORS
330
47
102
}
330
47
100
AcDbScale
 70
     0
300
3/4" = 1'-0"
140
0.75
141
12.0
290
     0
  0
SCALE
  5
64
102
{ACAD_REACTORS
330
47
102
}
330
47
100
AcDbScale
 70
     0
300
1" = 1'-0"
140
1.0
141
12.0
290
     0
  0
SCALE
  5
65
102
{ACAD_REACTORS
330
47
102
}
330
47
100
AcDbScale
 70
     0
300
1-1/2" = 1'-0"
140
1.5
141
12.0
290
     0
  0
SCALE
  5
66
102
{ACAD_REACTORS
330
47
102
}
330
47
100
AcDbScale
 70
     0
300
3" = 1'-0"
140
3.0
141
12.0
290
     0
  0
SCALE
  5
67
102
{ACAD_REACTORS
330
47
102
}
330
47
100
AcDbScale
 70
     0
300
6" = 1'-0"
140
6.0
141
12.0
290
     0
  0
SCALE
  5
68
102
{ACAD_REACTORS
330
47
102
}
330
47
100
AcDbScale
 70
     0
300
1'-0" = 1'-0"
140
12.0
141
12.0
290
     0
  0
TABLESTYLE
  5
6A
102
{ACAD_REACTORS
330
69
102
}
102
{ACAD_XDICTIONARY
360
1F8
102
}
330
69
100
AcDbTableStyle
  3
Standard
 70
     0
 71
     0
 40
0.06
 41
0.06
280
     0
281
     0
  7
Standard
140
0.18
170
     2
 62
     0
 63
   257
283
     0
 90
        4
 91
        0
  1

274
    -2
284
     1
 64
     0
275
    -2
285
     1
 65
     0
276
    -2
286
     1
 66
     0
277
    -2
287
     1
 67
     0
278
    -2
288
     1
 68
     0
279
    -2
289
     1
 69
     0
  7
Standard
140
0.25
170
     5
 62
     0
 63
   257
283
     0
 90
        4
 91
        0
  1

274
    -2
284
     1
 64
     0
275
    -2
285
     1
 65
     0
276
    -2
286
     1
 66
     0
277
    -2
287
     1
 67
     0
278
    -2
288
     1
 68
     0
279
    -2
289
     1
 69
     0
  7
Standard
140
0.18
170
     5
 62
     0
 63
   257
283
     0
 90
        4
 91
        0
  1

274
    -2
284
     1
 64
     0
275
    -2
285
     1
 65
     0
276
    -2
286
     1
 66
     0
277
    -2
287
     1
 67
     0
278
    -2
288
     1
 68
     0
279
    -2
289
     1
 69
     0
  0
VISUALSTYLE
  5
2F
102
{ACAD_REACTORS
330
2A
102
}
330
2A
100
AcDbVisualStyle
  2
2dWireframe
 70
     4
177
     3
291
     0
 70
    58
 90
        0
176
     1
 90
        2
176
     1
 90
        0
176
     1
 90
        0
176
     1
 40
0.6
176
     1
 40
30.0
176
     1
 62
     7
420
 16777215
176
     1
 90
        1
176
     1
 90
        4
176
     1
 62
     7
176
     1
 62
   257
176
     1
 90
        1
176
     1
 90
        1
176
     1
 40
1.0
176
     1
 90
        0
176
     1
 62
   257
176
     1
 40
1.0
176
     1
 90
        1
176
     1
 90
        6
176
     1
 90
        2
176
     1
 62
     7
176
     1
 90
        5
176
     1
 90
        0
176
     1
 90
        0
176
     1
290
     0
176
     1
 90
        1
176
     1
 40
0.0
176
     1
 90
        0
176
     1
290
     1
176
     1
290
     1
176
     1
290
     0
176
     1
290
     0
176
     1
290
     0
176
     1
290
     0
176
     1
290
     0
176
     1
290
     0
176
     1
290
     0
176
     1
 90
       50
176
     1
 40
0.0
176
     1
 40
1.0
176
     1
 90
        0
176
     1
 62
   178
420
        0
176
     1
 90
       50
176
     1
 90
        3
176
     1
 62
     5
420
      255
176
     1
290
     0
176
     1
 90
       50
176
     1
 90
       50
176
     1
 90
       50
176
     1
290
     0
176
     1
 90
       50
176
     1
 62
   256
176
     0
 40
1.0
176
     0
 90
        2
176
     1
  1
strokes_ogs.tif
176
     1
290
     0
176
     1
 40
1.0
176
     1
 40
1.0
176
     1
  0
VISUALSTYLE
  5
32
102
{ACAD_REACTORS
330
2A
102
}
330
2A
100
AcDbVisualStyle
  2
Basic
 70
     7
177
     3
291
     1
 70
    58
 90
        1
176
     1
 90
        0
176
     1
 90
        1
176
     1
 90
        0
176
     1
 40
0.6
176
     1
 40
30.0
176
     1
 62
     7
420
 16777215
176
     1
 90
        0
176
     1
 90
        4
176
     1
 62
     7
176
     1
 62
   257
176
     1
 90
        1
176
     1
 90
        1
176
     1
 40
1.0
176
     1
 90
        8
176
     1
 62
     7
176
     1
 40
1.0
176
     1
 90
        1
176
     1
 90
        6
176
     1
 90
        2
176
     1
 62
     7
176
     1
 90
        5
176
     1
 90
        0
176
     1
 90
        0
176
     1
290
     0
176
     1
 90
        1
176
     1
 40
0.0
176
     1
 90
        0
176
     1
290
     0
176
     1
290
     1
176
     1
290
     1
176
     1
290
     0
176
     1
290
     0
176
     1
290
     0
176
     1
290
     0
176
     1
290
     0
176
     1
290
     0
176
     1
 90
       50
176
     1
 40
0.0
176
     1
 40
1.0
176
     1
 90
        0
176
     1
 62
   178
420
        0
176
     1
 90
       50
176
     1
 90
        3
176
     1
 62
     5
420
      255
176
     1
290
     0
176
     1
 90
       50
176
     1
 90
       50
176
     1
 90
       50
176
     1
290
     0
176
     1
 90
       50
176
     1
 62
   256
176
     0
 40
1.0
176
     0
 90
        2
176
     1
  1
strokes_ogs.tif
176
     1
290
     0
176
     1
 40
1.0
176
     1
 40
1.0
176
     1
  0
VISUALSTYLE
  5
36
102
{ACAD_REACTORS
330
2A
102
}
330
2A
100
AcDbVisualStyle
  2
Brighten
 70
    12
177
     3
291
     1
 70
    58
 90
        2
176
     1
 90
        2
176
     1
 90
        0
176
     1
 90
        0
176
     1
 40
0.6
176
     1
 40
30.0
176
     1
 62
     7
420
 16777215
176
     1
 90
        1
176
     1
 90
        4
176
     1
 62
     7
176
     1
 62
   257
176
     1
 90
        1
176
     1
 90
        1
176
     1
 40
1.0
176
     1
 90
        8
176
     1
 62
     7
176
     1
 40
1.0
176
     1
 90
        1
176
     1
 90
        6
176
     1
 90
        2
176
     1
 62
     7
176
     1
 90
        5
176
     1
 90
        0
176
     1
 90
        0
176
     1
290
     0
176
     1
 90
        1
176
     1
 40
50.0
176
     1
 90
        0
176
     1
290
     0
176
     1
290
     1
176
     1
290
     1
176
     1
290
     0
176
     1
290
     0
176
     1
290
     0
176
     1
290
     0
176
     1
290
     0
176
     1
290
     0
176
     1
 90
       50
176
     1
 40
0.0
176
     1
 40
1.0
176
     1
 90
        0
176
     1
 62
   178
420
        0
176
     1
 90
       50
176
     1
 90
        3
176
     1
 62
     5
420
      255
176
     1
290
     0
176
     1
 90
       50
176
     1
 90
       50
176
     1
 90
       50
176
     1
290
     0
176
     1
 90
       50
176
     1
 62
   256
176
     0
 40
1.0
176
     0
 90
        2
176
     1
  1
strokes_ogs.tif
176
     1
290
     0
176
     1
 40
1.0
176
     1
 40
1.0
176
     1
  0
VISUALSTYLE
  5
3A
102
{ACAD_REACTORS
330
2A
102
}
330
2A
100
AcDbVisualStyle
  2
ColorChange
 70
    16
177
     3
291
     1
 70
    58
 90
        2
176
     1
 90
        2
176
     1
 90
        3
176
     1
 90
        0
176
     1
 40
0.6
176
     1
 40
30.0
176
     1
 62
     8
420
  8421504
176
     1
 90
        1
176
     1
 90
        4
176
     1
 62
     7
176
     1
 62
   257
176
     1
 90
        1
176
     1
 90
        1
176
     1
 40
1.0
176
     1
 90
        8
176
     1
 62
     8
420
  8421504
176
     1
 40
1.0
176
     1
 90
        1
176
     1
 90
        6
176
     1
 90
        2
176
     1
 62
     7
176
     1
 90
        5
176
     1
 90
        0
176
     1
 90
        0
176
     1
290
     0
176
     1
 90
        1
176
     1
 40
0.0
176
     1
 90
        0
176
     1
290
     0
176
     1
290
     1
176
     1
290
     1
176
     1
290
     0
176
     1
290
     0
176
     1
290
     0
176
     1
290
     0
176
     1
290
     0
176
     1
290
     0
176
     1
 90
       50
176
     1
 40
0.0
176
     1
 40
1.0
176
     1
 90
        0
176
     1
 62
   178
420
        0
176
     1
 90
       50
176
     1
 90
        3
176
     1
 62
     5
420
      255
176
     1
290
     0
176
     1
 90
       50
176
     1
 90
       50
176
     1
 90
       50
176
     1
290
     0
176
     1
 90
       50
176
     1
 62
   256
176
     0
 40
1.0
176
     0
 90
        2
176
     1
  1
strokes_ogs.tif
176
     1
290
     0
176
     1
 40
1.0
176
     1
 40
1.0
176
     1
  0
VISUALSTYLE
  5
34
102
{ACAD_REACTORS
330
2A
102
}
330
2A
100
AcDbVisualStyle
  2
Conceptual
 70
     9
177
     3
291
     0
 70
    58
 90
        3
176
     1
 90
        2
176
     1
 90
        0
176
     1
 90
        0
176
     1
 40
0.6
176
     1
 40
30.0
176
     1
 62
     7
420
 16777215
176
     1
 90
        2
176
     1
 90
        2
176
     1
 62
     7
176
     1
 62
   257
176
     1
 90
        1
176
     1
 90
        1
176
     1
 40
179.0
176
     1
 90
        8
176
     1
 62
     7
176
     1
 40
1.0
176
     1
 90
        1
176
     1
 90
        6
176
     1
 90
        2
176
     1
 62
     7
176
     1
 90
        3
176
     1
 90
        0
176
     1
 90
        0
176
     1
290
     0
176
     1
 90
        1
176
     1
 40
0.0
176
     1
 90
        0
176
     1
290
     0
176
     1
290
     1
176
     1
290
     1
176
     1
290
     0
176
     1
290
     0
176
     1
290
     0
176
     1
290
     0
176
     1
290
     0
176
     1
290
     0
176
     1
 90
       50
176
     1
 40
0.0
176
     1
 40
1.0
176
     1
 90
        0
176
     1
 62
   178
420
        0
176
     1
 90
       50
176
     1
 90
        3
176
     1
 62
     5
420
      255
176
     1
290
     0
176
     1
 90
       50
176
     1
 90
       50
176
     1
 90
       50
176
     1
290
     0
176
     1
 90
       50
176
     1
 62
   256
176
     0
 40
1.0
176
     0
 90
        2
176
     1
  1
strokes_ogs.tif
176
     1
290
     0
176
     1
 40
1.0
176
     1
 40
1.0
176
     1
  0
VISUALSTYLE
  5
35
102
{ACAD_REACTORS
330
2A
102
}
330
2A
100
AcDbVisualStyle
  2
Dim
 70
    11
177
     3
291
     1
 70
    58
 90
        2
176
     1
 90
        2
176
     1
 90
        0
176
     1
 90
        0
176
     1
 40
0.6
176
     1
 40
30.0
176
     1
 62
     7
420
 16777215
176
     1
 90
        1
176
     1
 90
        4
176
     1
 62
     7
176
     1
 62
   257
176
     1
 90
        1
176
     1
 90
        1
176
     1
 40
1.0
176
     1
 90
        8
176
     1
 62
     7
176
     1
 40
1.0
176
     1
 90
        1
176
     1
 90
        6
176
     1
 90
        2
176
     1
 62
     7
176
     1
 90
        5
176
     1
 90
        0
176
     1
 90
        0
176
     1
290
     0
176
     1
 90
        1
176
     1
 40
-50.0
176
     1
 90
        0
176
     1
290
     0
176
     1
290
     1
176
     1
290
     1
176
     1
290
     0
176
     1
290
     0
176
     1
290
     0
176
     1
290
     0
176
     1
290
     0
176
     1
290
     0
176
     1
 90
       50
176
     1
 40
0.0
176
     1
 40
1.0
176
     1
 90
        0
176
     1
 62
   178
420
        0
176
     1
 90
       50
176
     1
 90
        3
176
     1
 62
     5
420
      255
176
     1
290
     0
176
     1
 90
       50
176
     1
 90
       50
176
     1
 90
       50
176
     1
290
     0
176
     1
 90
       50
176
     1
 62
   256
176
     0
 40
1.0
176
     0
 90
        2
176
     1
  1
strokes_ogs.tif
176
     1
290
     0
176
     1
 40
1.0
176
     1
 40
1.0
176
     1
  0
VISUALSTYLE
  5
3D
102
{ACAD_REACTORS
330
2A
102
}
330
2A
100
AcDbVisualStyle
  2
EdgeColorOff
 70
    22
177
     3
291
     1
 70
    58
 90
        2
176
     0
 90
        2
176
     0
 90
        0
176
     0
 90
        0
176
     0
 40
0.6
176
     0
 40
30.0
176
     0
 62
     7
420
 16777215
176
     0
 90
        1
176
     0
 90
        4
176
     0
 62
     7
176
     0
 62
   257
176
     0
 90
        1
176
     0
 90
        1
176
     0
 40
1.0
176
     0
 90
        8
176
     2
 62
     7
176
     0
 40
1.0
176
     0
 90
        1
176
     0
 90
        6
176
     0
 90
        2
176
     0
 62
     7
176
     0
 90
        5
176
     0
 90
        0
176
     0
 90
        0
176
     0
290
     0
176
     0
 90
        1
176
     0
 40
0.0
176
     0
 90
        0
176
     0
290
     0
176
     0
290
     1
176
     0
290
     1
176
     0
290
     0
176
     0
290
     0
176
     0
290
     0
176
     0
290
     0
176
     0
290
     0
176
     0
290
     0
176
     0
 90
       50
176
     0
 40
0.0
176
     0
 40
1.0
176
     0
 90
        0
176
     0
 62
   178
420
        0
176
     0
 90
       50
176
     0
 90
        3
176
     0
 62
     5
420
      255
176
     0
290
     0
176
     0
 90
       50
176
     0
 90
       50
176
     0
 90
       50
176
     0
290
     0
176
     0
 90
       50
176
     0
 62
   256
176
     0
 40
1.0
176
     0
 90
        2
176
     0
  1
strokes_ogs.tif
176
     0
290
     0
176
     0
 40
1.0
176
     0
 40
1.0
176
     0
  0
VISUALSTYLE
  5
39
102
{ACAD_REACTORS
330
2A
102
}
330
2A
100
AcDbVisualStyle
  2
Facepattern
 70
    15
177
     3
291
     1
 70
    58
 90
        2
176
     1
 90
        2
176
     1
 90
        0
176
     1
 90
        0
176
     1
 40
0.6
176
     1
 40
30.0
176
     1
 62
     7
420
 16777215
176
     1
 90
        1
176
     1
 90
        4
176
     1
 62
     7
176
     1
 62
   257
176
     1
 90
        1
176
     1
 90
        1
176
     1
 40
1.0
176
     1
 90
        8
176
     1
 62
     7
176
     1
 40
1.0
176
     1
 90
        1
176
     1
 90
        6
176
     1
 90
        2
176
     1
 62
     7
176
     1
 90
        5
176
     1
 90
        0
176
     1
 90
        0
176
     1
290
     0
176
     1
 90
        1
176
     1
 40
0.0
176
     1
 90
        0
176
     1
290
     0
176
     1
290
     1
176
     1
290
     1
176
     1
290
     0
176
     1
290
     0
176
     1
290
     0
176
     1
290
     0
176
     1
290
     0
176
     1
290
     0
176
     1
 90
       50
176
     1
 40
0.0
176
     1
 40
1.0
176
     1
 90
        0
176
     1
 62
   178
420
        0
176
     1
 90
       50
176
     1
 90
        3
176
     1
 62
     5
420
      255
176
     1
290
     0
176
     1
 90
       50
176
     1
 90
       50
176
     1
 90
       50
176
     1
290
     0
176
     1
 90
       50
176
     1
 62
   256
176
     0
 40
1.0
176
     0
 90
        2
176
     1
  1
strokes_ogs.tif
176
     1
290
     0
176
     1
 40
1.0
176
     1
 40
1.0
176
     1
  0
VISUALSTYLE
  5
2B
102
{ACAD_REACTORS
330
2A
102
}
330
2A
100
AcDbVisualStyle
  2
Flat
 70
     0
177
     3
291
     1
 70
    58
 90
        2
176
     1
 90
        1
176
     1
 90
        1
176
     1
 90
        2
176
     1
 40
0.6
176
     1
 40
30.0
176
     1
 62
     7
420
 16777215
176
     1
 90
        0
176
     1
 90
        0
176
     1
 62
     7
176
     1
 62
   257
176
     1
 90
        1
176
     1
 90
        1
176
     1
 40
1.0
176
     1
 90
        8
176
     1
 62
     7
176
     1
 40
1.0
176
     1
 90
        1
176
     1
 90
        6
176
     1
 90
        2
176
     1
 62
     7
176
     1
 90
        5
176
     1
 90
        0
176
     1
 90
        0
176
     1
290
     0
176
     1
 90
       13
176
     1
 40
0.0
176
     1
 90
        0
176
     1
290
     0
176
     1
290
     1
176
     1
290
     1
176
     1
290
     0
176
     1
290
     0
176
     1
290
     0
176
     1
290
     0
176
     1
290
     0
176
     1
290
     0
176
     1
 90
       50
176
     1
 40
0.0
176
     1
 40
1.0
176
     1
 90
        0
176
     1
 62
   178
420
        0
176
     1
 90
       50
176
     1
 90
        3
176
     1
 62
     5
420
      255
176
     1
290
     0
176
     1
 90
       50
176
     1
 90
       50
176
     1
 90
       50
176
     1
290
     0
176
     1
 90
       50
176
     1
 62
   256
176
     0
 40
1.0
176
     0
 90
        2
176
     1
  1
strokes_ogs.tif
176
     1
290
     0
176
     1
 40
1.0
176
     1
 40
1.0
176
     1
  0
VISUALSTYLE
  5
2C
102
{ACAD_REACTORS
330
2A
102
}
330
2A
100
AcDbVisualStyle
  2
FlatWithEdges
 70
     1
177
     3
291
     1
 70
    58
 90
        2
176
     1
 90
        1
176
     1
 90
        1
176
     1
 90
        2
176
     1
 40
0.6
176
     1
 40
30.0
176
     1
 62
     7
420
 16777215
176
     1
 90
        1
176
     1
 90
        0
176
     1
 62
     7
176
     1
 62
   257
176
     1
 90
        1
176
     1
 90
        1
176
     1
 40
1.0
176
     1
 90
        0
176
     1
 62
   257
176
     1
 40
1.0
176
     1
 90
        1
176
     1
 90
        6
176
     1
 90
        2
176
     1
 62
     7
176
     1
 90
        5
176
     1
 90
        0
176
     1
 90
        0
176
     1
290
     0
176
     1
 90
       13
176
     1
 40
0.0
176
     1
 90
        0
176
     1
290
     0
176
     1
290
     1
176
     1
290
     1
176
     1
290
     0
176
     1
290
     0
176
     1
290
     0
176
     1
290
     0
176
     1
290
     0
176
     1
290
     0
176
     1
 90
       50
176
     1
 40
0.0
176
     1
 40
1.0
176
     1
 90
        0
176
     1
 62
   178
420
        0
176
     1
 90
       50
176
     1
 90
        3
176
     1
 62
     5
420
      255
176
     1
290
     0
176
     1
 90
       50
176
     1
 90
       50
176
     1
 90
       50
176
     1
290
     0
176
     1
 90
       50
176
     1
 62
   256
176
     0
 40
1.0
176
     0
 90
        2
176
     1
  1
strokes_ogs.tif
176
     1
290
     0
176
     1
 40
1.0
176
     1
 40
1.0
176
     1
  0
VISUALSTYLE
  5
2D
102
{ACAD_REACTORS
330
2A
102
}
330
2A
100
AcDbVisualStyle
  2
Gouraud
 70
     2
177
     3
291
     1
 70
    58
 90
        2
176
     1
 90
        2
176
     1
 90
        1
176
     1
 90
        2
176
     1
 40
0.6
176
     1
 40
30.0
176
     1
 62
     7
420
 16777215
176
     1
 90
        0
176
     1
 90
        0
176
     1
 62
     7
176
     1
 62
   257
176
     1
 90
        1
176
     1
 90
        1
176
     1
 40
1.0
176
     1
 90
        0
176
     1
 62
     7
176
     1
 40
1.0
176
     1
 90
        1
176
     1
 90
        6
176
     1
 90
        2
176
     1
 62
     7
176
     1
 90
        5
176
     1
 90
        0
176
     1
 90
        0
176
     1
290
     0
176
     1
 90
       13
176
     1
 40
0.0
176
     1
 90
        0
176
     1
290
     0
176
     1
290
     1
176
     1
290
     1
176
     1
290
     0
176
     1
290
     0
176
     1
290
     0
176
     1
290
     0
176
     1
290
     0
176
     1
290
     0
176
     1
 90
       50
176
     1
 40
0.0
176
     1
 40
1.0
176
     1
 90
        0
176
     1
 62
   178
420
        0
176
     1
 90
       50
176
     1
 90
        3
176
     1
 62
     5
420
      255
176
     1
290
     0
176
     1
 90
       50
176
     1
 90
       50
176
     1
 90
       50
176
     1
290
     0
176
     1
 90
       50
176
     1
 62
   256
176
     0
 40
1.0
176
     0
 90
        2
176
     1
  1
strokes_ogs.tif
176
     1
290
     0
176
     1
 40
1.0
176
     1
 40
1.0
176
     1
  0
VISUALSTYLE
  5
2E
102
{ACAD_REACTORS
330
2A
102
}
330
2A
100
AcDbVisualStyle
  2
GouraudWithEdges
 70
     3
177
     3
291
     1
 70
    58
 90
        2
176
     1
 90
        2
176
     1
 90
        1
176
     1
 90
        2
176
     1
 40
0.6
176
     1
 40
30.0
176
     1
 62
     7
420
 16777215
176
     1
 90
        1
176
     1
 90
        0
176
     1
 62
     7
176
     1
 62
   257
176
     1
 90
        1
176
     1
 90
        1
176
     1
 40
1.0
176
     1
 90
        0
176
     1
 62
   257
176
     1
 40
1.0
176
     1
 90
        1
176
     1
 90
        6
176
     1
 90
        2
176
     1
 62
     7
176
     1
 90
        5
176
     1
 90
        0
176
     1
 90
        0
176
     1
290
     0
176
     1
 90
       13
176
     1
 40
0.0
176
     1
 90
        0
176
     1
290
     0
176
     1
290
     1
176
     1
290
     1
176
     1
290
     0
176
     1
290
     0
176
     1
290
     0
176
     1
290
     0
176
     1
290
     0
176
     1
290
     0
176
     1
 90
       50
176
     1
 40
0.0
176
     1
 40
1.0
176
     1
 90
        0
176
     1
 62
   178
420
        0
176
     1
 90
       50
176
     1
 90
        3
176
     1
 62
     5
420
      255
176
     1
290
     0
176
     1
 90
       50
176
     1
 90
       50
176
     1
 90
       50
176
     1
290
     0
176
     1
 90
       50
176
     1
 62
   256
176
     0
 40
1.0
176
     0
 90
        2
176
     1
  1
strokes_ogs.tif
176
     1
290
     0
176
     1
 40
1.0
176
     1
 40
1.0
176
     1
  0
VISUALSTYLE
  5
31
102
{ACAD_REACTORS
330
2A
102
}
330
2A
100
AcDbVisualStyle
  2
Hidden
 70
     6
177
     3
291
     0
 70
    58
 90
        1
176
     1
 90
        2
176
     1
 90
        2
176
     1
 90
        0
176
     1
 40
0.6
176
     1
 40
30.0
176
     1
 62
     7
420
 16777215
176
     1
 90
        2
176
     1
 90
        2
176
     1
 62
     7
176
     1
 62
   257
176
     1
 90
        2
176
     1
 90
        1
176
     1
 40
40.0
176
     1
 90
        0
176
     1
 62
   257
176
     1
 40
1.0
176
     1
 90
        1
176
     1
 90
        6
176
     1
 90
        2
176
     1
 62
     7
176
     1
 90
        3
176
     1
 90
        0
176
     1
 90
        0
176
     1
290
     0
176
     1
 90
        1
176
     1
 40
0.0
176
     1
 90
        0
176
     1
290
     0
176
     1
290
     1
176
     1
290
     1
176
     1
290
     0
176
     1
290
     0
176
     1
290
     0
176
     1
290
     0
176
     1
290
     0
176
     1
290
     0
176
     1
 90
       50
176
     1
 40
0.0
176
     1
 40
1.0
176
     1
 90
        0
176
     1
 62
   178
420
        0
176
     1
 90
       50
176
     1
 90
        3
176
     1
 62
     5
420
      255
176
     1
290
     0
176
     1
 90
       50
176
     1
 90
       50
176
     1
 90
       50
176
     1
290
     0
176
     1
 90
       50
176
     1
 62
   256
176
     0
 40
1.0
176
     0
 90
        2
176
     1
  1
strokes_ogs.tif
176
     1
290
     0
176
     1
 40
1.0
176
     1
 40
1.0
176
     1
  0
VISUALSTYLE
  5
3B
102
{ACAD_REACTORS
330
2A
102
}
330
2A
100
AcDbVisualStyle
  2
JitterOff
 70
    20
177
     3
291
     1
 70
    58
 90
        2
176
     0
 90
        2
176
     0
 90
        0
176
     0
 90
        0
176
     0
 40
0.6
176
     0
 40
30.0
176
     0
 62
     7
420
 16777215
176
     0
 90
        1
176
     0
 90
        4
176
     0
 62
     7
176
     0
 62
   257
176
     0
 90
        1
176
     0
 90
        1
176
     0
 40
1.0
176
     0
 90
       10
176
     2
 62
     7
176
     0
 40
1.0
176
     0
 90
        1
176
     0
 90
        6
176
     0
 90
        2
176
     0
 62
     7
176
     0
 90
        5
176
     0
 90
        0
176
     0
 90
        0
176
     0
290
     0
176
     0
 90
        1
176
     0
 40
0.0
176
     0
 90
        0
176
     0
290
     0
176
     0
290
     1
176
     0
290
     1
176
     0
290
     0
176
     0
290
     0
176
     0
290
     0
176
     0
290
     0
176
     0
290
     0
176
     0
290
     0
176
     0
 90
       50
176
     0
 40
0.0
176
     0
 40
1.0
176
     0
 90
        0
176
     0
 62
   178
420
        0
176
     0
 90
       50
176
     0
 90
        3
176
     0
 62
     5
420
      255
176
     0
290
     0
176
     0
 90
       50
176
     0
 90
       50
176
     0
 90
       50
176
     0
290
     0
176
     0
 90
       50
176
     0
 62
   256
176
     0
 40
1.0
176
     0
 90
        2
176
     0
  1
strokes_ogs.tif
176
     0
290
     0
176
     0
 40
1.0
176
     0
 40
1.0
176
     0
  0
VISUALSTYLE
  5
38
102
{ACAD_REACTORS
330
2A
102
}
330
2A
100
AcDbVisualStyle
  2
Linepattern
 70
    14
177
     3
291
     1
 70
    58
 90
        2
176
     1
 90
        2
176
     1
 90
        0
176
     1
 90
        0
176
     1
 40
0.6
176
     1
 40
30.0
176
     1
 62
     7
420
 16777215
176
     1
 90
        1
176
     1
 90
        4
176
     1
 62
     7
176
     1
 62
   257
176
     1
 90
        7
176
     1
 90
        7
176
     1
 40
1.0
176
     1
 90
        8
176
     1
 62
     7
176
     1
 40
1.0
176
     1
 90
        1
176
     1
 90
        6
176
     1
 90
        2
176
     1
 62
     7
176
     1
 90
        5
176
     1
 90
        0
176
     1
 90
        0
176
     1
290
     0
176
     1
 90
        1
176
     1
 40
0.0
176
     1
 90
        0
176
     1
290
     0
176
     1
290
     1
176
     1
290
     1
176
     1
290
     0
176
     1
290
     0
176
     1
290
     0
176
     1
290
     0
176
     1
290
     0
176
     1
290
     0
176
     1
 90
       50
176
     1
 40
0.0
176
     1
 40
1.0
176
     1
 90
        0
176
     1
 62
   178
420
        0
176
     1
 90
       50
176
     1
 90
        3
176
     1
 62
     5
420
      255
176
     1
290
     0
176
     1
 90
       50
176
     1
 90
       50
176
     1
 90
       50
176
     1
290
     0
176
     1
 90
       50
176
     1
 62
   256
176
     0
 40
1.0
176
     0
 90
        2
176
     1
  1
strokes_ogs.tif
176
     1
290
     0
176
     1
 40
1.0
176
     1
 40
1.0
176
     1
  0
VISUALSTYLE
  5
3C
102
{ACAD_REACTORS
330
2A
102
}
330
2A
100
AcDbVisualStyle
  2
OverhangOff
 70
    21
177
     3
291
     1
 70
    58
 90
        2
176
     0
 90
        2
176
     0
 90
        0
176
     0
 90
        0
176
     0
 40
0.6
176
     0
 40
30.0
176
     0
 62
     7
420
 16777215
176
     0
 90
        1
176
     0
 90
        4
176
     0
 62
     7
176
     0
 62
   257
176
     0
 90
        1
176
     0
 90
        1
176
     0
 40
1.0
176
     0
 90
        9
176
     2
 62
     7
176
     0
 40
1.0
176
     0
 90
        1
176
     0
 90
        6
176
     0
 90
        2
176
     0
 62
     7
176
     0
 90
        5
176
     0
 90
        0
176
     0
 90
        0
176
     0
290
     0
176
     0
 90
        1
176
     0
 40
0.0
176
     0
 90
        0
176
     0
290
     0
176
     0
290
     1
176
     0
290
     1
176
     0
290
     0
176
     0
290
     0
176
     0
290
     0
176
     0
290
     0
176
     0
290
     0
176
     0
290
     0
176
     0
 90
       50
176
     0
 40
0.0
176
     0
 40
1.0
176
     0
 90
        0
176
     0
 62
   178
420
        0
176
     0
 90
       50
176
     0
 90
        3
176
     0
 62
     5
420
      255
176
     0
290
     0
176
     0
 90
       50
176
     0
 90
       50
176
     0
 90
       50
176
     0
290
     0
176
     0
 90
       50
176
     0
 62
   256
176
     0
 40
1.0
176
     0
 90
        2
176
     0
  1
strokes_ogs.tif
176
     0
290
     0
176
     0
 40
1.0
176
     0
 40
1.0
176
     0
  0
VISUALSTYLE
  5
33
102
{ACAD_REACTORS
330
2A
102
}
330
2A
100
AcDbVisualStyle
  2
Realistic
 70
     8
177
     3
291
     0
 70
    58
 90
        2
176
     1
 90
        3
176
     1
 90
        0
176
     1
 90
        2
176
     1
 40
0.6
176
     1
 40
30.0
176
     1
 62
     7
420
 16777215
176
     1
 90
        0
176
     1
 90
        0
176
     1
 62
     7
176
     1
 62
   257
176
     1
 90
        1
176
     1
 90
        1
176
     1
 40
1.0
176
     1
 90
        8
176
     1
 62
   257
176
     1
 40
1.0
176
     1
 90
        1
176
     1
 90
        6
176
     1
 90
        2
176
     1
 62
     7
176
     1
 90
        3
176
     1
 90
        0
176
     1
 90
        0
176
     1
290
     0
176
     1
 90
       13
176
     1
 40
0.0
176
     1
 90
        0
176
     1
290
     0
176
     1
290
     1
176
     1
290
     1
176
     1
290
     0
176
     1
290
     0
176
     1
290
     0
176
     1
290
     0
176
     1
290
     0
176
     1
290
     0
176
     1
 90
       50
176
     1
 40
0.0
176
     1
 40
1.0
176
     1
 90
        0
176
     1
 62
   178
420
        0
176
     1
 90
       50
176
     1
 90
        3
176
     1
 62
     5
420
      255
176
     1
290
     0
176
     1
 90
       50
176
     1
 90
       50
176
     1
 90
       50
176
     1
290
     0
176
     1
 90
       50
176
     1
 62
   256
176
     0
 40
1.0
176
     0
 90
        2
176
     1
  1
strokes_ogs.tif
176
     1
290
     0
176
     1
 40
1.0
176
     1
 40
1.0
176
     1
  0
VISUALSTYLE
  5
42
102
{ACAD_REACTORS
330
2A
102
}
330
2A
100
AcDbVisualStyle
  2
Shaded
 70
    27
177
     3
291
     0
 70
    58
 90
        2
176
     1
 90
        2
176
     1
 90
        1
176
     1
 90
        2
176
     1
 40
0.6
176
     1
 40
30.0
176
     1
 62
     7
420
 16777215
176
     1
 90
        0
176
     1
 90
        4
176
     1
 62
     7
176
     1
 62
   257
176
     1
 90
        1
176
     1
 90
        1
176
     1
 40
1.0
176
     1
 90
        8
176
     1
 62
   257
176
     1
 40
1.0
176
     1
 90
        1
176
     1
 90
        6
176
     1
 90
        2
176
     1
 62
     8
420
  7895160
176
     1
 90
        3
176
     1
 90
        0
176
     1
 90
        0
176
     1
290
     0
176
     1
 90
        5
176
     1
 40
0.0
176
     1
 90
        0
176
     1
290
     0
176
     1
290
     1
176
     1
290
     1
176
     1
290
     0
176
     1
290
     0
176
     1
290
     0
176
     1
290
     0
176
     1
290
     0
176
     1
290
     0
176
     1
 90
       50
176
     1
 40
0.0
176
     1
 40
1.0
176
     1
 90
        0
176
     1
 62
   178
420
        0
176
     1
 90
       50
176
     1
 90
        3
176
     1
 62
     5
420
      255
176
     1
290
     0
176
     1
 90
       50
176
     1
 90
       50
176
     1
 90
       50
176
     1
290
     0
176
     1
 90
       50
176
     1
 62
   256
176
     0
 40
1.0
176
     0
 90
        2
176
     1
  1
strokes_ogs.tif
176
     1
290
     0
176
     1
 40
1.0
176
     1
 40
1.0
176
     1
  0
VISUALSTYLE
  5
41
102
{ACAD_REACTORS
330
2A
102
}
330
2A
100
AcDbVisualStyle
  2
Shaded with edges
 70
    26
177
     3
291
     0
 70
    58
 90
        2
176
     1
 90
        2
176
     1
 90
        1
176
     1
 90
        2
176
     1
 40
0.6
176
     1
 40
30.0
176
     1
 62
     7
420
 16777215
176
     1
 90
        1
176
     1
 90
       10
176
     1
 62
     7
176
     1
 62
   257
176
     1
 90
        2
176
     1
 90
        1
176
     1
 40
1.0
176
     1
 90
        8
176
     1
 62
   257
176
     1
 40
1.0
176
     1
 90
        1
176
     1
 90
        6
176
     1
 90
        2
176
     1
 62
     7
176
     1
 90
        3
176
     1
 90
        0
176
     1
 90
        0
176
     1
290
     0
176
     1
 90
        5
176
     1
 40
0.0
176
     1
 90
        0
176
     1
290
     0
176
     1
290
     1
176
     1
290
     1
176
     1
290
     0
176
     1
290
     0
176
     1
290
     0
176
     1
290
     0
176
     1
290
     0
176
     1
290
     0
176
     1
 90
       50
176
     1
 40
0.0
176
     1
 40
1.0
176
     1
 90
        0
176
     1
 62
   178
420
        0
176
     1
 90
       50
176
     1
 90
        3
176
     1
 62
     5
420
      255
176
     1
290
     0
176
     1
 90
       50
176
     1
 90
       50
176
     1
 90
       50
176
     1
290
     0
176
     1
 90
       50
176
     1
 62
   256
176
     0
 40
1.0
176
     0
 90
        2
176
     1
  1
strokes_ogs.tif
176
     1
290
     0
176
     1
 40
1.0
176
     1
 40
1.0
176
     1
  0
VISUALSTYLE
  5
3E
102
{ACAD_REACTORS
330
2A
102
}
330
2A
100
AcDbVisualStyle
  2
Shades of Gray
 70
    23
177
     3
291
     0
 70
    58
 90
        2
176
     1
 90
        2
176
     1
 90
        3
176
     1
 90
        0
176
     1
 40
0.6
176
     1
 40
30.0
176
     1
 62
     7
420
 16777215
176
     1
 90
        2
176
     1
 90
        2
176
     1
 62
     7
176
     1
 62
     7
176
     1
 90
        1
176
     1
 90
        1
176
     1
 40
40.0
176
     1
 90
        8
176
     1
 62
     7
176
     1
 40
1.0
176
     1
 90
        1
176
     1
 90
        6
176
     1
 90
        2
176
     1
 62
     7
176
     1
 90
        3
176
     1
 90
        0
176
     1
 90
        0
176
     1
290
     0
176
     1
 90
        1
176
     1
 40
0.0
176
     1
 90
        0
176
     1
290
     0
176
     1
290
     1
176
     1
290
     1
176
     1
290
     0
176
     1
290
     0
176
     1
290
     0
176
     1
290
     0
176
     1
290
     0
176
     1
290
     0
176
     1
 90
       50
176
     1
 40
0.0
176
     1
 40
1.0
176
     1
 90
        0
176
     1
 62
   178
420
        0
176
     1
 90
       50
176
     1
 90
        3
176
     1
 62
     5
420
      255
176
     1
290
     0
176
     1
 90
       50
176
     1
 90
       50
176
     1
 90
       50
176
     1
290
     0
176
     1
 90
       50
176
     1
 62
   256
176
     0
 40
1.0
176
     0
 90
        2
176
     1
  1
strokes_ogs.tif
176
     1
290
     0
176
     1
 40
1.0
176
     1
 40
1.0
176
     1
  0
VISUALSTYLE
  5
3F
102
{ACAD_REACTORS
330
2A
102
}
330
2A
100
AcDbVisualStyle
  2
Sketchy
 70
    24
177
     3
291
     0
 70
    58
 90
        1
176
     1
 90
        2
176
     1
 90
        2
176
     1
 90
        0
176
     1
 40
0.6
176
     1
 40
30.0
176
     1
 62
     7
420
 16777215
176
     1
 90
        2
176
     1
 90
        2
176
     1
 62
     7
176
     1
 62
     7
176
     1
 90
        1
176
     1
 90
        1
176
     1
 40
40.0
176
     1
 90
       11
176
     1
 62
     7
176
     1
 40
1.0
176
     1
 90
        1
176
     1
 90
        6
176
     1
 90
        2
176
     1
 62
     7
176
     1
 90
        6
176
     1
 90
        0
176
     1
 90
        0
176
     1
290
     0
176
     1
 90
        1
176
     1
 40
0.0
176
     1
 90
        0
176
     1
290
     0
176
     1
290
     1
176
     1
290
     1
176
     1
290
     0
176
     1
290
     0
176
     1
290
     0
176
     1
290
     0
176
     1
290
     0
176
     1
290
     0
176
     1
 90
       50
176
     1
 40
0.0
176
     1
 40
1.0
176
     1
 90
        0
176
     1
 62
   178
420
        0
176
     1
 90
       50
176
     1
 90
        3
176
     1
 62
     5
420
      255
176
     1
290
     0
176
     1
 90
       50
176
     1
 90
       50
176
     1
 90
       50
176
     1
290
     0
176
     1
 90
       50
176
     1
 62
   256
176
     0
 40
1.0
176
     0
 90
        2
176
     1
  1
strokes_ogs.tif
176
     1
290
     0
176
     1
 40
1.0
176
     1
 40
1.0
176
     1
  0
VISUALSTYLE
  5
37
102
{ACAD_REACTORS
330
2A
102
}
330
2A
100
AcDbVisualStyle
  2
Thicken
 70
    13
177
     3
291
     1
 70
    58
 90
        2
176
     1
 90
        2
176
     1
 90
        0
176
     1
 90
        0
176
     1
 40
0.6
176
     1
 40
30.0
176
     1
 62
     7
420
 16777215
176
     1
 90
        1
176
     1
 90
        4
176
     1
 62
     7
176
     1
 62
   257
176
     1
 90
        1
176
     1
 90
        1
176
     1
 40
1.0
176
     1
 90
       12
176
     1
 62
     7
176
     1
 40
1.0
176
     1
 90
        1
176
     1
 90
        6
176
     1
 90
        2
176
     1
 62
     7
176
     1
 90
        5
176
     1
 90
        0
176
     1
 90
        0
176
     1
290
     0
176
     1
 90
        1
176
     1
 40
0.0
176
     1
 90
        0
176
     1
290
     0
176
     1
290
     1
176
     1
290
     1
176
     1
290
     0
176
     1
290
     0
176
     1
290
     0
176
     1
290
     0
176
     1
290
     0
176
     1
290
     0
176
     1
 90
       50
176
     1
 40
0.0
176
     1
 40
1.0
176
     1
 90
        0
176
     1
 62
   178
420
        0
176
     1
 90
       50
176
     1
 90
        3
176
     1
 62
     5
420
      255
176
     1
290
     0
176
     1
 90
       50
176
     1
 90
       50
176
     1
 90
       50
176
     1
290
     0
176
     1
 90
       50
176
     1
 62
   256
176
     0
 40
1.0
176
     0
 90
        2
176
     1
  1
strokes_ogs.tif
176
     1
290
     0
176
     1
 40
1.0
176
     1
 40
1.0
176
     1
  0
VISUALSTYLE
  5
30
102
{ACAD_REACTORS
330
2A
102
}
330
2A
100
AcDbVisualStyle
  2
Wireframe
 70
     5
177
     3
291
     0
 70
    58
 90
        0
176
     1
 90
        2
176
     1
 90
        0
176
     1
 90
        0
176
     1
 40
0.6
176
     1
 40
30.0
176
     1
 62
     7
420
 16777215
176
     1
 90
        1
176
     1
 90
        4
176
     1
 62
     7
176
     1
 62
   257
176
     1
 90
        1
176
     1
 90
        1
176
     1
 40
1.0
176
     1
 90
        0
176
     1
 62
   257
176
     1
 40
1.0
176
     1
 90
        1
176
     1
 90
        6
176
     1
 90
        2
176
     1
 62
     7
176
     1
 90
        3
176
     1
 90
        0
176
     1
 90
        0
176
     1
290
     0
176
     1
 90
        1
176
     1
 40
0.0
176
     1
 90
        0
176
     1
290
     0
176
     1
290
     1
176
     1
290
     1
176
     1
290
     0
176
     1
290
     0
176
     1
290
     0
176
     1
290
     0
176
     1
290
     0
176
     1
290
     0
176
     1
 90
       50
176
     1
 40
0.0
176
     1
 40
1.0
176
     1
 90
        0
176
     1
 62
   178
420
        0
176
     1
 90
       50
176
     1
 90
        3
176
     1
 62
     5
420
      255
176
     1
290
     0
176
     1
 90
       50
176
     1
 90
       50
176
     1
 90
       50
176
     1
290
     0
176
     1
 90
       50
176
     1
 62
   256
176
     0
 40
1.0
176
     0
 90
        2
176
     1
  1
strokes_ogs.tif
176
     1
290
     0
176
     1
 40
1.0
176
     1
 40
1.0
176
     1
  0
VISUALSTYLE
  5
40
102
{ACAD_REACTORS
330
2A
102
}
330
2A
100
AcDbVisualStyle
  2
X-Ray
 70
    25
177
     3
291
     0
 70
    58
 90
        2
176
     1
 90
        2
176
     1
 90
        1
176
     1
 90
        1
176
     1
 40
0.5
176
     1
 40
30.0
176
     1
 62
     7
420
 16777215
176
     1
 90
        1
176
     1
 90
        0
176
     1
 62
     7
176
     1
 62
   257
176
     1
 90
        1
176
     1
 90
        1
176
     1
 40
1.0
176
     1
 90
        8
176
     1
 62
     7
176
     1
 40
1.0
176
     1
 90
        1
176
     1
 90
        6
176
     1
 90
        2
176
     1
 62
     7
176
     1
 90
        3
176
     1
 90
        0
176
     1
 90
        0
176
     1
290
     0
176
     1
 90
       13
176
     1
 40
0.0
176
     1
 90
        0
176
     1
290
     0
176
     1
290
     1
176
     1
290
     1
176
     1
290
     0
176
     1
290
     0
176
     1
290
     0
176
     1
290
     0
176
     1
290
     0
176
     1
290
     0
176
     1
 90
       50
176
     1
 40
0.0
176
     1
 40
1.0
176
     1
 90
        0
176
     1
 62
   178
420
        0
176
     1
 90
       50
176
     1
 90
        3
176
     1
 62
     5
420
      255
176
     1
290
     0
176
     1
 90
       50
176
     1
 90
       50
176
     1
 90
       50
176
     1
290
     0
176
     1
 90
       50
176
     1
 62
   256
176
     0
 40
1.0
176
     0
 90
        2
176
     1
  1
strokes_ogs.tif
176
     1
290
     0
176
     1
 40
1.0
176
     1
 40
1.0
176
     1
  0
DICTIONARYVAR
  5
1F7
102
{ACAD_REACTORS
330
1F6
102
}
330
1F6
100
DictionaryVariables
280
     0
  1
1:1
  0
DICTIONARYVAR
  5
1FC
102
{ACAD_REACTORS
330
1F6
102
}
330
1F6
100
DictionaryVariables
280
     0
  1
Standard
  0
DICTIONARYVAR
  5
1FB
102
{ACAD_REACTORS
330
1F6
102
}
330
1F6
100
DictionaryVariables
280
     0
  1
Standard
  0
DICTIONARY
  5
1F8
330
6A
100
AcDbDictionary
280
     1
281
     1
  3
ACAD_ROUNDTRIP_2008_TABLESTYLE_CELLSTYLEMAP
360
1F9
  0
CELLSTYLEMAP
  5
1F9
102
{ACAD_REACTORS
330
1F8
102
}
330
1F8
100
AcDbCellStyleMap
 90
        3
300
CELLSTYLE
  1
TABLEFORMAT_BEGIN
 90
        5
170
     1
 91
        0
 92
    32768
 62
   257
 93
        1
300
CONTENTFORMAT
  1
CONTENTFORMAT_BEGIN
 90
        0
 91
        0
 92
        4
 93
        0
300

 40
0.0
140
1.0
 94
        5
 62
     0
340
11
144
0.25
309
CONTENTFORMAT_END
171
     1
301
MARGIN
  1
CELLMARGIN_BEGIN
 40
0.06
 40
0.06
 40
0.06
 40
0.06
 40
0.06
 40
0.06
309
CELLMARGIN_END
 94
        6
 95
        1
302
GRIDFORMAT
  1
GRIDFORMAT_BEGIN
 90
        0
 91
        1
 62
     0
 92
       -2
340
14
 93
        0
 40
0.045
309
GRIDFORMAT_END
 95
        2
302
GRIDFORMAT
  1
GRIDFORMAT_BEGIN
 90
        0
 91
        1
 62
     0
 92
       -2
340
14
 93
        0
 40
0.045
309
GRIDFORMAT_END
 95
        4
302
GRIDFORMAT
  1
GRIDFORMAT_BEGIN
 90
        0
 91
        1
 62
     0
 92
       -2
340
14
 93
        0
 40
0.045
309
GRIDFORMAT_END
 95
        8
302
GRIDFORMAT
  1
GRIDFORMAT_BEGIN
 90
        0
 91
        1
 62
     0
 92
       -2
340
14
 93
        0
 40
0.045
309
GRIDFORMAT_END
 95
       16
302
GRIDFORMAT
  1
GRIDFORMAT_BEGIN
 90
        0
 91
        1
 62
     0
 92
       -2
340
14
 93
        0
 40
0.045
309
GRIDFORMAT_END
 95
       32
302
GRIDFORMAT
  1
GRIDFORMAT_BEGIN
 90
        0
 91
        1
 62
     0
 92
       -2
340
14
 93
        0
 40
0.045
309
GRIDFORMAT_END
309
TABLEFORMAT_END
  1
CELLSTYLE_BEGIN
 90
        1
 91
        1
300
_TITLE
309
CELLSTYLE_END
300
CELLSTYLE
  1
TABLEFORMAT_BEGIN
 90
        5
170
     1
 91
        0
 92
        0
 62
   257
 93
        1
300
CONTENTFORMAT
  1
CONTENTFORMAT_BEGIN
 90
        0
 91
        0
 92
        4
 93
        0
300

 40
0.0
140
1.0
 94
        5
 62
     0
340
11
144
0.18
309
CONTENTFORMAT_END
171
     1
301
MARGIN
  1
CELLMARGIN_BEGIN
 40
0.06
 40
0.06
 40
0.06
 40
0.06
 40
0.06
 40
0.06
309
CELLMARGIN_END
 94
        6
 95
        1
302
GRIDFORMAT
  1
GRIDFORMAT_BEGIN
 90
        0
 91
        1
 62
     0
 92
       -2
340
14
 93
        0
 40
0.045
309
GRIDFORMAT_END
 95
        2
302
GRIDFORMAT
  1
GRIDFORMAT_BEGIN
 90
        0
 91
        1
 62
     0
 92
       -2
340
14
 93
        0
 40
0.045
309
GRIDFORMAT_END
 95
        4
302
GRIDFORMAT
  1
GRIDFORMAT_BEGIN
 90
        0
 91
        1
 62
     0
 92
       -2
340
14
 93
        0
 40
0.045
309
GRIDFORMAT_END
 95
        8
302
GRIDFORMAT
  1
GRIDFORMAT_BEGIN
 90
        0
 91
        1
 62
     0
 92
       -2
340
14
 93
        0
 40
0.045
309
GRIDFORMAT_END
 95
       16
302
GRIDFORMAT
  1
GRIDFORMAT_BEGIN
 90
        0
 91
        1
 62
     0
 92
       -2
340
14
 93
        0
 40
0.045
309
GRIDFORMAT_END
 95
       32
302
GRIDFORMAT
  1
GRIDFORMAT_BEGIN
 90
        0
 91
        1
 62
     0
 92
       -2
340
14
 93
        0
 40
0.045
309
GRIDFORMAT_END
309
TABLEFORMAT_END
  1
CELLSTYLE_BEGIN
 90
        2
 91
        1
300
_HEADER
309
CELLSTYLE_END
300
CELLSTYLE
  1
TABLEFORMAT_BEGIN
 90
        5
170
     1
 91
        0
 92
        0
 62
   257
 93
        1
300
CONTENTFORMAT
  1
CONTENTFORMAT_BEGIN
 90
        0
 91
        0
 92
        4
 93
        0
300

 40
0.0
140
1.0
 94
        2
 62
     0
340
11
144
0.18
309
CONTENTFORMAT_END
171
     1
301
MARGIN
  1
CELLMARGIN_BEGIN
 40
0.06
 40
0.06
 40
0.06
 40
0.06
 40
0.06
 40
0.06
309
CELLMARGIN_END
 94
        6
 95
        1
302
GRIDFORMAT
  1
GRIDFORMAT_BEGIN
 90
        0
 91
        1
 62
     0
 92
       -2
340
14
 93
        0
 40
0.045
309
GRIDFORMAT_END
 95
        2
302
GRIDFORMAT
  1
GRIDFORMAT_BEGIN
 90
        0
 91
        1
 62
     0
 92
       -2
340
14
 93
        0
 40
0.045
309
GRIDFORMAT_END
 95
        4
302
GRIDFORMAT
  1
GRIDFORMAT_BEGIN
 90
        0
 91
        1
 62
     0
 92
       -2
340
14
 93
        0
 40
0.045
309
GRIDFORMAT_END
 95
        8
302
GRIDFORMAT
  1
GRIDFORMAT_BEGIN
 90
        0
 91
        1
 62
     0
 92
       -2
340
14
 93
        0
 40
0.045
309
GRIDFORMAT_END
 95
       16
302
GRIDFORMAT
  1
GRIDFORMAT_BEGIN
 90
        0
 91
        1
 62
     0
 92
       -2
340
14
 93
        0
 40
0.045
309
GRIDFORMAT_END
 95
       32
302
GRIDFORMAT
  1
GRIDFORMAT_BEGIN
 90
        0
 91
        1
 62
     0
 92
       -2
340
14
 93
        0
 40
0.045
309
GRIDFORMAT_END
309
TABLEFORMAT_END
  1
CELLSTYLE_BEGIN
 90
        3
 91
        2
300
_DATA
309
CELLSTYLE_END
  0
ENDSEC
  0
EOF
