solid Mesh
  facet normal -0.45532727 -0.8903241 3.756199E-5
    outer loop
      vertex 392486.839311538 5818695.47843529 40.3589127299967
      vertex 392465.175885868 5818706.55751367 40.9446802768662
      vertex 392457.954735415 5818710.2505277 40.7494244279097
    endloop
  endfacet
  facet normal 0.45771712 0.88909787 -3.757617E-5
    outer loop
      vertex 392446.920484438 5818688.67339394 40.7494244279097
      vertex 392454.131375445 5818684.96115824 40.9446802768662
      vertex 392475.764022778 5818673.82441486 40.3589127299967
    endloop
  endfacet
  facet normal -0.4552851 -0.8903457 3.7872047E-5
    outer loop
      vertex 392460.745077587 5818715.70695585 40.7494244279097
      vertex 392446.302266691 5818723.09240597 40.9446802768662
      vertex 392446.302254165 5818723.09238746 40.3589127299967
    endloop
  endfacet
  facet normal -0.45526963 -0.8903536 3.7405265E-5
    outer loop
      vertex 392473.126153525 5818668.66694401 40.3589127299967
      vertex 392451.463278025 5818679.74397096 40.9446802768662
      vertex 392429.800376514 5818690.82096199 40.3589127299967
    endloop
  endfacet
  facet normal -0.45771712 -0.88909787 3.7883554E-5
    outer loop
      vertex 392446.920484438 5818688.67339394 40.7494244279097
      vertex 392432.498714633 5818696.09788423 40.9446802768662
      vertex 392432.498702107 5818696.09786572 40.3589127299967
    endloop
  endfacet
  facet normal 0.4553273 0.8903241 -3.786936E-5
    outer loop
      vertex 392443.512434189 5818717.63655614 40.3589127299967
      vertex 392443.512446714 5818717.63657465 40.9446802768662
      vertex 392457.954735415 5818710.2505277 40.7494244279097
    endloop
  endfacet
  facet normal -0.45532727 -0.8903241 3.785624E-5
    outer loop
      vertex 392489.907597642 5818693.90926035 40.3589127299967
      vertex 392488.373467118 5818694.69386632 40.9446802768662
      vertex 392486.839311538 5818695.47843529 40.3589127299967
    endloop
  endfacet
  facet normal 0.45528507 0.8903457 -3.7542726E-5
    outer loop
      vertex 392460.745077587 5818715.70695585 40.7494244279097
      vertex 392467.966489139 5818712.01424022 40.9446802768662
      vertex 392489.6306981 5818700.93605707 40.3589127299967
    endloop
  endfacet
  facet normal 0.14654727 0.28658473 0.9467804
    outer loop
      vertex 392489.6306981 5818700.93605707 40.3589127299967
      vertex 392490.380143586 5818698.61764174 40.9446802768662
      vertex 392492.698617084 5818699.36725338 40.3589127299967
    endloop
  endfacet
  facet normal -0.4552696 -0.8903536 3.786454E-5
    outer loop
      vertex 392474.562869936 5818663.90185154 34.6199989318848
      vertex 392474.562992656 5818663.90203285 40.3589127299967
      vertex 392471.492177418 5818665.47225029 40.3589127299967
    endloop
  endfacet
  facet normal -0.4552696 -0.8903536 3.786454E-5
    outer loop
      vertex 392474.562869936 5818663.90185154 34.6199989318848
      vertex 392471.492177418 5818665.47225029 40.3589127299967
      vertex 392471.492054698 5818665.47206898 34.6199989318848
    endloop
  endfacet
  facet normal -0.8903498 0.45527714 4.6539217E-6
    outer loop
      vertex 392429.8002538 5818690.82078067 34.6199989318848
      vertex 392429.800376514 5818690.82096199 40.3589127299967
      vertex 392432.498702107 5818696.09786572 40.3589127299967
    endloop
  endfacet
  facet normal -0.8903498 0.45527714 4.653812E-6
    outer loop
      vertex 392429.8002538 5818690.82078067 34.6199989318848
      vertex 392432.498702107 5818696.09786572 40.3589127299967
      vertex 392432.498579392 5818696.0976844 34.6199989318848
    endloop
  endfacet
  facet normal 0.89034355 -0.4552893 -4.6547625E-6
    outer loop
      vertex 392476.196587582 5818667.09667739 34.6199989318848
      vertex 392476.196710302 5818667.0968587 40.3589127299967
      vertex 392474.562992656 5818663.90203285 40.3589127299967
    endloop
  endfacet
  facet normal 0.89034355 -0.4552893 -4.6549435E-6
    outer loop
      vertex 392476.196587582 5818667.09667739 34.6199989318848
      vertex 392474.562992656 5818663.90203285 40.3589127299967
      vertex 392474.562869936 5818663.90185154 34.6199989318848
    endloop
  endfacet
  facet normal -0.8903067 0.4553613 4.651868E-6
    outer loop
      vertex 392471.492054698 5818665.47206898 34.6199989318848
      vertex 392471.492177418 5818665.47225029 40.3589127299967
      vertex 392473.126153525 5818668.66694401 40.3589127299967
    endloop
  endfacet
  facet normal -0.8903067 0.4553613 4.651868E-6
    outer loop
      vertex 392471.492054698 5818665.47206898 34.6199989318848
      vertex 392473.126153525 5818668.66694401 40.3589127299967
      vertex 392473.126030806 5818668.6667627 34.6199989318848
    endloop
  endfacet
  facet normal 0.45526963 0.8903536 -3.7865586E-5
    outer loop
      vertex 392429.8002538 5818690.82078067 34.6199989318848
      vertex 392429.800376514 5818690.82096199 40.3589127299967
      vertex 392473.126153525 5818668.66694401 40.3589127299967
    endloop
  endfacet
  facet normal 0.45526963 0.8903536 -3.7864305E-5
    outer loop
      vertex 392429.8002538 5818690.82078067 34.6199989318848
      vertex 392473.126153525 5818668.66694401 40.3589127299967
      vertex 392473.126030806 5818668.6667627 34.6199989318848
    endloop
  endfacet
  facet normal -0.8903498 0.45527712 4.6536766E-6
    outer loop
      vertex 392428.166579628 5818687.62593215 34.6199989318848
      vertex 392428.166702342 5818687.62611347 40.3589127299967
      vertex 392429.800376514 5818690.82096199 40.3589127299967
    endloop
  endfacet
  facet normal -0.8903498 0.45527712 4.6538576E-6
    outer loop
      vertex 392428.166579628 5818687.62593215 34.6199989318848
      vertex 392429.800376514 5818690.82096199 40.3589127299967
      vertex 392429.8002538 5818690.82078067 34.6199989318848
    endloop
  endfacet
  facet normal 0.8903067 -0.4553613 -4.651868E-6
    outer loop
      vertex 392473.126030806 5818668.6667627 34.6199989318848
      vertex 392473.126153525 5818668.66694401 40.3589127299967
      vertex 392471.492177418 5818665.47225029 40.3589127299967
    endloop
  endfacet
  facet normal 0.8903067 -0.4553613 -4.651868E-6
    outer loop
      vertex 392473.126030806 5818668.6667627 34.6199989318848
      vertex 392471.492177418 5818665.47225029 40.3589127299967
      vertex 392471.492054698 5818665.47206898 34.6199989318848
    endloop
  endfacet
  facet normal 0.8903067 -0.4553614 -4.6513214E-6
    outer loop
      vertex 392492.410027958 5818706.37016446 34.6199989318848
      vertex 392492.41015068 5818706.37034578 40.3589127299967
      vertex 392489.6306981 5818700.93605707 40.3589127299967
    endloop
  endfacet
  facet normal 0.8903067 -0.4553614 -4.6511086E-6
    outer loop
      vertex 392492.410027958 5818706.37016446 34.6199989318848
      vertex 392489.6306981 5818700.93605707 40.3589127299967
      vertex 392489.630575379 5818700.93587575 34.6199989318848
    endloop
  endfacet
  facet normal 0.89034355 -0.45528933 -4.6543273E-6
    outer loop
      vertex 392493.604702919 5818692.01825226 34.6199989318848
      vertex 392493.604825641 5818692.01843358 40.3589127299967
      vertex 392485.252281392 5818675.68456971 40.3589127299967
    endloop
  endfacet
  facet normal 0.89034355 -0.45528933 -4.6543273E-6
    outer loop
      vertex 392493.604702919 5818692.01825226 34.6199989318848
      vertex 392485.252281392 5818675.68456971 40.3589127299967
      vertex 392485.252158671 5818675.68438839 34.6199989318848
    endloop
  endfacet
  facet normal -0.89034975 0.45527717 4.6538707E-6
    outer loop
      vertex 392435.159989332 5818701.30239493 34.6199989318848
      vertex 392435.160124573 5818701.30259476 40.9446802768662
      vertex 392443.512446714 5818717.63657465 40.9446802768662
    endloop
  endfacet
  facet normal -0.89034975 0.45527717 4.653999E-6
    outer loop
      vertex 392435.159989332 5818701.30239493 34.6199989318848
      vertex 392443.512446714 5818717.63657465 40.9446802768662
      vertex 392443.512311472 5818717.63637482 34.6199989318848
    endloop
  endfacet
  facet normal 0.45532727 0.8903241 -3.7866517E-5
    outer loop
      vertex 392489.907474921 5818693.90907903 34.6199989318848
      vertex 392489.907597642 5818693.90926035 40.3589127299967
      vertex 392493.604825641 5818692.01843358 40.3589127299967
    endloop
  endfacet
  facet normal 0.45532727 0.8903241 -3.7866204E-5
    outer loop
      vertex 392489.907474921 5818693.90907903 34.6199989318848
      vertex 392493.604825641 5818692.01843358 40.3589127299967
      vertex 392493.604702919 5818692.01825226 34.6199989318848
    endloop
  endfacet
  facet normal 0.89034355 -0.4552893 -4.6541154E-6
    outer loop
      vertex 392478.829720929 5818672.24591618 34.6199989318848
      vertex 392478.829843649 5818672.2460975 40.3589127299967
      vertex 392476.196710302 5818667.0968587 40.3589127299967
    endloop
  endfacet
  facet normal 0.89034355 -0.4552893 -4.6550135E-6
    outer loop
      vertex 392478.829720929 5818672.24591618 34.6199989318848
      vertex 392476.196710302 5818667.0968587 40.3589127299967
      vertex 392476.196587582 5818667.09667739 34.6199989318848
    endloop
  endfacet
  facet normal 0.45532727 0.8903241 -3.7865746E-5
    outer loop
      vertex 392431.617297419 5818703.11418931 34.6199989318848
      vertex 392431.617420134 5818703.11437063 40.3589127299967
      vertex 392435.160124573 5818701.30259476 40.9446802768662
    endloop
  endfacet
  facet normal 0.45532727 0.8903241 -3.7866375E-5
    outer loop
      vertex 392431.617297419 5818703.11418931 34.6199989318848
      vertex 392435.160124573 5818701.30259476 40.9446802768662
      vertex 392435.159989332 5818701.30239493 34.6199989318848
    endloop
  endfacet
  facet normal -0.45771715 -0.88909787 3.7878373E-5
    outer loop
      vertex 392432.498579392 5818696.0976844 34.6199989318848
      vertex 392432.498714633 5818696.09788423 40.9446802768662
      vertex 392428.960876323 5818697.91917646 40.3589127299967
    endloop
  endfacet
  facet normal -0.45771715 -0.88909787 3.7878002E-5
    outer loop
      vertex 392432.498579392 5818696.0976844 34.6199989318848
      vertex 392428.960876323 5818697.91917646 40.3589127299967
      vertex 392428.960753609 5818697.91899514 34.6199989318848
    endloop
  endfacet
  facet normal 0.45528504 0.89034575 -3.786604E-5
    outer loop
      vertex 392489.630575379 5818700.93587575 34.6199989318848
      vertex 392489.6306981 5818700.93605707 40.3589127299967
      vertex 392492.698617084 5818699.36725338 40.3589127299967
    endloop
  endfacet
  facet normal 0.45528504 0.89034575 -3.786604E-5
    outer loop
      vertex 392489.630575379 5818700.93587575 34.6199989318848
      vertex 392492.698617084 5818699.36725338 40.3589127299967
      vertex 392492.698494362 5818699.36707206 34.6199989318848
    endloop
  endfacet
  facet normal 0.89034355 -0.4552893 -4.6544433E-6
    outer loop
      vertex 392485.252158671 5818675.68438839 34.6199989318848
      vertex 392485.252281392 5818675.68456971 40.3589127299967
      vertex 392482.52199327 5818670.34533943 40.3589127299967
    endloop
  endfacet
  facet normal 0.89034355 -0.4552893 -4.654227E-6
    outer loop
      vertex 392485.252158671 5818675.68438839 34.6199989318848
      vertex 392482.52199327 5818670.34533943 40.3589127299967
      vertex 392482.521870549 5818670.34515811 34.6199989318848
    endloop
  endfacet
  facet normal 0.4552851 0.8903457 -3.7866317E-5
    outer loop
      vertex 392449.081070428 5818728.52675818 34.6199989318848
      vertex 392449.08120567 5818728.52695801 40.9446802768662
      vertex 392492.41015068 5818706.37034578 40.3589127299967
    endloop
  endfacet
  facet normal 0.4552851 0.8903457 -3.7865884E-5
    outer loop
      vertex 392449.081070428 5818728.52675818 34.6199989318848
      vertex 392492.41015068 5818706.37034578 40.3589127299967
      vertex 392492.410027958 5818706.37016446 34.6199989318848
    endloop
  endfacet
  facet normal -0.8903067 0.4553613 4.6516493E-6
    outer loop
      vertex 392473.126030806 5818668.6667627 34.6199989318848
      vertex 392473.126153525 5818668.66694401 40.3589127299967
      vertex 392475.764022778 5818673.82441486 40.3589127299967
    endloop
  endfacet
  facet normal -0.8903067 0.45536134 4.651201E-6
    outer loop
      vertex 392473.126030806 5818668.6667627 34.6199989318848
      vertex 392475.764022778 5818673.82441486 40.3589127299967
      vertex 392475.763900058 5818673.82423354 34.6199989318848
    endloop
  endfacet
  facet normal 0.89034355 -0.4552893 -4.6545542E-6
    outer loop
      vertex 392482.521870549 5818670.34515811 34.6199989318848
      vertex 392482.52199327 5818670.34533943 40.3589127299967
      vertex 392479.894060893 5818665.20627135 40.3589127299967
    endloop
  endfacet
  facet normal 0.89034355 -0.4552893 -4.6550044E-6
    outer loop
      vertex 392482.521870549 5818670.34515811 34.6199989318848
      vertex 392479.894060893 5818665.20627135 40.3589127299967
      vertex 392479.893938172 5818665.20609004 34.6199989318848
    endloop
  endfacet
  facet normal -0.89034975 0.45527717 4.654154E-6
    outer loop
      vertex 392443.512311472 5818717.63637482 34.6199989318848
      vertex 392443.512434189 5818717.63655614 40.3589127299967
      vertex 392446.302254165 5818723.09238746 40.3589127299967
    endloop
  endfacet
  facet normal -0.89034975 0.45527717 4.654048E-6
    outer loop
      vertex 392443.512311472 5818717.63637482 34.6199989318848
      vertex 392446.302254165 5818723.09238746 40.3589127299967
      vertex 392446.302131448 5818723.09220614 34.6199989318848
    endloop
  endfacet
  facet normal -0.89034975 0.45527714 4.653806E-6
    outer loop
      vertex 392428.960753609 5818697.91899514 34.6199989318848
      vertex 392428.960876323 5818697.91917646 40.3589127299967
      vertex 392431.617420134 5818703.11437063 40.3589127299967
    endloop
  endfacet
  facet normal -0.89034975 0.45527714 4.6539176E-6
    outer loop
      vertex 392428.960753609 5818697.91899514 34.6199989318848
      vertex 392431.617420134 5818703.11437063 40.3589127299967
      vertex 392431.617297419 5818703.11418931 34.6199989318848
    endloop
  endfacet
  facet normal -0.4552696 -0.8903536 3.7864327E-5
    outer loop
      vertex 392479.893938172 5818665.20609004 34.6199989318848
      vertex 392479.894060893 5818665.20627135 40.3589127299967
      vertex 392476.196710302 5818667.0968587 40.3589127299967
    endloop
  endfacet
  facet normal -0.4552696 -0.8903536 3.7864327E-5
    outer loop
      vertex 392479.893938172 5818665.20609004 34.6199989318848
      vertex 392476.196710302 5818667.0968587 40.3589127299967
      vertex 392476.196587582 5818667.09667739 34.6199989318848
    endloop
  endfacet
  facet normal 0.89034355 -0.45528936 -4.654502E-6
    outer loop
      vertex 392492.698494362 5818699.36707206 34.6199989318848
      vertex 392492.698617084 5818699.36725338 40.3589127299967
      vertex 392489.907597642 5818693.90926035 40.3589127299967
    endloop
  endfacet
  facet normal 0.89034355 -0.45528936 -4.654396E-6
    outer loop
      vertex 392492.698494362 5818699.36707206 34.6199989318848
      vertex 392489.907597642 5818693.90926035 40.3589127299967
      vertex 392489.907474921 5818693.90907903 34.6199989318848
    endloop
  endfacet
  facet normal -0.89034975 0.4552772 4.654099E-6
    outer loop
      vertex 392446.302131448 5818723.09220614 34.6199989318848
      vertex 392446.302266691 5818723.09240597 40.9446802768662
      vertex 392449.08120567 5818728.52695801 40.9446802768662
    endloop
  endfacet
  facet normal -0.89034975 0.4552772 4.653906E-6
    outer loop
      vertex 392446.302131448 5818723.09220614 34.6199989318848
      vertex 392449.08120567 5818728.52695801 40.9446802768662
      vertex 392449.081070428 5818728.52675818 34.6199989318848
    endloop
  endfacet
  facet normal 0.0 0.0 -1.0
    outer loop
      vertex 392432.498579392 5818696.0976844 34.6199989318848
      vertex 392428.960753609 5818697.91899514 34.6199989318848
      vertex 392431.617297419 5818703.11418931 34.6199989318848
    endloop
  endfacet
  facet normal 2.4437627E-15 0.0 -1.0
    outer loop
      vertex 392432.498579392 5818696.0976844 34.6199989318848
      vertex 392431.617297419 5818703.11418931 34.6199989318848
      vertex 392435.159989332 5818701.30239493 34.6199989318848
    endloop
  endfacet
  facet normal 2.6906495E-15 0.0 -1.0
    outer loop
      vertex 392492.698494362 5818699.36707206 34.6199989318848
      vertex 392489.907474921 5818693.90907903 34.6199989318848
      vertex 392486.839188817 5818695.47825397 34.6199989318848
    endloop
  endfacet
  facet normal 0.0 0.0 -1.0
    outer loop
      vertex 392492.698494362 5818699.36707206 34.6199989318848
      vertex 392486.839188817 5818695.47825397 34.6199989318848
      vertex 392489.630575379 5818700.93587575 34.6199989318848
    endloop
  endfacet
  facet normal 0.0 0.0 -1.0
    outer loop
      vertex 392476.196587582 5818667.09667739 34.6199989318848
      vertex 392478.829720929 5818672.24591618 34.6199989318848
      vertex 392482.521870549 5818670.34515811 34.6199989318848
    endloop
  endfacet
  facet normal 0.0 0.0 -1.0
    outer loop
      vertex 392476.196587582 5818667.09667739 34.6199989318848
      vertex 392482.521870549 5818670.34515811 34.6199989318848
      vertex 392479.893938172 5818665.20609004 34.6199989318848
    endloop
  endfacet
  facet normal 0.0 0.0 -1.0
    outer loop
      vertex 392449.081070428 5818728.52675818 34.6199989318848
      vertex 392492.410027958 5818706.37016446 34.6199989318848
      vertex 392489.630575379 5818700.93587575 34.6199989318848
    endloop
  endfacet
  facet normal 3.8273014E-16 0.0 -1.0
    outer loop
      vertex 392449.081070428 5818728.52675818 34.6199989318848
      vertex 392489.630575379 5818700.93587575 34.6199989318848
      vertex 392446.302131448 5818723.09220614 34.6199989318848
    endloop
  endfacet
  facet normal 1.4922816E-15 0.0 -1.0
    outer loop
      vertex 392481.554930521 5818677.57521505 34.6199989318848
      vertex 392489.907474921 5818693.90907903 34.6199989318848
      vertex 392493.604702919 5818692.01825226 34.6199989318848
    endloop
  endfacet
  facet normal 1.1192112E-15 0.0 -1.0
    outer loop
      vertex 392481.554930521 5818677.57521505 34.6199989318848
      vertex 392493.604702919 5818692.01825226 34.6199989318848
      vertex 392485.252158671 5818675.68438839 34.6199989318848
    endloop
  endfacet
  facet normal 7.818195E-16 0.0 -1.0
    outer loop
      vertex 392435.159989332 5818701.30239493 34.6199989318848
      vertex 392478.48532305 5818679.14506562 34.6199989318848
      vertex 392475.763900058 5818673.82423354 34.6199989318848
    endloop
  endfacet
  facet normal -1.9982763E-16 0.0 -1.0
    outer loop
      vertex 392435.159989332 5818701.30239493 34.6199989318848
      vertex 392475.763900058 5818673.82423354 34.6199989318848
      vertex 392432.498579392 5818696.0976844 34.6199989318848
    endloop
  endfacet
  facet normal 0.0 0.0 -1.0
    outer loop
      vertex 392429.8002538 5818690.82078067 34.6199989318848
      vertex 392432.498579392 5818696.0976844 34.6199989318848
      vertex 392475.763900058 5818673.82423354 34.6199989318848
    endloop
  endfacet
  facet normal 0.0 0.0 -1.0
    outer loop
      vertex 392429.8002538 5818690.82078067 34.6199989318848
      vertex 392475.763900058 5818673.82423354 34.6199989318848
      vertex 392473.126030806 5818668.6667627 34.6199989318848
    endloop
  endfacet
  facet normal -1.4228444E-15 0.0 -1.0
    outer loop
      vertex 392473.126030806 5818668.6667627 34.6199989318848
      vertex 392475.763900058 5818673.82423354 34.6199989318848
      vertex 392478.829720929 5818672.24591618 34.6199989318848
    endloop
  endfacet
  facet normal 1.4249847E-15 0.0 -1.0
    outer loop
      vertex 392473.126030806 5818668.6667627 34.6199989318848
      vertex 392478.829720929 5818672.24591618 34.6199989318848
      vertex 392476.196587582 5818667.09667739 34.6199989318848
    endloop
  endfacet
  facet normal 0.0 0.0 -1.0
    outer loop
      vertex 392443.512311472 5818717.63637482 34.6199989318848
      vertex 392486.839188817 5818695.47825397 34.6199989318848
      vertex 392478.48532305 5818679.14506562 34.6199989318848
    endloop
  endfacet
  facet normal -2.5469185E-16 0.0 -1.0
    outer loop
      vertex 392443.512311472 5818717.63637482 34.6199989318848
      vertex 392478.48532305 5818679.14506562 34.6199989318848
      vertex 392435.159989332 5818701.30239493 34.6199989318848
    endloop
  endfacet
  facet normal -7.6247476E-16 0.0 -1.0
    outer loop
      vertex 392443.512311472 5818717.63637482 34.6199989318848
      vertex 392446.302131448 5818723.09220614 34.6199989318848
      vertex 392489.630575379 5818700.93587575 34.6199989318848
    endloop
  endfacet
  facet normal 0.0 0.0 -1.0
    outer loop
      vertex 392443.512311472 5818717.63637482 34.6199989318848
      vertex 392489.630575379 5818700.93587575 34.6199989318848
      vertex 392486.839188817 5818695.47825397 34.6199989318848
    endloop
  endfacet
  facet normal 1.1483546E-15 0.0 -1.0
    outer loop
      vertex 392471.492054698 5818665.47206898 34.6199989318848
      vertex 392473.126030806 5818668.6667627 34.6199989318848
      vertex 392476.196587582 5818667.09667739 34.6199989318848
    endloop
  endfacet
  facet normal 0.0 0.0 -1.0
    outer loop
      vertex 392471.492054698 5818665.47206898 34.6199989318848
      vertex 392476.196587582 5818667.09667739 34.6199989318848
      vertex 392474.562869936 5818663.90185154 34.6199989318848
    endloop
  endfacet
  facet normal 2.7587071E-15 0.0 -1.0
    outer loop
      vertex 392475.763900058 5818673.82423354 34.6199989318848
      vertex 392478.48532305 5818679.14506562 34.6199989318848
      vertex 392481.554930521 5818677.57521505 34.6199989318848
    endloop
  endfacet
  facet normal 0.0 0.0 -1.0
    outer loop
      vertex 392475.763900058 5818673.82423354 34.6199989318848
      vertex 392481.554930521 5818677.57521505 34.6199989318848
      vertex 392478.829720929 5818672.24591618 34.6199989318848
    endloop
  endfacet
  facet normal 0.0 0.0 -1.0
    outer loop
      vertex 392428.166579628 5818687.62593215 34.6199989318848
      vertex 392429.8002538 5818690.82078067 34.6199989318848
      vertex 392473.126030806 5818668.6667627 34.6199989318848
    endloop
  endfacet
  facet normal 0.0 0.0 -1.0
    outer loop
      vertex 392428.166579628 5818687.62593215 34.6199989318848
      vertex 392473.126030806 5818668.6667627 34.6199989318848
      vertex 392471.492054698 5818665.47206898 34.6199989318848
    endloop
  endfacet
  facet normal 0.0 0.0 -1.0
    outer loop
      vertex 392478.48532305 5818679.14506562 34.6199989318848
      vertex 392486.839188817 5818695.47825397 34.6199989318848
      vertex 392489.907474921 5818693.90907903 34.6199989318848
    endloop
  endfacet
  facet normal -6.7402414E-16 0.0 -1.0
    outer loop
      vertex 392478.48532305 5818679.14506562 34.6199989318848
      vertex 392489.907474921 5818693.90907903 34.6199989318848
      vertex 392481.554930521 5818677.57521505 34.6199989318848
    endloop
  endfacet
  facet normal -1.1434302E-15 0.0 -1.0
    outer loop
      vertex 392478.829720929 5818672.24591618 34.6199989318848
      vertex 392481.554930521 5818677.57521505 34.6199989318848
      vertex 392485.252158671 5818675.68438839 34.6199989318848
    endloop
  endfacet
  facet normal 0.0 0.0 -1.0
    outer loop
      vertex 392478.829720929 5818672.24591618 34.6199989318848
      vertex 392485.252158671 5818675.68438839 34.6199989318848
      vertex 392482.521870549 5818670.34515811 34.6199989318848
    endloop
  endfacet
  facet normal 0.0 0.0 1.0
    outer loop
      vertex 392478.829843649 5818672.2460975 40.3589127299967
      vertex 392475.764022778 5818673.82441486 40.3589127299967
      vertex 392473.126153525 5818668.66694401 40.3589127299967
    endloop
  endfacet
  facet normal 2.8499694E-15 0.0 1.0
    outer loop
      vertex 392478.829843649 5818672.2460975 40.3589127299967
      vertex 392473.126153525 5818668.66694401 40.3589127299967
      vertex 392476.196710302 5818667.0968587 40.3589127299967
    endloop
  endfacet
  facet normal 0.0 0.0 1.0
    outer loop
      vertex 392482.52199327 5818670.34533943 40.3589127299967
      vertex 392478.829843649 5818672.2460975 40.3589127299967
      vertex 392476.196710302 5818667.0968587 40.3589127299967
    endloop
  endfacet
  facet normal 0.0 0.0 1.0
    outer loop
      vertex 392482.52199327 5818670.34533943 40.3589127299967
      vertex 392476.196710302 5818667.0968587 40.3589127299967
      vertex 392479.894060893 5818665.20627135 40.3589127299967
    endloop
  endfacet
  facet normal 0.021427194 -0.010957997 0.9997104
    outer loop
      vertex 392489.6306981 5818700.93605707 40.3589127299967
      vertex 392467.966489139 5818712.01424022 40.9446802768662
      vertex 392465.175885868 5818706.55751367 40.9446802768662
    endloop
  endfacet
  facet normal 0.02142693 -0.010959141 0.9997103
    outer loop
      vertex 392489.6306981 5818700.93605707 40.3589127299967
      vertex 392465.175885868 5818706.55751367 40.9446802768662
      vertex 392486.839311538 5818695.47843529 40.3589127299967
    endloop
  endfacet
  facet normal 0.28656223 -0.14653753 0.94678867
    outer loop
      vertex 392488.373467118 5818694.69386632 40.9446802768662
      vertex 392489.907597642 5818693.90926035 40.3589127299967
      vertex 392492.698617084 5818699.36725338 40.3589127299967
    endloop
  endfacet
  facet normal 0.2865933 -0.14656802 0.9467746
    outer loop
      vertex 392488.373467118 5818694.69386632 40.9446802768662
      vertex 392492.698617084 5818699.36725338 40.3589127299967
      vertex 392490.380143586 5818698.61764174 40.9446802768662
    endloop
  endfacet
  facet normal 0.010715537 -0.0054806303 0.9999276
    outer loop
      vertex 392489.6306981 5818700.93605707 40.3589127299967
      vertex 392492.41015068 5818706.37034578 40.3589127299967
      vertex 392449.08120567 5818728.52695801 40.9446802768662
    endloop
  endfacet
  facet normal 0.010716182 -0.005479682 0.9999276
    outer loop
      vertex 392489.6306981 5818700.93605707 40.3589127299967
      vertex 392449.08120567 5818728.52695801 40.9446802768662
      vertex 392446.302266691 5818723.09240597 40.9446802768662
    endloop
  endfacet
  facet normal 0.0 0.0 1.0
    outer loop
      vertex 392476.196710302 5818667.0968587 40.3589127299967
      vertex 392473.126153525 5818668.66694401 40.3589127299967
      vertex 392471.492177418 5818665.47225029 40.3589127299967
    endloop
  endfacet
  facet normal 0.0 0.0 1.0
    outer loop
      vertex 392476.196710302 5818667.0968587 40.3589127299967
      vertex 392471.492177418 5818665.47225029 40.3589127299967
      vertex 392474.562992656 5818663.90203285 40.3589127299967
    endloop
  endfacet
  facet normal 0.0 0.0 1.0
    outer loop
      vertex 392493.604825641 5818692.01843358 40.3589127299967
      vertex 392489.907597642 5818693.90926035 40.3589127299967
      vertex 392481.555053241 5818677.57539637 40.3589127299967
    endloop
  endfacet
  facet normal 0.0 0.0 1.0
    outer loop
      vertex 392493.604825641 5818692.01843358 40.3589127299967
      vertex 392481.555053241 5818677.57539637 40.3589127299967
      vertex 392485.252281392 5818675.68456971 40.3589127299967
    endloop
  endfacet
  facet normal 0.010715792 -0.0054807602 0.9999276
    outer loop
      vertex 392478.48544577 5818679.14524694 40.3589127299967
      vertex 392486.839311538 5818695.47843529 40.3589127299967
      vertex 392443.512446714 5818717.63657465 40.9446802768662
    endloop
  endfacet
  facet normal 0.010716693 -0.005479942 0.9999276
    outer loop
      vertex 392478.48544577 5818679.14524694 40.3589127299967
      vertex 392443.512446714 5818717.63657465 40.9446802768662
      vertex 392435.160124573 5818701.30259476 40.9446802768662
    endloop
  endfacet
  facet normal 0.0 0.0 1.0
    outer loop
      vertex 392473.126153525 5818668.66694401 40.3589127299967
      vertex 392429.800376514 5818690.82096199 40.3589127299967
      vertex 392428.166702342 5818687.62611347 40.3589127299967
    endloop
  endfacet
  facet normal -3.255441E-16 0.0 1.0
    outer loop
      vertex 392473.126153525 5818668.66694401 40.3589127299967
      vertex 392428.166702342 5818687.62611347 40.3589127299967
      vertex 392471.492177418 5818665.47225029 40.3589127299967
    endloop
  endfacet
  facet normal -0.021428972 0.010957628 0.9997103
    outer loop
      vertex 392454.131375445 5818684.96115824 40.9446802768662
      vertex 392432.498702107 5818696.09786572 40.3589127299967
      vertex 392429.800376514 5818690.82096199 40.3589127299967
    endloop
  endfacet
  facet normal -0.021428702 0.010958753 0.9997103
    outer loop
      vertex 392454.131375445 5818684.96115824 40.9446802768662
      vertex 392429.800376514 5818690.82096199 40.3589127299967
      vertex 392451.463278025 5818679.74397096 40.9446802768662
    endloop
  endfacet
  facet normal 0.0 0.0 1.0
    outer loop
      vertex 392489.907597642 5818693.90926035 40.3589127299967
      vertex 392486.839311538 5818695.47843529 40.3589127299967
      vertex 392478.48544577 5818679.14524694 40.3589127299967
    endloop
  endfacet
  facet normal 0.0 0.0 1.0
    outer loop
      vertex 392489.907597642 5818693.90926035 40.3589127299967
      vertex 392478.48544577 5818679.14524694 40.3589127299967
      vertex 392481.555053241 5818677.57539637 40.3589127299967
    endloop
  endfacet
  facet normal 0.021428464 -0.010958631 0.9997103
    outer loop
      vertex 392475.764022778 5818673.82441486 40.3589127299967
      vertex 392454.131375445 5818684.96115824 40.9446802768662
      vertex 392451.463278025 5818679.74397096 40.9446802768662
    endloop
  endfacet
  facet normal 0.021428185 -0.01095978 0.9997103
    outer loop
      vertex 392475.764022778 5818673.82441486 40.3589127299967
      vertex 392451.463278025 5818679.74397096 40.9446802768662
      vertex 392473.126153525 5818668.66694401 40.3589127299967
    endloop
  endfacet
  facet normal 0.0 0.0 1.0
    outer loop
      vertex 392485.252281392 5818675.68456971 40.3589127299967
      vertex 392481.555053241 5818677.57539637 40.3589127299967
      vertex 392478.829843649 5818672.2460975 40.3589127299967
    endloop
  endfacet
  facet normal 0.0 0.0 1.0
    outer loop
      vertex 392485.252281392 5818675.68456971 40.3589127299967
      vertex 392478.829843649 5818672.2460975 40.3589127299967
      vertex 392482.52199327 5818670.34533943 40.3589127299967
    endloop
  endfacet
  facet normal 0.0 0.0 1.0
    outer loop
      vertex 392481.555053241 5818677.57539637 40.3589127299967
      vertex 392478.48544577 5818679.14524694 40.3589127299967
      vertex 392475.764022778 5818673.82441486 40.3589127299967
    endloop
  endfacet
  facet normal 0.0 0.0 1.0
    outer loop
      vertex 392481.555053241 5818677.57539637 40.3589127299967
      vertex 392475.764022778 5818673.82441486 40.3589127299967
      vertex 392478.829843649 5818672.2460975 40.3589127299967
    endloop
  endfacet
  facet normal 0.010716174 -0.0054809554 0.9999276
    outer loop
      vertex 392475.764022778 5818673.82441486 40.3589127299967
      vertex 392478.48544577 5818679.14524694 40.3589127299967
      vertex 392435.160124573 5818701.30259476 40.9446802768662
    endloop
  endfacet
  facet normal 0.010716816 -0.0054800054 0.9999276
    outer loop
      vertex 392475.764022778 5818673.82441486 40.3589127299967
      vertex 392435.160124573 5818701.30259476 40.9446802768662
      vertex 392432.498714633 5818696.09788423 40.9446802768662
    endloop
  endfacet
  facet normal -0.2865555 0.1465487 0.946789
    outer loop
      vertex 392486.839311538 5818695.47843529 40.3589127299967
      vertex 392488.373467118 5818694.69386632 40.9446802768662
      vertex 392490.380143586 5818698.61764174 40.9446802768662
    endloop
  endfacet
  facet normal -0.28657615 0.14657389 0.94677883
    outer loop
      vertex 392486.839311538 5818695.47843529 40.3589127299967
      vertex 392490.380143586 5818698.61764174 40.9446802768662
      vertex 392489.6306981 5818700.93605707 40.3589127299967
    endloop
  endfacet
  facet normal -0.021427706 0.010956981 0.9997104
    outer loop
      vertex 392467.966489139 5818712.01424022 40.9446802768662
      vertex 392446.302254165 5818723.09238746 40.3589127299967
      vertex 392443.512434189 5818717.63655614 40.3589127299967
    endloop
  endfacet
  facet normal -0.021427441 0.010958125 0.9997103
    outer loop
      vertex 392467.966489139 5818712.01424022 40.9446802768662
      vertex 392443.512434189 5818717.63655614 40.3589127299967
      vertex 392465.175885868 5818706.55751367 40.9446802768662
    endloop
  endfacet
  facet normal -0.1296716 0.066307105 0.9893375
    outer loop
      vertex 392431.617420134 5818703.11437063 40.3589127299967
      vertex 392428.960876323 5818697.91917646 40.3589127299967
      vertex 392432.498714633 5818696.09788423 40.9446802768662
    endloop
  endfacet
  facet normal -0.1296716 0.066307105 0.9893375
    outer loop
      vertex 392431.617420134 5818703.11437063 40.3589127299967
      vertex 392432.498714633 5818696.09788423 40.9446802768662
      vertex 392435.160124573 5818701.30259476 40.9446802768662
    endloop
  endfacet
endsolid Mesh
